{
.appVersion = "3086";
DisplayStrings = (
"/IJ/ij/hbar/hbar.ss08/f_b.dlig/f_f.dlig/f_f_i.dlig/f_f_l.dlig/f_f_t.dlig/f_i.dlig/f_j.dlig/f_k.dlig/f_l.dlig/f_t.dlig/fi/fl/f_f_t.dlig.ss12/f_t.dlig.ss12 ½/onethird/twothirds ¼¾/oneeighth/threeeighths/fiveeighths/seveneighths/.notdef/emdash.case/emdash/numero/Tereza \012/IJ/ij/hbar/hbar.ss08/f_b.dlig/f_f.dlig/f_f_i.dlig/f_f_l.dlig/f_f_t.dlig/f_i.dlig/f_j.dlig/f_k.dlig/f_l.dlig/f_t.dlig/fi/fl/f_f_t.dlig.ss12/f_t.dlig.ss12 ½/onethird/twothirds ¼¾/oneeighth/threeeighths/fiveeighths/seveneighths/.notdef/emdash.case/emdash/numero/tildecomb/tilde/Tereza \012A/IJ/ij/hbar/hbar.ss08/f_b.dlig/f_f.dlig/f_f_i.dlig/f_f_l.dlig/f_f_t.dlig/f_i.dlig/f_j.dlig/f_k.dlig/f_l.dlig/f_t.dlig/fi/fl/f_f_t.dlig.ss12/f_t.dlig.ss12 ½/onethird/twothirds ¼¾/oneeighth/threeeighths/fiveeighths/seveneighths/.notdef/emdash.case/emdash/numero/tildecomb/tilde/Tereza \012"
);
copyright = "Copyright 2021 The Azeret Project Authors (https://github.com/displaay/azeret)";
customParameters = (
{
name = "TrueType Curve Error";
value = 0.3;
},
{
name = "Use Typo Metrics";
value = 1;
},
{
name = fsType;
value = (
);
},
{
name = "Disable Last Change";
value = 0;
},
{
name = "Use Line Breaks";
value = 1;
},
{
name = "Variable Font Origin";
value = "8A7F20D3-7375-4A55-82DC-0ADBCD41717D";
},
{
name = license;
value = "This Font Software is licensed under the SIL Open Font License, Version 1.1. This license is available with a FAQ at: https://scripts.sil.org/OFL";
},
{
name = licenseURL;
value = "https://scripts.sil.org/OFL";
},
{
name = Axes;
value = (
{
Name = Weight;
Tag = wght;
}
);
}
);
date = "2021-03-23 22:42:24 +0000";
designer = "Martin Vácha";
designerURL = "https://displaay.net";
familyName = "Azeret Mono";
featurePrefixes = (
{
automatic = 1;
code = "languagesystem DFLT dflt;

languagesystem latn dflt;
languagesystem latn AZE;
languagesystem latn CRT;
languagesystem latn KAZ;
languagesystem latn TAT;
languagesystem latn TRK;
languagesystem latn ROM;

glyphs = (
{
color = 6;
glyphname = A;
lastChange = "2021-05-25 15:15:03 +0000";
layers = (
{
anchors = (
{
name = bottom;
position = "{321, 0}";
},
{
name = ogonek;
position = "{606, 0}";
},
{
name = top;
position = "{326, 698}";
}
);
layerId = "8A7F20D3-7375-4A55-82DC-0ADBCD41717D";
paths = (
{
closed = 1;
nodes = (
"507 217 LINE",
"507 262 LINE",
"143 262 LINE",
"143 217 LINE"
);
},
{
closed = 1;
nodes = (
"41 0 LINE",
"92 0 LINE",
"284 526 LINE",
"326 647 LINE",
"367 528 LINE",
"559 0 LINE",
"609 0 LINE",
"354 698 LINE",
"296 698 LINE"
);
}
);
width = 650;
},
{
anchors = (
{
name = bottom;
position = "{359, 0}";
},
{
name = ogonek;
position = "{579, 0}";
},
{
name = top;
position = "{317, 698}";
}
);
layerId = "8628BAC4-B70C-44D0-A849-1AF4E6A86A6D";
paths = (
{
closed = 1;
nodes = (
"541 134 LINE",
"541 269 LINE",
"130 269 LINE",
"130 134 LINE"
);
},
{
closed = 1;
nodes = (
"25 0 LINE",
"188 0 LINE",
"281 396 LINE",
"324 582 LINE",
"366 396 LINE",
"457 0 LINE",
"625 0 LINE",
"448 698 LINE",
"201 698 LINE"
);
}
);
width = 650;
},
{
anchors = (
{
name = bottom;
position = "{320, 0}";
},
{
name = ogonek;
position = "{535, 0}";
},
{
name = top;
position = "{319, 698}";
}
);
layerId = "CBDC2F8B-F278-480B-84CB-440443C6424E";
paths = (
{
closed = 1;
nodes = (
"552 123 LINE",
"552 298 LINE",
"109 298 LINE",
"109 123 LINE"
);
},
{
closed = 1;
nodes = (
"20 0 LINE",
"246 0 LINE",
"276 286 LINE",
"319 531 LINE",
"362 286 LINE",
"395 0 LINE",
"630 0 LINE",
"485 698 LINE",
"163 698 LINE"
);
}
);
width = 650;
}
);
unicode = 0041;
},
{
color = 6;
glyphname = AE;
lastChange = "2021-05-25 15:15:03 +0000";
layers = (
{
anchors = (
{
name = bottom;
position = "{675, 0}";
},
{
name = ogonek;
position = "{895, 0}";
},
{
name = top;
position = "{374, 698}";
}
);
layerId = "8A7F20D3-7375-4A55-82DC-0ADBCD41717D";
leftMetricsKey = "=22";
paths = (
{
closed = 1;
nodes = (
"70 0 LINE",
"374 698 LINE",
"326 698 LINE",
"22 0 LINE"
);
},
{
closed = 1;
nodes = (
"373 179 LINE",
"373 224 LINE",
"133 224 LINE",
"133 179 LINE"
);
},
{
closed = 1;
nodes = (
"642 0 LINE",
"642 45 LINE",
"380 45 LINE",
"380 340 LINE",
"567 340 LINE",
"567 385 LINE",
"380 385 LINE",
"380 653 LINE",
"638 653 LINE",
"638 698 LINE",
"333 698 LINE",
"333 0 LINE"
);
}
);
width = 650;
},
{
anchors = (
{
name = bottom;
position = "{744, 0}";
},
{
name = ogonek;
position = "{1005, 0}";
},
{
name = top;
position = "{392, 698}";
}
);
layerId = "8628BAC4-B70C-44D0-A849-1AF4E6A86A6D";
leftMetricsKey = "=-6";
paths = (
{
closed = 1;
nodes = (
"146 0 LINE",
"393 698 LINE",
"262 698 LINE",
"4 0 LINE"
);
},
{
closed = 1;
nodes = (
"379 132 LINE",
"379 267 LINE",
"154 267 LINE",
"154 132 LINE"
);
},
{
closed = 1;
nodes = (
"635 0 LINE",
"635 135 LINE",
"479 135 LINE",
"479 293 LINE",
"596 293 LINE",
"596 428 LINE",
"479 428 LINE",
"479 563 LINE",
"631 563 LINE",
"631 698 LINE",
"344 698 LINE",
"344 0 LINE"
);
}
);
width = 650;
},
{
anchors = (
{
name = bottom;
position = "{799, 0}";
},
{
name = ogonek;
position = "{1083, 0}";
},
{
name = top;
position = "{384, 698}";
}
);
layerId = "CBDC2F8B-F278-480B-84CB-440443C6424E";
paths = (
{
closed = 1;
nodes = (
"196 0 LINE",
"384 698 LINE",
"210 698 LINE",
"6 0 LINE"
);
},
{
closed = 1;
nodes = (
"355 106 LINE",
"355 290 LINE",
"181 290 LINE",
"181 106 LINE"
);
},
{
closed = 1;
nodes = (
"640 0 LINE",
"640 184 LINE",
"516 184 LINE",
"516 267 LINE",
"614 267 LINE",
"614 442 LINE",
"516 442 LINE",
"516 514 LINE",
"636 514 LINE",
"636 698 LINE",
"337 698 LINE",
"337 0 LINE"
);
}
);
width = 650;
}
);
leftMetricsKey = "=A";
rightMetricsKey = "=E";
unicode = 00C6;
},
{
color = 6;
glyphname = B;
lastChange = "2021-05-25 15:15:03 +0000";
layers = (
{
layerId = "8A7F20D3-7375-4A55-82DC-0ADBCD41717D";
paths = (
{
closed = 1;
nodes = (
"516 381 OFFCURVE",
"560 456 OFFCURVE",
"560 530 CURVE SMOOTH",
"560 633 OFFCURVE",
"476 698 OFFCURVE",
"343 698 CURVE SMOOTH",
"103 698 LINE",
"103 0 LINE",
"354 0 LINE SMOOTH",
"492 0 OFFCURVE",
"578 77 OFFCURVE",
"578 189 CURVE SMOOTH",
"578 292 OFFCURVE",
"505 352 OFFCURVE",
"432 366 CURVE"
);
},
{
closed = 1;
nodes = (
"445 653 OFFCURVE",
"508 607 OFFCURVE",
"508 523 CURVE SMOOTH",
"508 439 OFFCURVE",
"446 385 OFFCURVE",
"344 385 CURVE SMOOTH",
"150 385 LINE",
"150 653 LINE",
"344 653 LINE SMOOTH"
);
},
{
closed = 1;
nodes = (
"150 340 LINE",
"336 340 LINE SMOOTH",
"454 340 OFFCURVE",
"526 286 OFFCURVE",
"526 192 CURVE SMOOTH",
"526 103 OFFCURVE",
"460 45 OFFCURVE",
"354 45 CURVE SMOOTH",
"150 45 LINE"
);
}
);
width = 650;
},
{
layerId = "8628BAC4-B70C-44D0-A849-1AF4E6A86A6D";
paths = (
{
closed = 1;
nodes = (
"555 395 OFFCURVE",
"596 443 OFFCURVE",
"596 517 CURVE SMOOTH",
"596 624 OFFCURVE",
"505 698 OFFCURVE",
"344 698 CURVE SMOOTH",
"64 698 LINE",
"64 0 LINE",
"354 0 LINE SMOOTH",
"509 0 OFFCURVE",
"612 78 OFFCURVE",
"612 203 CURVE SMOOTH",
"612 283 OFFCURVE",
"572 337 OFFCURVE",
"493 365 CURVE"
);
},
{
closed = 1;
nodes = (
"387 563 OFFCURVE",
"426 535 OFFCURVE",
"426 492 CURVE SMOOTH",
"426 449 OFFCURVE",
"388 419 OFFCURVE",
"334 419 CURVE SMOOTH",
"229 419 LINE",
"229 563 LINE",
"334 563 LINE SMOOTH"
);
},
{
closed = 1;
nodes = (
"229 284 LINE",
"348 284 LINE SMOOTH",
"406 284 OFFCURVE",
"442 256 OFFCURVE",
"442 209 CURVE SMOOTH",
"442 163 OFFCURVE",
"405 135 OFFCURVE",
"349 135 CURVE SMOOTH",
"229 135 LINE"
);
}
);
width = 650;
},
{
layerId = "CBDC2F8B-F278-480B-84CB-440443C6424E";
paths = (
{
closed = 1;
nodes = (
"562 387 OFFCURVE",
"604 446 OFFCURVE",
"604 515 CURVE SMOOTH",
"604 628 OFFCURVE",
"515 698 OFFCURVE",
"352 698 CURVE SMOOTH",
"40 698 LINE",
"40 0 LINE",
"367 0 LINE SMOOTH",
"531 0 OFFCURVE",
"625 79 OFFCURVE",
"625 201 CURVE SMOOTH",
"625 280 OFFCURVE",
"575 343 OFFCURVE",
"497 365 CURVE"
);
},
{
closed = 1;
nodes = (
"352 514 OFFCURVE",
"374 498 OFFCURVE",
"374 473 CURVE SMOOTH",
"374 448 OFFCURVE",
"353 431 OFFCURVE",
"320 431 CURVE SMOOTH",
"269 431 LINE",
"269 514 LINE",
"320 514 LINE SMOOTH"
);
},
{
closed = 1;
nodes = (
"269 272 LINE",
"340 272 LINE SMOOTH",
"369 272 OFFCURVE",
"388 255 OFFCURVE",
"388 228 CURVE SMOOTH",
"388 201 OFFCURVE",
"366 184 OFFCURVE",
"335 184 CURVE SMOOTH",
"269 184 LINE"
);
}
);
width = 650;
}
);
leftMetricsKey = H;
unicode = 0042;
},
{
color = 6;
glyphname = C;
lastChange = "2021-05-25 15:15:03 +0000";
layers = (
{
anchors = (
{
name = bottom;
position = "{337, 0}";
},
{
name = center;
position = "{337, 351}";
},
{
name = ogonek;
position = "{413, 0}";
},
{
name = top;
position = "{337, 700}";
},
{
name = topleft;
position = "{27, 700}";
},
{
name = topright;
position = "{646, 700}";
}
);
layerId = "8A7F20D3-7375-4A55-82DC-0ADBCD41717D";
paths = (
{
closed = 1;
nodes = (
"492 -12 OFFCURVE",
"595 85 OFFCURVE",
"607 228 CURVE",
"554 228 LINE",
"544 113 OFFCURVE",
"461 33 OFFCURVE",
"342 33 CURVE SMOOTH",
"201 33 OFFCURVE",
"99 158 OFFCURVE",
"99 349 CURVE SMOOTH",
"99 535 OFFCURVE",
"195 665 OFFCURVE",
"341 665 CURVE SMOOTH",
"456 665 OFFCURVE",
"537 592 OFFCURVE",
"551 481 CURVE",
"604 481 LINE",
"587 619 OFFCURVE",
"486 710 OFFCURVE",
"343 710 CURVE SMOOTH",
"171 710 OFFCURVE",
"47 570 OFFCURVE",
"47 350 CURVE SMOOTH",
"47 145 OFFCURVE",
"159 -12 OFFCURVE",
"342 -12 CURVE SMOOTH"
);
}
);
width = 650;
},
{
anchors = (
{
name = bottom;
position = "{337, 0}";
},
{
name = center;
position = "{337, 349}";
},
{
name = ogonek;
position = "{414, 0}";
},
{
name = top;
position = "{337, 700}";
},
{
name = topleft;
position = "{35, 700}";
},
{
name = topright;
position = "{638, 700}";
}
);
layerId = "8628BAC4-B70C-44D0-A849-1AF4E6A86A6D";
paths = (
{
closed = 1;
nodes = (
"505 -12 OFFCURVE",
"612 85 OFFCURVE",
"628 239 CURVE",
"448 239 LINE",
"441 164 OFFCURVE",
"397 123 OFFCURVE",
"332 123 CURVE SMOOTH",
"254 123 OFFCURVE",
"196 202 OFFCURVE",
"196 349 CURVE SMOOTH",
"196 497 OFFCURVE",
"257 575 OFFCURVE",
"338 575 CURVE SMOOTH",
"400 575 OFFCURVE",
"437 531 OFFCURVE",
"444 463 CURVE",
"624 463 LINE",
"615 621 OFFCURVE",
"487 710 OFFCURVE",
"338 710 CURVE SMOOTH",
"146 710 OFFCURVE",
"26 569 OFFCURVE",
"26 349 CURVE SMOOTH",
"26 130 OFFCURVE",
"144 -12 OFFCURVE",
"332 -12 CURVE SMOOTH"
);
}
);
width = 650;
},
{
anchors = (
{
name = bottom;
position = "{335, 0}";
},
{
name = center;
position = "{335, 226}";
},
{
name = ogonek;
position = "{410, 0}";
},
{
name = top;
position = "{335, 700}";
},
{
name = topleft;
position = "{46, 700}";
},
{
name = topright;
position = "{624, 700}";
}
);
layerId = "CBDC2F8B-F278-480B-84CB-440443C6424E";
paths = (
{
closed = 1;
nodes = (
"520 -12 OFFCURVE",
"612 97 OFFCURVE",
"630 264 CURVE",
"405 264 LINE",
"400 211 OFFCURVE",
"372 172 OFFCURVE",
"331 172 CURVE SMOOTH",
"288 172 OFFCURVE",
"256 214 OFFCURVE",
"256 349 CURVE SMOOTH",
"256 466 OFFCURVE",
"280 526 OFFCURVE",
"335 526 CURVE SMOOTH",
"377 526 OFFCURVE",
"398 483 OFFCURVE",
"401 438 CURVE",
"626 438 LINE",
"622 608 OFFCURVE",
"496 710 OFFCURVE",
"341 710 CURVE SMOOTH",
"155 710 OFFCURVE",
"22 569 OFFCURVE",
"22 349 CURVE SMOOTH",
"22 132 OFFCURVE",
"147 -12 OFFCURVE",
"332 -12 CURVE SMOOTH"
);
}
);
width = 650;
}
);
leftMetricsKey = O;
unicode = 0043;
},
{
color = 6;
glyphname = D;
lastChange = "2021-05-25 15:15:03 +0000";
layers = (
{
anchors = (
{
name = top;
position = "{307, 699}";
}
);
layerId = "8A7F20D3-7375-4A55-82DC-0ADBCD41717D";
paths = (
{
closed = 1;
nodes = (
"278 0 LINE SMOOTH",
"474 0 OFFCURVE",
"601 138 OFFCURVE",
"601 351 CURVE SMOOTH",
"601 562 OFFCURVE",
"474 698 OFFCURVE",
"278 698 CURVE SMOOTH",
"83 698 LINE",
"83 0 LINE"
);
},
{
closed = 1;
nodes = (
"130 653 LINE",
"278 653 LINE SMOOTH",
"442 653 OFFCURVE",
"549 535 OFFCURVE",
"549 351 CURVE SMOOTH",
"549 166 OFFCURVE",
"442 45 OFFCURVE",
"278 45 CURVE SMOOTH",
"130 45 LINE"
);
}
);
width = 650;
},
{
anchors = (
{
name = top;
position = "{294, 699}";
}
);
layerId = "8628BAC4-B70C-44D0-A849-1AF4E6A86A6D";
paths = (
{
closed = 1;
nodes = (
"289 0 LINE SMOOTH",
"500 0 OFFCURVE",
"627 138 OFFCURVE",
"627 351 CURVE SMOOTH",
"627 562 OFFCURVE",
"500 698 OFFCURVE",
"289 698 CURVE SMOOTH",
"54 698 LINE",
"54 0 LINE"
);
},
{
closed = 1;
nodes = (
"219 563 LINE",
"289 563 LINE SMOOTH",
"397 563 OFFCURVE",
"457 480 OFFCURVE",
"457 351 CURVE SMOOTH",
"457 220 OFFCURVE",
"397 135 OFFCURVE",
"289 135 CURVE SMOOTH",
"219 135 LINE"
);
}
);
width = 650;
},
{
anchors = (
{
name = top;
position = "{282, 699}";
}
);
layerId = "CBDC2F8B-F278-480B-84CB-440443C6424E";
paths = (
{
closed = 1;
nodes = (
"276 0 LINE SMOOTH",
"511 0 OFFCURVE",
"630 160 OFFCURVE",
"630 351 CURVE SMOOTH",
"630 539 OFFCURVE",
"511 698 OFFCURVE",
"276 698 CURVE SMOOTH",
"32 698 LINE",
"32 0 LINE"
);
},
{
closed = 1;
nodes = (
"261 514 LINE",
"277 514 LINE SMOOTH",
"337 514 OFFCURVE",
"396 465 OFFCURVE",
"396 351 CURVE SMOOTH",
"396 236 OFFCURVE",
"337 184 OFFCURVE",
"277 184 CURVE SMOOTH",
"261 184 LINE"
);
}
);
width = 650;
}
);
leftMetricsKey = H;
rightMetricsKey = "=O";
unicode = 0044;
},
{
color = 3;
glyphname = Eth;
lastChange = "2021-05-25 15:15:03 +0000";
layers = (
{
anchors = (
{
name = _center;
position = "{290.5, 350}";
}
);
components = (
{
name = D;
}
);
layerId = "8A7F20D3-7375-4A55-82DC-0ADBCD41717D";
paths = (
{
closed = 1;
nodes = (
"364 331 LINE",
"364 369 LINE",
"3 369 LINE",
"3 331 LINE"
);
}
);
width = 650;
},
{
anchors = (
{
name = _center;
position = "{273, 351.41}";
}
);
components = (
{
alignment = -1;
name = D;
}
);
layerId = "8628BAC4-B70C-44D0-A849-1AF4E6A86A6D";
paths = (
{
closed = 1;
nodes = (
"384 289 LINE",
"384 414 LINE",
"1 414 LINE",
"1 289 LINE"
);
}
);
width = 650;
},
{
anchors = (
{
name = _center;
position = "{153, 350.28}";
}
);
components = (
{
alignment = -1;
name = D;
}
);
layerId = "CBDC2F8B-F278-480B-84CB-440443C6424E";
paths = (
{
closed = 1;
nodes = (
"352.8 281.35 LINE",
"352.8 416.95 LINE",
"1 417 LINE",
"1 281 LINE"
);
}
);
width = 650;
}
);
rightMetricsKey = D;
unicode = 00D0;
},
{
color = 6;
glyphname = E;
lastChange = "2021-05-25 15:15:03 +0000";
layers = (
{
anchors = (
{
name = bottom;
position = "{332, 0}";
},
{
name = ogonek;
position = "{582, 0}";
},
{
name = top;
position = "{348, 699}";
}
);
layerId = "8A7F20D3-7375-4A55-82DC-0ADBCD41717D";
paths = (
{
closed = 1;
nodes = (
"582 0 LINE",
"582 45 LINE",
"140 45 LINE",
"140 340 LINE",
"457 340 LINE",
"457 385 LINE",
"140 385 LINE",
"140 653 LINE",
"578 653 LINE",
"578 698 LINE",
"93 698 LINE",
"93 0 LINE"
);
}
);
width = 650;
},
{
anchors = (
{
name = bottom;
position = "{323, 0}";
},
{
name = ogonek;
position = "{594, 0}";
},
{
name = top;
position = "{336, 699}";
}
);
layerId = "8628BAC4-B70C-44D0-A849-1AF4E6A86A6D";
paths = (
{
closed = 1;
nodes = (
"594 0 LINE",
"594 135 LINE",
"238 135 LINE",
"238 293 LINE",
"465 293 LINE",
"465 428 LINE",
"238 428 LINE",
"238 563 LINE",
"590 563 LINE",
"590 698 LINE",
"73 698 LINE",
"73 0 LINE"
);
}
);
width = 650;
},
{
anchors = (
{
name = bottom;
position = "{318, 0}";
},
{
name = ogonek;
position = "{602, 0}";
},
{
name = top;
position = "{318, 699}";
}
);
layerId = "CBDC2F8B-F278-480B-84CB-440443C6424E";
paths = (
{
closed = 1;
nodes = (
"602 0 LINE",
"602 184 LINE",
"275 184 LINE",
"275 267 LINE",
"476 267 LINE",
"476 442 LINE",
"275 442 LINE",
"275 514 LINE",
"598 514 LINE",
"598 698 LINE",
"46 698 LINE",
"46 0 LINE"
);
}
);
width = 650;
}
);
leftMetricsKey = H;
unicode = 0045;
},
{
color = 6;
glyphname = F;
lastChange = "2021-05-25 15:15:03 +0000";
layers = (
{
layerId = "8A7F20D3-7375-4A55-82DC-0ADBCD41717D";
paths = (
{
closed = 1;
nodes = (
"137 0 LINE",
"137 340 LINE",
"454 340 LINE",
"454 385 LINE",
"137 385 LINE",
"137 653 LINE",
"575 653 LINE",
"575 698 LINE",
"90 698 LINE",
"90 0 LINE"
);
}
);
width = 650;
},
{
layerId = "8628BAC4-B70C-44D0-A849-1AF4E6A86A6D";
paths = (
{
closed = 1;
nodes = (
"228 0 LINE",
"228 293 LINE",
"465 293 LINE",
"465 428 LINE",
"228 428 LINE",
"228 563 LINE",
"590 563 LINE",
"590 698 LINE",
"63 698 LINE",
"63 0 LINE"
);
}
);
width = 650;
},
{
layerId = "CBDC2F8B-F278-480B-84CB-440443C6424E";
paths = (
{
closed = 1;
nodes = (
"282 0 LINE",
"282 267 LINE",
"483 267 LINE",
"483 442 LINE",
"282 442 LINE",
"282 514 LINE",
"605 514 LINE",
"605 698 LINE",
"53 698 LINE",
"53 0 LINE"
);
}
);
width = 650;
}
);
leftMetricsKey = H;
unicode = 0046;
},
{
color = 6;
glyphname = G;
lastChange = "2021-05-25 15:15:03 +0000";
layers = (
{
anchors = (
{
name = bottom;
position = "{352, 0}";
},
{
name = top;
position = "{342, 698}";
}
);
layerId = "8A7F20D3-7375-4A55-82DC-0ADBCD41717D";
paths = (
{
closed = 1;
nodes = (
"450 -12 OFFCURVE",
"546 31 OFFCURVE",
"597 106 CURVE",
"597 362 LINE",
"400 362 LINE",
"398 317 LINE",
"549 320 LINE",
"549 122 LINE",
"511 74 OFFCURVE",
"437 33 OFFCURVE",
"351 33 CURVE SMOOTH",
"209 33 OFFCURVE",
"95 143 OFFCURVE",
"95 349 CURVE SMOOTH",
"95 542 OFFCURVE",
"206 665 OFFCURVE",
"345 665 CURVE SMOOTH",
"453 665 OFFCURVE",
"528 597 OFFCURVE",
"543 482 CURVE",
"597 482 LINE",
"580 621 OFFCURVE",
"488 710 OFFCURVE",
"346 710 CURVE SMOOTH",
"170 710 OFFCURVE",
"42 562 OFFCURVE",
"42 349 CURVE SMOOTH",
"42 129 OFFCURVE",
"166 -12 OFFCURVE",
"351 -12 CURVE SMOOTH"
);
}
);
width = 650;
},
{
anchors = (
{
name = bottom;
position = "{333, 0}";
},
{
name = top;
position = "{341, 699}";
}
);
layerId = "8628BAC4-B70C-44D0-A849-1AF4E6A86A6D";
paths = (
{
closed = 1;
nodes = (
"463 -12 OFFCURVE",
"557 37 OFFCURVE",
"617 119 CURVE",
"617 376 LINE",
"367 376 LINE",
"362 239 LINE",
"455 244 LINE",
"455 165 LINE",
"423 137 OFFCURVE",
"391 123 OFFCURVE",
"342 123 CURVE SMOOTH",
"251 123 OFFCURVE",
"190 205 OFFCURVE",
"190 349 CURVE SMOOTH",
"190 494 OFFCURVE",
"249 575 OFFCURVE",
"334 575 CURVE SMOOTH",
"394 575 OFFCURVE",
"430 527 OFFCURVE",
"436 464 CURVE",
"617 464 LINE",
"608 622 OFFCURVE",
"481 710 OFFCURVE",
"338 710 CURVE SMOOTH",
"139 710 OFFCURVE",
"20 565 OFFCURVE",
"20 349 CURVE SMOOTH",
"20 134 OFFCURVE",
"141 -12 OFFCURVE",
"326 -12 CURVE SMOOTH"
);
}
);
width = 650;
},
{
anchors = (
{
name = bottom;
position = "{336, 0}";
},
{
name = top;
position = "{338, 699}";
}
);
layerId = "CBDC2F8B-F278-480B-84CB-440443C6424E";
paths = (
{
closed = 1;
nodes = (
"466 -12 OFFCURVE",
"561 37 OFFCURVE",
"627 123 CURVE",
"627 405 LINE",
"343 405 LINE",
"338 240 LINE",
"398 245 LINE",
"398 195 LINE",
"379 180 OFFCURVE",
"363 172 OFFCURVE",
"336 172 CURVE SMOOTH",
"280 172 OFFCURVE",
"252 231 OFFCURVE",
"252 349 CURVE SMOOTH",
"252 455 OFFCURVE",
"270 526 OFFCURVE",
"337 526 CURVE SMOOTH",
"371 526 OFFCURVE",
"389 495 OFFCURVE",
"393 463 CURVE",
"628 463 LINE",
"616 622 OFFCURVE",
"481 710 OFFCURVE",
"339 710 CURVE SMOOTH",
"149 710 OFFCURVE",
"18 568 OFFCURVE",
"18 349 CURVE SMOOTH",
"18 121 OFFCURVE",
"154 -12 OFFCURVE",
"327 -12 CURVE SMOOTH"
);
}
);
width = 650;
}
);
leftMetricsKey = "=O";
unicode = 0047;
},
{
color = 6;
glyphname = H;
lastChange = "2021-05-25 15:15:03 +0000";
layers = (
{
anchors = (
{
name = center;
position = "{325, 538}";
},
{
name = top;
position = "{325, 699}";
}
);
layerId = "8A7F20D3-7375-4A55-82DC-0ADBCD41717D";
paths = (
{
closed = 1;
nodes = (
"562 0 LINE",
"562 698 LINE",
"515 698 LINE",
"515 0 LINE"
);
},
{
closed = 1;
nodes = (
"135 0 LINE",
"135 698 LINE",
"88 698 LINE",
"88 0 LINE"
);
},
{
closed = 1;
nodes = (
"527 340 LINE",
"527 385 LINE",
"123 385 LINE",
"123 340 LINE"
);
}
);
width = 650;
},
{
anchors = (
{
name = center;
position = "{325, 558}";
},
{
name = top;
position = "{325, 699}";
}
);
layerId = "8628BAC4-B70C-44D0-A849-1AF4E6A86A6D";
paths = (
{
closed = 1;
nodes = (
"608 0 LINE",
"608 698 LINE",
"443 698 LINE",
"443 0 LINE"
);
},
{
closed = 1;
nodes = (
"208 0 LINE",
"208 698 LINE",
"43 698 LINE",
"43 0 LINE"
);
},
{
closed = 1;
nodes = (
"459 293 LINE",
"459 428 LINE",
"191 428 LINE",
"191 293 LINE"
);
}
);
width = 650;
},
{
anchors = (
{
name = center;
position = "{324, 569}";
},
{
name = top;
position = "{324, 699}";
}
);
layerId = "CBDC2F8B-F278-480B-84CB-440443C6424E";
paths = (
{
closed = 1;
nodes = (
"617 0 LINE",
"617 698 LINE",
"388 698 LINE",
"388 0 LINE"
);
},
{
closed = 1;
nodes = (
"262 0 LINE",
"262 698 LINE",
"33 698 LINE",
"33 0 LINE"
);
},
{
closed = 1;
nodes = (
"406 267 LINE",
"406 450 LINE",
"242 450 LINE",
"242 267 LINE"
);
}
);
width = 650;
}
);
unicode = 0048;
},
{
color = 6;
glyphname = I;
lastChange = "2021-05-25 15:15:03 +0000";
layers = (
{
anchors = (
{
name = bottom;
position = "{324, 0}";
},
{
name = ogonek;
position = "{344, 0}";
},
{
name = top;
position = "{324, 699}";
},
{
name = topleft;
position = "{230, 699}";
}
);
layerId = "8A7F20D3-7375-4A55-82DC-0ADBCD41717D";
paths = (
{
closed = 1;
nodes = (
"348 0 LINE",
"348 698 LINE",
"301 698 LINE",
"301 0 LINE"
);
},
{
closed = 1;
nodes = (
"112 653 LINE",
"537 653 LINE",
"537 698 LINE",
"112 698 LINE"
);
},
{
closed = 1;
nodes = (
"112 0 LINE",
"537 0 LINE",
"537 45 LINE",
"112 45 LINE"
);
}
);
width = 650;
},
{
anchors = (
{
name = bottom;
position = "{325, 0}";
},
{
name = ogonek;
position = "{397, 0}";
},
{
name = top;
position = "{325, 699}";
},
{
name = topleft;
position = "{194, 699}";
}
);
layerId = "8628BAC4-B70C-44D0-A849-1AF4E6A86A6D";
paths = (
{
closed = 1;
nodes = (
"407 0 LINE",
"407 698 LINE",
"242 698 LINE",
"242 0 LINE"
);
},
{
closed = 1;
nodes = (
"82 563 LINE",
"567 563 LINE",
"567 698 LINE",
"82 698 LINE"
);
},
{
closed = 1;
nodes = (
"82 0 LINE",
"567 0 LINE",
"567 135 LINE",
"82 135 LINE"
);
}
);
width = 650;
},
{
anchors = (
{
name = bottom;
position = "{326, 0}";
},
{
name = ogonek;
position = "{412, 0}";
},
{
name = top;
position = "{326, 699}";
},
{
name = topleft;
position = "{174, 699}";
}
);
layerId = "CBDC2F8B-F278-480B-84CB-440443C6424E";
paths = (
{
closed = 1;
nodes = (
"439 0 LINE",
"439 698 LINE",
"210 698 LINE",
"210 0 LINE"
);
},
{
closed = 1;
nodes = (
"72 514 LINE",
"577 514 LINE",
"577 698 LINE",
"72 698 LINE"
);
},
{
closed = 1;
nodes = (
"72 0 LINE",
"577 0 LINE",
"577 184 LINE",
"72 184 LINE"
);
}
);
width = 650;
}
);
unicode = 0049;
},
{
color = 6;
glyphname = J;
lastChange = "2021-05-25 15:15:03 +0000";
layers = (
{
anchors = (
{
name = top;
position = "{363, 699}";
}
);
layerId = "8A7F20D3-7375-4A55-82DC-0ADBCD41717D";
paths = (
{
closed = 1;
nodes = (
"364 0 LINE SMOOTH",
"467 0 OFFCURVE",
"526 65 OFFCURVE",
"526 163 CURVE SMOOTH",
"526 698 LINE",
"479 698 LINE",
"479 163 LINE SMOOTH",
"479 91 OFFCURVE",
"438 45 OFFCURVE",
"366 45 CURVE SMOOTH",
"111 45 LINE",
"111 0 LINE"
);
},
{
closed = 1;
nodes = (
"182 653 LINE",
"525 653 LINE",
"525 698 LINE",
"182 698 LINE"
);
}
);
width = 650;
},
{
anchors = (
{
name = top;
position = "{400, 699}";
}
);
layerId = "8628BAC4-B70C-44D0-A849-1AF4E6A86A6D";
paths = (
{
closed = 1;
nodes = (
"334 0 LINE SMOOTH",
"501 0 OFFCURVE",
"581 80 OFFCURVE",
"581 239 CURVE SMOOTH",
"581 698 LINE",
"416 698 LINE",
"416 229 LINE SMOOTH",
"416 170 OFFCURVE",
"389 135 OFFCURVE",
"334 135 CURVE SMOOTH",
"90 135 LINE",
"90 0 LINE"
);
},
{
closed = 1;
nodes = (
"182 563 LINE",
"567 563 LINE",
"567 698 LINE",
"182 698 LINE"
);
}
);
width = 650;
},
{
anchors = (
{
name = top;
position = "{400, 699}";
}
);
layerId = "CBDC2F8B-F278-480B-84CB-440443C6424E";
paths = (
{
closed = 1;
nodes = (
"299 0 LINE SMOOTH",
"542 0 OFFCURVE",
"592 110 OFFCURVE",
"592 260 CURVE SMOOTH",
"592 698 LINE",
"363 698 LINE",
"363 265 LINE SMOOTH",
"363 213 OFFCURVE",
"344 183 OFFCURVE",
"298 183 CURVE SMOOTH",
"63 183 LINE",
"63 0 LINE"
);
},
{
closed = 1;
nodes = (
"122 514 LINE",
"577 514 LINE",
"577 698 LINE",
"122 698 LINE"
);
}
);
width = 650;
}
);
unicode = 004A;
},
{
color = 6;
glyphname = K;
lastChange = "2021-05-25 15:15:03 +0000";
layers = (
{
anchors = (
{
name = bottom;
position = "{339, 0}";
},
{
name = top;
position = "{329, 699}";
}
);
layerId = "8A7F20D3-7375-4A55-82DC-0ADBCD41717D";
paths = (
{
closed = 1;
nodes = (
"157 0 LINE",
"157 281.674 LINE",
"581 698 LINE",
"513 698 LINE",
"255 444 LINE",
"157 347 LINE",
"157 484 LINE",
"157 698 LINE",
"110 698 LINE",
"110 0 LINE"
);
},
{
closed = 1;
nodes = (
"611 0 LINE",
"273 436 LINE",
"236 405 LINE",
"549 0 LINE"
);
}
);
width = 650;
},
{
anchors = (
{
name = bottom;
position = "{329, 0}";
},
{
name = top;
position = "{309, 699}";
}
);
layerId = "8628BAC4-B70C-44D0-A849-1AF4E6A86A6D";
paths = (
{
closed = 1;
nodes = (
"213 0 LINE",
"213 213.669 LINE",
"616 698 LINE",
"421 698 LINE",
"301 551 LINE",
"198 421 LINE",
"213 551 LINE",
"213 698 LINE",
"48 698 LINE",
"48 0 LINE"
);
},
{
closed = 1;
nodes = (
"635 0 LINE",
"379 455 LINE",
"238 377 LINE",
"443 0 LINE"
);
}
);
width = 650;
},
{
anchors = (
{
name = bottom;
position = "{328, 0}";
},
{
name = top;
position = "{298, 699}";
}
);
layerId = "CBDC2F8B-F278-480B-84CB-440443C6424E";
paths = (
{
closed = 1;
nodes = (
"251 0 LINE",
"251 163.2 LINE",
"629 698 LINE",
"390 698 LINE",
"325 596 LINE",
"227 426 LINE",
"251 616 LINE",
"251 698 LINE",
"22 698 LINE",
"22 0 LINE"
);
},
{
closed = 1;
nodes = (
"640 0 LINE",
"421 445 LINE",
"227 357 LINE",
"388 0 LINE"
);
}
);
width = 650;
}
);
leftMetricsKey = H;
unicode = 004B;
},
{
color = 6;
glyphname = L;
lastChange = "2021-05-25 15:15:03 +0000";
layers = (
{
anchors = (
{
name = bottom;
position = "{340, 0}";
},
{
name = top;
position = "{165, 699}";
}
);
layerId = "8A7F20D3-7375-4A55-82DC-0ADBCD41717D";
paths = (
{
closed = 1;
nodes = (
"577 0 LINE",
"577 45 LINE",
"184 45 LINE",
"184 698 LINE",
"137 698 LINE",
"137 0 LINE"
);
}
);
width = 650;
},
{
anchors = (
{
name = bottom;
position = "{347, 0}";
},
{
name = top;
position = "{173, 699}";
}
);
layerId = "8628BAC4-B70C-44D0-A849-1AF4E6A86A6D";
paths = (
{
closed = 1;
nodes = (
"586 0 LINE",
"586 135 LINE",
"248 135 LINE",
"248 698 LINE",
"83 698 LINE",
"83 0 LINE"
);
}
);
width = 650;
},
{
anchors = (
{
name = bottom;
position = "{338, 0}";
},
{
name = top;
position = "{182, 699}";
}
);
layerId = "CBDC2F8B-F278-480B-84CB-440443C6424E";
paths = (
{
closed = 1;
nodes = (
"599 0 LINE",
"599 184 LINE",
"285 184 LINE",
"285 698 LINE",
"56 698 LINE",
"56 0 LINE"
);
}
);
width = 650;
}
);
leftMetricsKey = H;
unicode = 004C;
},
{
color = 3;
glyphname = Lslash;
lastChange = "2021-05-25 15:15:03 +0000";
layers = (
{
components = (
{
name = L;
}
);
layerId = "8A7F20D3-7375-4A55-82DC-0ADBCD41717D";
paths = (
{
closed = 1;
nodes = (
"344 401 LINE",
"344 443 LINE",
"28 332 LINE",
"28 290 LINE"
);
}
);
width = 650;
},
{
components = (
{
name = L;
}
);
layerId = "8628BAC4-B70C-44D0-A849-1AF4E6A86A6D";
paths = (
{
closed = 1;
nodes = (
"428 375 LINE",
"428 510 LINE",
"11 362 LINE",
"11 227 LINE"
);
}
);
width = 650;
},
{
components = (
{
name = L;
}
);
layerId = "CBDC2F8B-F278-480B-84CB-440443C6424E";
paths = (
{
closed = 1;
nodes = (
"479 371 LINE",
"479 546 LINE",
"7 378 LINE",
"7 203 LINE"
);
}
);
width = 650;
}
);
unicode = 0141;
},
{
color = 6;
glyphname = M;
lastChange = "2021-05-25 15:15:03 +0000";
layers = (
{
layerId = "8A7F20D3-7375-4A55-82DC-0ADBCD41717D";
paths = (
{
closed = 1;
nodes = (
"82 0 LINE",
"125 528 LINE",
"134 645 LINE",
"159 528 LINE",
"296 0 LINE",
"350 0 LINE",
"490 528 LINE",
"518 642 LINE",
"525 528 LINE",
"569 0 LINE",
"616 0 LINE",
"558 698 LINE",
"492 698 LINE",
"347 163 LINE",
"324 72 LINE",
"301 163 LINE",
"162 698 LINE",
"93 698 LINE",
"36 0 LINE"
);
}
);
width = 650;
},
{
layerId = "8628BAC4-B70C-44D0-A849-1AF4E6A86A6D";
paths = (
{
closed = 1;
nodes = (
"170 0 LINE",
"178 327 LINE",
"178 529 LINE",
"205 327 LINE",
"261 0 LINE",
"388 0 LINE",
"442 327 LINE",
"470 526 LINE",
"470 327 LINE",
"476 0 LINE",
"636 0 LINE",
"588 698 LINE",
"394 698 LINE",
"344 384 LINE",
"327 242 LINE",
"310 384 LINE",
"263 698 LINE",
"63 698 LINE",
"15 0 LINE"
);
}
);
width = 650;
},
{
layerId = "CBDC2F8B-F278-480B-84CB-440443C6424E";
paths = (
{
closed = 1;
nodes = (
"194 0 LINE",
"197 299 LINE",
"198 516 LINE",
"222 299 LINE",
"253 0 LINE",
"394 0 LINE",
"428 299 LINE",
"450 510 LINE",
"453 299 LINE",
"453 0 LINE",
"636 0 LINE",
"609 698 LINE",
"359 698 LINE",
"339 439 LINE",
"331 286 LINE",
"321 439 LINE",
"299 698 LINE",
"43 698 LINE",
"16 0 LINE"
);
}
);
width = 650;
},
{
associatedMasterId = "8A7F20D3-7375-4A55-82DC-0ADBCD41717D";
layerId = "2A358E33-D90A-4FE9-9BEE-F5C8BE5D0381";
name = "{500}";
paths = (
{
closed = 1;
nodes = (
"145 0 LINE",
"160 407 LINE",
"164 575 LINE",
"194 407 LINE",
"273 0 LINE",
"375 0 LINE",
"455 407 LINE",
"486 574 LINE",
"489 407 LINE",
"505 0 LINE",
"629 0 LINE",
"578 698 LINE",
"417 698 LINE",
"349 326 LINE",
"328 174 LINE",
"307 326 LINE",
"235 698 LINE",
"73 698 LINE",
"22 0 LINE"
);
}
);
width = 650;
}
);
unicode = 004D;
},
{
color = 6;
glyphname = N;
lastChange = "2021-05-25 15:15:03 +0000";
layers = (
{
anchors = (
{
name = bottom;
position = "{326, 0}";
},
{
name = top;
position = "{326, 699}";
}
);
layerId = "8A7F20D3-7375-4A55-82DC-0ADBCD41717D";
paths = (
{
closed = 1;
nodes = (
"132 0 LINE",
"132 450 LINE",
"127 623 LINE",
"515 0 LINE",
"568 0 LINE",
"568 698 LINE",
"519 698 LINE",
"519 249 LINE",
"524 72 LINE",
"137 698 LINE",
"83 698 LINE",
"83 0 LINE"
);
}
);
width = 650;
},
{
anchors = (
{
name = bottom;
position = "{330, 0}";
},
{
name = top;
position = "{330, 699}";
}
);
layerId = "8628BAC4-B70C-44D0-A849-1AF4E6A86A6D";
paths = (
{
closed = 1;
nodes = (
"206 0 LINE",
"206 240 LINE",
"193 485 LINE",
"390 0 LINE",
"600 0 LINE",
"600 698 LINE",
"445 698 LINE",
"445 458 LINE",
"456 204 LINE",
"261 698 LINE",
"51 698 LINE",
"51 0 LINE"
);
}
);
width = 650;
},
{
anchors = (
{
name = bottom;
position = "{331, 0}";
},
{
name = top;
position = "{331, 699}";
}
);
layerId = "CBDC2F8B-F278-480B-84CB-440443C6424E";
paths = (
{
closed = 1;
nodes = (
"243 0 LINE",
"243 201 LINE",
"220 413 LINE",
"351 0 LINE",
"610 0 LINE",
"610 698 LINE",
"408 698 LINE",
"408 498 LINE",
"429 268 LINE",
"300 698 LINE",
"41 698 LINE",
"41 0 LINE"
);
}
);
width = 650;
}
);
leftMetricsKey = "=H";
rightMetricsKey = "=H";
unicode = 004E;
},
{
color = 6;
glyphname = Eng;
lastChange = "2021-05-25 15:15:03 +0000";
layers = (
{
layerId = "8A7F20D3-7375-4A55-82DC-0ADBCD41717D";
paths = (
{
closed = 1;
nodes = (
"568 0 LINE",
"568 698 LINE",
"519 698 LINE",
"519 249 LINE",
"524 69 LINE",
"137 698 LINE",
"83 698 LINE",
"83 0 LINE",
"132 0 LINE",
"132 450 LINE",
"127 627 LINE",
"527 -20 LINE"
);
},
{
closed = 1;
nodes = (
"431 -178 LINE SMOOTH",
"533 -178 OFFCURVE",
"568 -124 OFFCURVE",
"568 -36 CURVE SMOOTH",
"568 38 LINE",
"522 38 LINE",
"522 -42 LINE SMOOTH",
"522 -115 OFFCURVE",
"488 -140 OFFCURVE",
"432 -140 CURVE SMOOTH",
"374 -140 LINE",
"374 -178 LINE"
);
}
);
width = 650;
},
{
layerId = "8628BAC4-B70C-44D0-A849-1AF4E6A86A6D";
paths = (
{
closed = 1;
nodes = (
"600 0 LINE",
"600 698 LINE",
"445 698 LINE",
"445 458 LINE",
"456 204 LINE",
"261 698 LINE",
"51 698 LINE",
"51 0 LINE",
"206 0 LINE",
"206 240 LINE",
"193 485 LINE",
"409 -46 LINE"
);
},
{
closed = 1;
nodes = (
"411 -178 LINE SMOOTH",
"524 -178 OFFCURVE",
"600 -96 OFFCURVE",
"600 0 CURVE SMOOTH",
"600 83 LINE",
"423 83 LINE",
"423 12 LINE SMOOTH",
"423 -42 OFFCURVE",
"387 -52 OFFCURVE",
"329 -52 CURVE SMOOTH",
"297 -52 LINE",
"297 -178 LINE"
);
}
);
width = 650;
},
{
layerId = "CBDC2F8B-F278-480B-84CB-440443C6424E";
paths = (
{
closed = 1;
nodes = (
"610 0 LINE",
"610 698 LINE",
"408 698 LINE",
"408 498 LINE",
"429 268 LINE",
"300 698 LINE",
"41 698 LINE",
"41 0 LINE",
"243 0 LINE",
"243 201 LINE",
"220 413 LINE",
"351 0 LINE"
);
},
{
closed = 1;
nodes = (
"406 -178 LINE SMOOTH",
"528 -178 OFFCURVE",
"610 -107 OFFCURVE",
"610 0 CURVE SMOOTH",
"610 84 LINE",
"360 84 LINE",
"360 36 LINE SMOOTH",
"360 -5 OFFCURVE",
"336 -26 OFFCURVE",
"290 -26 CURVE SMOOTH",
"249 -26 LINE",
"249 -178 LINE"
);
}
);
width = 650;
}
);
leftMetricsKey = H;
rightMetricsKey = H;
unicode = 014A;
},
{
color = 6;
glyphname = O;
lastChange = "2021-05-25 15:15:03 +0000";
layers = (
{
anchors = (
{
name = bottom;
position = "{326, 0}";
},
{
name = center;
position = "{326, 349}";
},
{
name = ogonek;
position = "{403, 0}";
},
{
name = top;
position = "{326, 700}";
},
{
name = topleft;
position = "{17, 700}";
},
{
name = topright;
position = "{635, 700}";
}
);
layerId = "8A7F20D3-7375-4A55-82DC-0ADBCD41717D";
paths = (
{
closed = 1;
nodes = (
"498 -12 OFFCURVE",
"606 132 OFFCURVE",
"606 349 CURVE SMOOTH",
"606 565 OFFCURVE",
"498 710 OFFCURVE",
"326 710 CURVE SMOOTH",
"154 710 OFFCURVE",
"46 565 OFFCURVE",
"46 349 CURVE SMOOTH",
"46 132 OFFCURVE",
"154 -12 OFFCURVE",
"326 -12 CURVE SMOOTH"
);
},
{
closed = 1;
nodes = (
"186 33 OFFCURVE",
"97 160 OFFCURVE",
"97 349 CURVE SMOOTH",
"97 537 OFFCURVE",
"186 665 OFFCURVE",
"326 665 CURVE SMOOTH",
"466 665 OFFCURVE",
"555 537 OFFCURVE",
"555 349 CURVE SMOOTH",
"555 160 OFFCURVE",
"466 33 OFFCURVE",
"326 33 CURVE SMOOTH"
);
}
);
width = 650;
},
{
anchors = (
{
name = bottom;
position = "{327, 0}";
},
{
name = center;
position = "{327, 349}";
},
{
name = ogonek;
position = "{403, 0}";
},
{
name = top;
position = "{327, 700}";
},
{
name = topleft;
position = "{27, 700}";
},
{
name = topright;
position = "{625, 700}";
}
);
layerId = "8628BAC4-B70C-44D0-A849-1AF4E6A86A6D";
paths = (
{
closed = 1;
nodes = (
"510 -12 OFFCURVE",
"633 124 OFFCURVE",
"633 349 CURVE SMOOTH",
"633 576 OFFCURVE",
"510 710 OFFCURVE",
"326 710 CURVE SMOOTH",
"142 710 OFFCURVE",
"18 575 OFFCURVE",
"18 349 CURVE SMOOTH",
"18 125 OFFCURVE",
"142 -12 OFFCURVE",
"326 -12 CURVE SMOOTH"
);
},
{
closed = 1;
nodes = (
"247 123 OFFCURVE",
"188 205 OFFCURVE",
"188 349 CURVE SMOOTH",
"188 493 OFFCURVE",
"247 575 OFFCURVE",
"326 575 CURVE SMOOTH",
"404 575 OFFCURVE",
"463 495 OFFCURVE",
"463 349 CURVE SMOOTH",
"463 205 OFFCURVE",
"404 123 OFFCURVE",
"326 123 CURVE SMOOTH"
);
}
);
width = 650;
},
{
anchors = (
{
name = bottom;
position = "{328, 0}";
},
{
name = center;
position = "{328, 349}";
},
{
name = ogonek;
position = "{401, 0}";
},
{
name = top;
position = "{328, 700}";
},
{
name = topleft;
position = "{45, 700}";
},
{
name = topright;
position = "{609, 700}";
}
);
layerId = "CBDC2F8B-F278-480B-84CB-440443C6424E";
paths = (
{
closed = 1;
nodes = (
"513 -12 OFFCURVE",
"632 131 OFFCURVE",
"632 349 CURVE SMOOTH",
"632 569 OFFCURVE",
"513 710 OFFCURVE",
"326 710 CURVE SMOOTH",
"140 710 OFFCURVE",
"20 569 OFFCURVE",
"20 349 CURVE SMOOTH",
"20 131 OFFCURVE",
"140 -12 OFFCURVE",
"326 -12 CURVE SMOOTH"
);
},
{
closed = 1;
nodes = (
"271 172 OFFCURVE",
"250 242 OFFCURVE",
"250 349 CURVE SMOOTH",
"250 456 OFFCURVE",
"271 526 OFFCURVE",
"326 526 CURVE SMOOTH",
"380 526 OFFCURVE",
"402 456 OFFCURVE",
"402 349 CURVE SMOOTH",
"402 242 OFFCURVE",
"380 172 OFFCURVE",
"326 172 CURVE SMOOTH"
);
}
);
width = 650;
}
);
unicode = 004F;
},
{
color = 3;
glyphname = Oslash;
lastChange = "2021-05-25 15:15:50 +0000";
layers = (
{
anchors = (
{
name = bottom;
position = "{326, 0}";
},
{
name = center;
position = "{326, 349}";
},
{
name = ogonek;
position = "{403, 0}";
},
{
name = top;
position = "{326, 698}";
},
{
name = topleft;
position = "{17, 700}";
},
{
name = topright;
position = "{635, 700}";
}
);
components = (
{
name = slashlongcomb;
transform = "{1, 0, 0, 1, 1, 12}";
}
);
layerId = "8A7F20D3-7375-4A55-82DC-0ADBCD41717D";
paths = (
{
closed = 1;
nodes = (
"494 -12 OFFCURVE",
"616 141 OFFCURVE",
"616 349 CURVE SMOOTH",
"616 559 OFFCURVE",
"494 710 OFFCURVE",
"326 710 CURVE SMOOTH",
"159 710 OFFCURVE",
"36 560 OFFCURVE",
"36 349 CURVE SMOOTH",
"36 140 OFFCURVE",
"159 -12 OFFCURVE",
"326 -12 CURVE SMOOTH"
);
},
{
closed = 1;
nodes = (
"190 33 OFFCURVE",
"88 166 OFFCURVE",
"88 349 CURVE SMOOTH",
"88 534 OFFCURVE",
"190 665 OFFCURVE",
"326 665 CURVE SMOOTH",
"463 665 OFFCURVE",
"564 532 OFFCURVE",
"564 349 CURVE SMOOTH",
"564 168 OFFCURVE",
"463 33 OFFCURVE",
"326 33 CURVE SMOOTH"
);
}
);
width = 650;
},
{
anchors = (
{
name = bottom;
position = "{327, 0}";
},
{
name = center;
position = "{327, 349}";
},
{
name = ogonek;
position = "{403, 0}";
},
{
name = top;
position = "{309, 698}";
},
{
name = topleft;
position = "{27, 700}";
},
{
name = topright;
position = "{625, 700}";
}
);
components = (
{
locked = 1;
name = slashlongcomb;
transform = "{1, 0, 0, 1, 2, 22}";
}
);
layerId = "8628BAC4-B70C-44D0-A849-1AF4E6A86A6D";
paths = (
{
closed = 1;
nodes = (
"510 -12 OFFCURVE",
"633 124 OFFCURVE",
"633 349 CURVE SMOOTH",
"633 576 OFFCURVE",
"510 710 OFFCURVE",
"326 710 CURVE SMOOTH",
"142 710 OFFCURVE",
"18 575 OFFCURVE",
"18 349 CURVE SMOOTH",
"18 125 OFFCURVE",
"142 -12 OFFCURVE",
"326 -12 CURVE SMOOTH"
);
},
{
closed = 1;
nodes = (
"247 123 OFFCURVE",
"188 205 OFFCURVE",
"188 349 CURVE SMOOTH",
"188 493 OFFCURVE",
"247 575 OFFCURVE",
"326 575 CURVE SMOOTH",
"404 575 OFFCURVE",
"463 495 OFFCURVE",
"463 349 CURVE SMOOTH",
"463 205 OFFCURVE",
"404 123 OFFCURVE",
"326 123 CURVE SMOOTH"
);
}
);
width = 650;
},
{
anchors = (
{
name = bottom;
position = "{328, 0}";
},
{
name = center;
position = "{328, 349}";
},
{
name = ogonek;
position = "{401, 0}";
},
{
name = top;
position = "{290, 698}";
},
{
name = topleft;
position = "{45, 700}";
},
{
name = topright;
position = "{609, 700}";
}
);
components = (
{
name = slashlongcomb;
transform = "{1, 0, 0, 1, 1, 27}";
}
);
layerId = "CBDC2F8B-F278-480B-84CB-440443C6424E";
paths = (
{
closed = 1;
nodes = (
"513 -12 OFFCURVE",
"632 131 OFFCURVE",
"632 349 CURVE SMOOTH",
"632 569 OFFCURVE",
"513 710 OFFCURVE",
"326 710 CURVE SMOOTH",
"140 710 OFFCURVE",
"20 569 OFFCURVE",
"20 349 CURVE SMOOTH",
"20 131 OFFCURVE",
"140 -12 OFFCURVE",
"326 -12 CURVE SMOOTH"
);
},
{
closed = 1;
nodes = (
"245 154 OFFCURVE",
"215 231 OFFCURVE",
"215 349 CURVE SMOOTH",
"215 467 OFFCURVE",
"245 544 OFFCURVE",
"325 544 CURVE SMOOTH",
"405 544 OFFCURVE",
"437 467 OFFCURVE",
"437 349 CURVE SMOOTH",
"437 231 OFFCURVE",
"405 154 OFFCURVE",
"325 154 CURVE SMOOTH"
);
}
);
width = 650;
}
);
unicode = 00D8;
},
{
color = 6;
glyphname = OE;
lastChange = "2021-05-25 15:15:03 +0000";
layers = (
{
anchors = (
{
name = bottom;
position = "{402, 0}";
},
{
name = top;
position = "{402, 699}";
}
);
layerId = "8A7F20D3-7375-4A55-82DC-0ADBCD41717D";
paths = (
{
closed = 1;
nodes = (
"557 340 LINE",
"557 385 LINE",
"370 385 LINE",
"370 653 LINE",
"628 653 LINE",
"628 698 LINE",
"315 698 LINE SMOOTH",
"156 698 OFFCURVE",
"22 561 OFFCURVE",
"22 351 CURVE SMOOTH",
"22 138 OFFCURVE",
"156 0 OFFCURVE",
"315 0 CURVE SMOOTH",
"632 0 LINE",
"632 45 LINE",
"370 45 LINE",
"370 340 LINE"
);
},
{
closed = 1;
nodes = (
"187 45 OFFCURVE",
"74 166 OFFCURVE",
"74 351 CURVE SMOOTH",
"74 534 OFFCURVE",
"187 653 OFFCURVE",
"315 653 CURVE SMOOTH",
"323 653 LINE",
"323 45 LINE",
"315 45 LINE SMOOTH"
);
}
);
width = 650;
},
{
anchors = (
{
name = bottom;
position = "{392, 0}";
},
{
name = top;
position = "{392, 699}";
}
);
layerId = "8628BAC4-B70C-44D0-A849-1AF4E6A86A6D";
paths = (
{
closed = 1;
nodes = (
"573 293 LINE",
"573 428 LINE",
"437 428 LINE",
"437 564 LINE",
"628 564 LINE",
"628 698 LINE",
"305 698 LINE SMOOTH",
"130 698 OFFCURVE",
"16 562 OFFCURVE",
"16 351 CURVE SMOOTH",
"16 138 OFFCURVE",
"130 0 OFFCURVE",
"305 0 CURVE SMOOTH",
"632 0 LINE",
"632 135 LINE",
"437 135 LINE",
"437 293 LINE"
);
},
{
closed = 1;
nodes = (
"215 135 OFFCURVE",
"156 220 OFFCURVE",
"156 351 CURVE SMOOTH",
"156 480 OFFCURVE",
"215 564 OFFCURVE",
"305 564 CURVE SMOOTH",
"312 564 LINE",
"312 135 LINE",
"305 135 LINE SMOOTH"
);
}
);
width = 650;
},
{
anchors = (
{
name = bottom;
position = "{392, 0}";
},
{
name = top;
position = "{392, 699}";
}
);
layerId = "CBDC2F8B-F278-480B-84CB-440443C6424E";
paths = (
{
closed = 1;
nodes = (
"605 267 LINE",
"605 442 LINE",
"464 442 LINE",
"464 515 LINE",
"637 515 LINE",
"637 698 LINE",
"350 698 LINE SMOOTH",
"115 698 OFFCURVE",
"7 539 OFFCURVE",
"7 351 CURVE SMOOTH",
"7 160 OFFCURVE",
"115 0 OFFCURVE",
"350 0 CURVE SMOOTH",
"641 0 LINE",
"641 184 LINE",
"464 184 LINE",
"464 267 LINE"
);
},
{
closed = 1;
nodes = (
"219 184 OFFCURVE",
"171 236 OFFCURVE",
"171 351 CURVE SMOOTH",
"171 465 OFFCURVE",
"219 515 OFFCURVE",
"299 515 CURVE SMOOTH",
"305 515 LINE",
"305 184 LINE",
"299 184 LINE SMOOTH"
);
}
);
width = 650;
}
);
leftMetricsKey = "=O";
rightMetricsKey = "=E";
unicode = 0152;
},
{
color = 6;
glyphname = P;
lastChange = "2021-05-25 15:15:03 +0000";
layers = (
{
layerId = "8A7F20D3-7375-4A55-82DC-0ADBCD41717D";
paths = (
{
closed = 1;
nodes = (
"341 291 LINE SMOOTH",
"487 291 OFFCURVE",
"585 373 OFFCURVE",
"585 496 CURVE SMOOTH",
"585 619 OFFCURVE",
"495 698 OFFCURVE",
"360 698 CURVE SMOOTH",
"136 698 LINE",
"136 653 LINE",
"360 653 LINE SMOOTH",
"464 653 OFFCURVE",
"533 591 OFFCURVE",
"533 496 CURVE SMOOTH",
"533 400 OFFCURVE",
"456 336 OFFCURVE",
"341 336 CURVE SMOOTH",
"136 336 LINE",
"136 291 LINE"
);
},
{
closed = 1;
nodes = (
"149 0 LINE",
"149 698 LINE",
"102 698 LINE",
"102 0 LINE"
);
}
);
width = 650;
},
{
layerId = "8628BAC4-B70C-44D0-A849-1AF4E6A86A6D";
paths = (
{
closed = 1;
nodes = (
"338 219 LINE SMOOTH",
"505 219 OFFCURVE",
"613 315 OFFCURVE",
"613 461 CURVE SMOOTH",
"613 605 OFFCURVE",
"504 698 OFFCURVE",
"338 698 CURVE SMOOTH",
"178 698 LINE",
"178 563 LINE",
"337 563 LINE SMOOTH",
"401 563 OFFCURVE",
"443 522 OFFCURVE",
"443 461 CURVE SMOOTH",
"443 397 OFFCURVE",
"401 354 OFFCURVE",
"337 354 CURVE SMOOTH",
"178 354 LINE",
"178 219 LINE"
);
},
{
closed = 1;
nodes = (
"225 0 LINE",
"225 698 LINE",
"60 698 LINE",
"60 0 LINE"
);
}
);
width = 650;
},
{
layerId = "CBDC2F8B-F278-480B-84CB-440443C6424E";
paths = (
{
closed = 1;
nodes = (
"307 200 LINE SMOOTH",
"493 200 OFFCURVE",
"614 299 OFFCURVE",
"614 452 CURVE SMOOTH",
"614 601 OFFCURVE",
"493 698 OFFCURVE",
"307 698 CURVE SMOOTH",
"207 698 LINE",
"207 514 LINE",
"307 514 LINE SMOOTH",
"351 514 OFFCURVE",
"381 489 OFFCURVE",
"381 452 CURVE SMOOTH",
"381 411 OFFCURVE",
"352 384 OFFCURVE",
"307 384 CURVE SMOOTH",
"207 384 LINE",
"207 200 LINE"
);
},
{
closed = 1;
nodes = (
"272 0 LINE",
"272 698 LINE",
"43 698 LINE",
"43 0 LINE"
);
}
);
width = 650;
}
);
leftMetricsKey = H;
unicode = 0050;
},
{
color = 6;
glyphname = Thorn;
lastChange = "2021-05-25 15:15:03 +0000";
layers = (
{
layerId = "8A7F20D3-7375-4A55-82DC-0ADBCD41717D";
paths = (
{
closed = 1;
nodes = (
"349 150 LINE SMOOTH",
"495 150 OFFCURVE",
"593 232 OFFCURVE",
"593 354 CURVE SMOOTH",
"593 478 OFFCURVE",
"503 558 OFFCURVE",
"368 558 CURVE SMOOTH",
"144 558 LINE",
"144 513 LINE",
"368 513 LINE SMOOTH",
"472 513 OFFCURVE",
"541 450 OFFCURVE",
"541 354 CURVE SMOOTH",
"541 259 OFFCURVE",
"464 195 OFFCURVE",
"349 195 CURVE SMOOTH",
"144 195 LINE",
"144 150 LINE"
);
},
{
closed = 1;
nodes = (
"157 0 LINE",
"157 699 LINE",
"109 699 LINE",
"109 0 LINE"
);
}
);
width = 650;
},
{
layerId = "8628BAC4-B70C-44D0-A849-1AF4E6A86A6D";
paths = (
{
closed = 1;
nodes = (
"336 124 LINE SMOOTH",
"511 124 OFFCURVE",
"621 221 OFFCURVE",
"621 365 CURVE SMOOTH",
"621 510 OFFCURVE",
"519 604 OFFCURVE",
"355 604 CURVE SMOOTH",
"186 604 LINE",
"186 469 LINE",
"355 469 LINE SMOOTH",
"417 469 OFFCURVE",
"452 429 OFFCURVE",
"452 365 CURVE SMOOTH",
"452 303 OFFCURVE",
"409 259 OFFCURVE",
"336 259 CURVE SMOOTH",
"186 259 LINE",
"186 124 LINE"
);
},
{
closed = 1;
nodes = (
"233 0 LINE",
"233 699 LINE",
"68 699 LINE",
"68 0 LINE"
);
}
);
width = 650;
},
{
layerId = "CBDC2F8B-F278-480B-84CB-440443C6424E";
paths = (
{
closed = 1;
nodes = (
"316 115 LINE SMOOTH",
"508 115 OFFCURVE",
"633 215 OFFCURVE",
"633 367 CURVE SMOOTH",
"633 516 OFFCURVE",
"516 614 OFFCURVE",
"335 614 CURVE SMOOTH",
"206 614 LINE",
"206 430 LINE",
"326 430 LINE SMOOTH",
"371 430 OFFCURVE",
"400 404 OFFCURVE",
"400 367 CURVE SMOOTH",
"400 326 OFFCURVE",
"371 299 OFFCURVE",
"326 299 CURVE SMOOTH",
"206 299 LINE",
"206 115 LINE"
);
},
{
closed = 1;
nodes = (
"271 0 LINE",
"271 699 LINE",
"42 699 LINE",
"42 0 LINE"
);
}
);
width = 650;
}
);
leftMetricsKey = H;
unicode = 00DE;
},
{
color = 6;
glyphname = Q;
lastChange = "2021-05-25 15:15:03 +0000";
layers = (
{
anchors = (
{
name = bottom;
position = "{324, 0}";
},
{
name = center;
position = "{324, 351}";
},
{
name = ogonek;
position = "{402, 0}";
},
{
name = top;
position = "{324, 700}";
},
{
name = topleft;
position = "{13, 700}";
},
{
name = topright;
position = "{636, 700}";
}
);
layerId = "8A7F20D3-7375-4A55-82DC-0ADBCD41717D";
paths = (
{
closed = 1;
nodes = (
"608 -12 LINE",
"639 31 LINE",
"525 24 LINE",
"439 15 LINE",
"546 59 OFFCURVE",
"620 183 OFFCURVE",
"620 349 CURVE SMOOTH",
"620 560 OFFCURVE",
"497 710 OFFCURVE",
"328 710 CURVE SMOOTH",
"159 710 OFFCURVE",
"36 559 OFFCURVE",
"36 349 CURVE SMOOTH",
"36 144 OFFCURVE",
"156 -12 OFFCURVE",
"328 -12 CURVE SMOOTH"
);
},
{
closed = 1;
nodes = (
"191 33 OFFCURVE",
"88 166 OFFCURVE",
"88 349 CURVE SMOOTH",
"88 534 OFFCURVE",
"191 665 OFFCURVE",
"328 665 CURVE SMOOTH",
"465 665 OFFCURVE",
"568 533 OFFCURVE",
"568 349 CURVE SMOOTH",
"568 167 OFFCURVE",
"465 33 OFFCURVE",
"328 33 CURVE SMOOTH"
);
}
);
width = 650;
},
{
anchors = (
{
name = bottom;
position = "{304, 0}";
},
{
name = center;
position = "{304, 349}";
},
{
name = ogonek;
position = "{380, 0}";
},
{
name = top;
position = "{304, 700}";
},
{
name = topleft;
position = "{6, 700}";
},
{
name = topright;
position = "{601, 700}";
}
);
layerId = "8628BAC4-B70C-44D0-A849-1AF4E6A86A6D";
paths = (
{
closed = 1;
nodes = (
"623 -12 LINE",
"650 124 LINE",
"590 120 LINE",
"518 99 LINE",
"571 153 OFFCURVE",
"608 250 OFFCURVE",
"608 349 CURVE SMOOTH",
"608 576 OFFCURVE",
"489 710 OFFCURVE",
"313 710 CURVE SMOOTH",
"138 710 OFFCURVE",
"18 575 OFFCURVE",
"18 349 CURVE SMOOTH",
"18 125 OFFCURVE",
"140 -12 OFFCURVE",
"312 -12 CURVE SMOOTH"
);
},
{
closed = 1;
nodes = (
"241 123 OFFCURVE",
"191 205 OFFCURVE",
"191 349 CURVE SMOOTH",
"191 495 OFFCURVE",
"241 575 OFFCURVE",
"313 575 CURVE SMOOTH",
"386 575 OFFCURVE",
"435 494 OFFCURVE",
"435 349 CURVE SMOOTH",
"435 206 OFFCURVE",
"386 123 OFFCURVE",
"313 123 CURVE SMOOTH"
);
}
);
width = 650;
},
{
anchors = (
{
name = bottom;
position = "{283, 124}";
},
{
name = center;
position = "{283, 226}";
},
{
name = ogonek;
position = "{356, 0}";
},
{
name = top;
position = "{283, 700}";
},
{
name = topleft;
position = "{2, 700}";
},
{
name = topright;
position = "{562, 700}";
}
);
layerId = "CBDC2F8B-F278-480B-84CB-440443C6424E";
paths = (
{
closed = 1;
nodes = (
"629 -12 LINE",
"655 174 LINE",
"619 163 LINE",
"534 126 LINE",
"574 178 OFFCURVE",
"610 272 OFFCURVE",
"610 359 CURVE SMOOTH",
"610 583 OFFCURVE",
"504 709 OFFCURVE",
"315 709 CURVE SMOOTH",
"140 709 OFFCURVE",
"20 562 OFFCURVE",
"20 349 CURVE SMOOTH",
"20 118 OFFCURVE",
"127 -12 OFFCURVE",
"316 -12 CURVE SMOOTH"
);
},
{
closed = 1;
nodes = (
"266 172 OFFCURVE",
"251 244 OFFCURVE",
"251 349 CURVE SMOOTH",
"251 454 OFFCURVE",
"266 526 OFFCURVE",
"315 526 CURVE SMOOTH",
"362 526 OFFCURVE",
"378 454 OFFCURVE",
"378 349 CURVE SMOOTH",
"378 244 OFFCURVE",
"362 172 OFFCURVE",
"315 172 CURVE SMOOTH"
);
}
);
width = 650;
}
);
unicode = 0051;
},
{
color = 6;
glyphname = R;
lastChange = "2021-05-25 15:15:03 +0000";
layers = (
{
anchors = (
{
name = bottom;
position = "{342, 0}";
},
{
name = top;
position = "{310, 698}";
}
);
layerId = "8A7F20D3-7375-4A55-82DC-0ADBCD41717D";
paths = (
{
closed = 1;
nodes = (
"337 323 LINE SMOOTH",
"496 323 OFFCURVE",
"589 413 OFFCURVE",
"589 517 CURVE SMOOTH",
"589 630 OFFCURVE",
"494 698 OFFCURVE",
"370 698 CURVE SMOOTH",
"140 698 LINE",
"140 653 LINE",
"370 653 LINE SMOOTH",
"462 653 OFFCURVE",
"537 602 OFFCURVE",
"537 517 CURVE SMOOTH",
"537 424 OFFCURVE",
"452 367 OFFCURVE",
"337 367 CURVE SMOOTH",
"140 367 LINE",
"140 323 LINE"
);
},
{
closed = 1;
nodes = (
"154 0 LINE",
"154 698 LINE",
"107 698 LINE",
"107 0 LINE"
);
},
{
closed = 1;
nodes = (
"575 0 LINE",
"552 141 OFFCURVE",
"479 255 OFFCURVE",
"280 355 CURVE",
"227 340 LINE",
"414 245 OFFCURVE",
"498 133 OFFCURVE",
"529 0 CURVE"
);
}
);
width = 650;
},
{
anchors = (
{
name = bottom;
position = "{333, 0}";
},
{
name = top;
position = "{300, 698}";
}
);
layerId = "8628BAC4-B70C-44D0-A849-1AF4E6A86A6D";
paths = (
{
closed = 1;
nodes = (
"328 261 LINE SMOOTH",
"500 261 OFFCURVE",
"608 373 OFFCURVE",
"608 483 CURVE SMOOTH",
"608 618 OFFCURVE",
"501 698 OFFCURVE",
"349 698 CURVE SMOOTH",
"181 698 LINE",
"181 563 LINE",
"349 563 LINE SMOOTH",
"400 563 OFFCURVE",
"438 530 OFFCURVE",
"438 483 CURVE SMOOTH",
"438 432 OFFCURVE",
"398 396 OFFCURVE",
"338 396 CURVE SMOOTH",
"181 396 LINE",
"181 261 LINE"
);
},
{
closed = 1;
nodes = (
"227 0 LINE",
"227 698 LINE",
"62 698 LINE",
"62 0 LINE"
);
},
{
closed = 1;
nodes = (
"612 0 LINE",
"612 123 OFFCURVE",
"537 267 OFFCURVE",
"383 344 CURVE",
"200 307 LINE",
"356 250 OFFCURVE",
"442 118 OFFCURVE",
"442 0 CURVE"
);
}
);
width = 650;
},
{
anchors = (
{
name = bottom;
position = "{333, 0}";
},
{
name = top;
position = "{288, 698}";
}
);
layerId = "CBDC2F8B-F278-480B-84CB-440443C6424E";
paths = (
{
closed = 1;
nodes = (
"322 227 LINE SMOOTH",
"501 227 OFFCURVE",
"617 352 OFFCURVE",
"617 465 CURVE SMOOTH",
"617 611 OFFCURVE",
"504 698 OFFCURVE",
"336 698 CURVE SMOOTH",
"207 698 LINE",
"207 514 LINE",
"326 514 LINE SMOOTH",
"361 514 OFFCURVE",
"383 491 OFFCURVE",
"383 465 CURVE SMOOTH",
"383 436 OFFCURVE",
"363 410 OFFCURVE",
"327 410 CURVE SMOOTH",
"207 410 LINE",
"207 227 LINE"
);
},
{
closed = 1;
nodes = (
"270 0 LINE",
"270 698 LINE",
"41 698 LINE",
"41 0 LINE"
);
},
{
closed = 1;
nodes = (
"631 0 LINE",
"627 111 OFFCURVE",
"594 263 OFFCURVE",
"442 338 CURVE",
"223 289 LINE",
"339 254 OFFCURVE",
"394 111 OFFCURVE",
"394 0 CURVE"
);
}
);
width = 650;
}
);
leftMetricsKey = H;
unicode = 0052;
},
{
color = 6;
glyphname = S;
lastChange = "2021-05-25 15:15:03 +0000";
layers = (
{
anchors = (
{
name = bottom;
position = "{318, 0}";
},
{
name = top;
position = "{338, 699}";
}
);
layerId = "8A7F20D3-7375-4A55-82DC-0ADBCD41717D";
paths = (
{
closed = 1;
nodes = (
"472 -12 OFFCURVE",
"576 57 OFFCURVE",
"576 183 CURVE SMOOTH",
"576 441 OFFCURVE",
"145 333 OFFCURVE",
"145 525 CURVE SMOOTH",
"145 609 OFFCURVE",
"214 665 OFFCURVE",
"322 665 CURVE SMOOTH",
"433 665 OFFCURVE",
"515 600 OFFCURVE",
"515 508 CURVE",
"563 508 LINE",
"561 629 OFFCURVE",
"465 710 OFFCURVE",
"322 710 CURVE SMOOTH",
"182 710 OFFCURVE",
"93 636 OFFCURVE",
"93 524 CURVE SMOOTH",
"93 285 OFFCURVE",
"524 395 OFFCURVE",
"524 181 CURVE SMOOTH",
"524 87 OFFCURVE",
"448 33 OFFCURVE",
"339 33 CURVE SMOOTH",
"213 33 OFFCURVE",
"129 109 OFFCURVE",
"129 244 CURVE",
"81 244 LINE",
"81 76 OFFCURVE",
"188 -12 OFFCURVE",
"340 -12 CURVE SMOOTH"
);
}
);
width = 650;
},
{
anchors = (
{
name = bottom;
position = "{324, 0}";
},
{
name = top;
position = "{324, 699}";
}
);
layerId = "8628BAC4-B70C-44D0-A849-1AF4E6A86A6D";
paths = (
{
closed = 1;
nodes = (
"485 -12 OFFCURVE",
"597 76 OFFCURVE",
"597 198 CURVE SMOOTH",
"597 481 OFFCURVE",
"235 383 OFFCURVE",
"235 506 CURVE SMOOTH",
"235 551 OFFCURVE",
"274 575 OFFCURVE",
"324 575 CURVE SMOOTH",
"376 575 OFFCURVE",
"426 542 OFFCURVE",
"430 475 CURVE",
"595 475 LINE",
"591 626 OFFCURVE",
"466 710 OFFCURVE",
"324 710 CURVE SMOOTH",
"169 710 OFFCURVE",
"65 618 OFFCURVE",
"65 501 CURVE SMOOTH",
"65 237 OFFCURVE",
"427 323 OFFCURVE",
"427 198 CURVE SMOOTH",
"427 150 OFFCURVE",
"389 123 OFFCURVE",
"329 123 CURVE SMOOTH",
"253 123 OFFCURVE",
"217 169 OFFCURVE",
"217 253 CURVE",
"55 253 LINE",
"55 90 OFFCURVE",
"157 -12 OFFCURVE",
"329 -12 CURVE SMOOTH"
);
}
);
width = 650;
},
{
anchors = (
{
name = bottom;
position = "{328, 0}";
},
{
name = top;
position = "{328, 699}";
}
);
layerId = "CBDC2F8B-F278-480B-84CB-440443C6424E";
paths = (
{
closed = 1;
nodes = (
"502 -12 OFFCURVE",
"619 75 OFFCURVE",
"619 216 CURVE SMOOTH",
"619 498 OFFCURVE",
"278 404 OFFCURVE",
"278 494 CURVE SMOOTH",
"278 515 OFFCURVE",
"300 526 OFFCURVE",
"328 526 CURVE SMOOTH",
"370 526 OFFCURVE",
"398 506 OFFCURVE",
"399 471 CURVE",
"619 471 LINE",
"615 633 OFFCURVE",
"478 710 OFFCURVE",
"324 710 CURVE SMOOTH",
"164 710 OFFCURVE",
"44 624 OFFCURVE",
"44 489 CURVE SMOOTH",
"44 214 OFFCURVE",
"385 309 OFFCURVE",
"385 209 CURVE SMOOTH",
"385 187 OFFCURVE",
"361 172 OFFCURVE",
"327 172 CURVE SMOOTH",
"272 172 OFFCURVE",
"253 201 OFFCURVE",
"253 250 CURVE",
"33 250 LINE",
"33 93 OFFCURVE",
"132 -12 OFFCURVE",
"330 -12 CURVE SMOOTH"
);
}
);
width = 650;
}
);
unicode = 0053;
},
{
color = 6;
glyphname = Germandbls;
lastChange = "2021-05-25 15:15:03 +0000";
layers = (
{
layerId = "8A7F20D3-7375-4A55-82DC-0ADBCD41717D";
paths = (
{
closed = 1;
nodes = (
"491 -12 OFFCURVE",
"587 67 OFFCURVE",
"588 192 CURVE SMOOTH",
"589 294 OFFCURVE",
"509 358 OFFCURVE",
"422 368 CURVE",
"409 364 LINE",
"511 372 OFFCURVE",
"555 452 OFFCURVE",
"555 530 CURVE SMOOTH",
"555 633 OFFCURVE",
"472 698 OFFCURVE",
"334 698 CURVE SMOOTH",
"103 698 LINE",
"103 0 LINE",
"150 0 LINE",
"150 653 LINE",
"335 653 LINE SMOOTH",
"441 653 OFFCURVE",
"504 607 OFFCURVE",
"504 523 CURVE SMOOTH",
"504 439 OFFCURVE",
"442 385 OFFCURVE",
"335 385 CURVE SMOOTH",
"233 385 LINE",
"233 340 LINE",
"346 340 LINE SMOOTH",
"464 340 OFFCURVE",
"536 288 OFFCURVE",
"537 192 CURVE SMOOTH",
"538 79 OFFCURVE",
"450 30 OFFCURVE",
"340 30 CURVE SMOOTH",
"309 30 OFFCURVE",
"269 36 OFFCURVE",
"233 47 CURVE",
"233 5 LINE",
"269 -6 OFFCURVE",
"310 -12 OFFCURVE",
"342 -12 CURVE SMOOTH"
);
}
);
width = 650;
},
{
layerId = "8628BAC4-B70C-44D0-A849-1AF4E6A86A6D";
paths = (
{
closed = 1;
nodes = (
"527 -12 OFFCURVE",
"623 62 OFFCURVE",
"623 187 CURVE SMOOTH",
"623 304 OFFCURVE",
"558 361 OFFCURVE",
"447 379 CURVE",
"434 346 LINE",
"536 368 OFFCURVE",
"593 426 OFFCURVE",
"593 507 CURVE SMOOTH",
"593 617 OFFCURVE",
"487 698 OFFCURVE",
"334 698 CURVE SMOOTH",
"54 698 LINE",
"54 0 LINE",
"219 0 LINE",
"219 564 LINE",
"334 564 LINE SMOOTH",
"387 564 OFFCURVE",
"426 535 OFFCURVE",
"426 492 CURVE SMOOTH",
"426 449 OFFCURVE",
"388 419 OFFCURVE",
"334 419 CURVE SMOOTH",
"279 419 LINE",
"279 284 LINE",
"358 284 LINE SMOOTH",
"416 284 OFFCURVE",
"452 255 OFFCURVE",
"452 208 CURVE SMOOTH",
"452 157 OFFCURVE",
"410 123 OFFCURVE",
"351 123 CURVE SMOOTH",
"328 123 OFFCURVE",
"297 128 OFFCURVE",
"279 134 CURVE",
"279 -2 LINE",
"308 -9 OFFCURVE",
"336 -12 OFFCURVE",
"360 -12 CURVE SMOOTH"
);
}
);
width = 650;
},
{
layerId = "CBDC2F8B-F278-480B-84CB-440443C6424E";
paths = (
{
closed = 1;
nodes = (
"542 -12 OFFCURVE",
"621 70 OFFCURVE",
"621 189 CURVE SMOOTH",
"621 307 OFFCURVE",
"540 366 OFFCURVE",
"428 380 CURVE",
"414 345 LINE",
"542 363 OFFCURVE",
"592 433 OFFCURVE",
"592 515 CURVE SMOOTH",
"592 628 OFFCURVE",
"504 698 OFFCURVE",
"343 698 CURVE SMOOTH",
"36 698 LINE",
"36 0 LINE",
"245 0 LINE",
"245 515 LINE",
"322 515 LINE SMOOTH",
"351 515 OFFCURVE",
"373 497 OFFCURVE",
"373 473 CURVE SMOOTH",
"373 445 OFFCURVE",
"347 431 OFFCURVE",
"323 431 CURVE SMOOTH",
"298 431 LINE",
"298 272 LINE",
"337 272 LINE SMOOTH",
"374 272 OFFCURVE",
"397 253 OFFCURVE",
"397 222 CURVE SMOOTH",
"397 191 OFFCURVE",
"372 172 OFFCURVE",
"341 172 CURVE SMOOTH",
"322 172 OFFCURVE",
"309 176 OFFCURVE",
"298 180 CURVE",
"298 -6 LINE",
"325 -11 OFFCURVE",
"342 -12 OFFCURVE",
"358 -12 CURVE SMOOTH"
);
}
);
width = 650;
}
);
leftMetricsKey = H;
unicode = 1E9E;
},
{
color = 6;
glyphname = T;
lastChange = "2021-05-25 15:15:03 +0000";
layers = (
{
anchors = (
{
name = bottom;
position = "{325, 0}";
},
{
name = center;
position = "{325, 350}";
},
{
name = top;
position = "{325, 699}";
}
);
layerId = "8A7F20D3-7375-4A55-82DC-0ADBCD41717D";
paths = (
{
closed = 1;
nodes = (
"348 0 LINE",
"348 653 LINE",
"594 653 LINE",
"594 698 LINE",
"55 698 LINE",
"55 653 LINE",
"301 653 LINE",
"301 0 LINE"
);
}
);
width = 650;
},
{
anchors = (
{
name = bottom;
position = "{325, 0}";
},
{
name = center;
position = "{325, 350}";
},
{
name = top;
position = "{325, 699}";
}
);
layerId = "8628BAC4-B70C-44D0-A849-1AF4E6A86A6D";
paths = (
{
closed = 1;
nodes = (
"407 0 LINE",
"407 563 LINE",
"611 563 LINE",
"611 698 LINE",
"38 698 LINE",
"38 563 LINE",
"242 563 LINE",
"242 0 LINE"
);
}
);
width = 650;
},
{
anchors = (
{
name = bottom;
position = "{326, 0}";
},
{
name = center;
position = "{326, 350}";
},
{
name = top;
position = "{326, 699}";
}
);
layerId = "CBDC2F8B-F278-480B-84CB-440443C6424E";
paths = (
{
closed = 1;
nodes = (
"440 0 LINE",
"440 514 LINE",
"622 514 LINE",
"622 698 LINE",
"29 698 LINE",
"29 514 LINE",
"211 514 LINE",
"211 0 LINE"
);
}
);
width = 650;
}
);
unicode = 0054;
},
{
color = 6;
glyphname = U;
lastChange = "2021-05-25 15:15:03 +0000";
layers = (
{
anchors = (
{
name = bottom;
position = "{325, 0}";
},
{
name = ogonek;
position = "{364, 0}";
},
{
name = top;
position = "{325, 699}";
},
{
name = topright;
position = "{647, 699}";
}
);
layerId = "8A7F20D3-7375-4A55-82DC-0ADBCD41717D";
leftMetricsKey = "=H-12";
rightMetricsKey = "=H-12";
paths = (
{
closed = 1;
nodes = (
"471 -12 OFFCURVE",
"581 92 OFFCURVE",
"581 245 CURVE SMOOTH",
"581 698 LINE",
"532 698 LINE",
"532 245 LINE SMOOTH",
"532 119 OFFCURVE",
"449 33 OFFCURVE",
"326 33 CURVE SMOOTH",
"202 33 OFFCURVE",
"119 119 OFFCURVE",
"119 245 CURVE SMOOTH",
"119 698 LINE",
"70 698 LINE",
"70 245 LINE SMOOTH",
"70 92 OFFCURVE",
"179 -12 OFFCURVE",
"326 -12 CURVE SMOOTH"
);
}
);
width = 650;
},
{
anchors = (
{
name = bottom;
position = "{324, 0}";
},
{
name = ogonek;
position = "{419, 0}";
},
{
name = top;
position = "{324, 699}";
},
{
name = topright;
position = "{665, 699}";
}
);
layerId = "8628BAC4-B70C-44D0-A849-1AF4E6A86A6D";
leftMetricsKey = "=H-9";
rightMetricsKey = "=H-9";
paths = (
{
closed = 1;
nodes = (
"506 -12 OFFCURVE",
"612 92 OFFCURVE",
"612 250 CURVE SMOOTH",
"612 698 LINE",
"447 698 LINE",
"447 250 LINE SMOOTH",
"447 172 OFFCURVE",
"400 124 OFFCURVE",
"325 124 CURVE SMOOTH",
"250 124 OFFCURVE",
"203 172 OFFCURVE",
"203 250 CURVE SMOOTH",
"203 698 LINE",
"38 698 LINE",
"38 250 LINE SMOOTH",
"38 92 OFFCURVE",
"143 -12 OFFCURVE",
"325 -12 CURVE SMOOTH"
);
}
);
width = 650;
},
{
anchors = (
{
name = bottom;
position = "{324, 0}";
},
{
name = ogonek;
position = "{426, 0}";
},
{
name = top;
position = "{324, 699}";
},
{
name = topright;
position = "{660, 699}";
}
);
layerId = "CBDC2F8B-F278-480B-84CB-440443C6424E";
paths = (
{
closed = 1;
nodes = (
"518 -12 OFFCURVE",
"625 92 OFFCURVE",
"625 263 CURVE SMOOTH",
"625 698 LINE",
"396 698 LINE",
"396 253 LINE SMOOTH",
"396 202 OFFCURVE",
"370 172 OFFCURVE",
"325 172 CURVE SMOOTH",
"280 172 OFFCURVE",
"254 202 OFFCURVE",
"254 253 CURVE SMOOTH",
"254 698 LINE",
"25 698 LINE",
"25 263 LINE SMOOTH",
"25 92 OFFCURVE",
"132 -12 OFFCURVE",
"325 -12 CURVE SMOOTH"
);
}
);
width = 650;
}
);
leftMetricsKey = "=H-3";
rightMetricsKey = "=H-3";
unicode = 0055;
},
{
color = 6;
glyphname = V;
lastChange = "2021-05-25 15:15:03 +0000";
layers = (
{
layerId = "8A7F20D3-7375-4A55-82DC-0ADBCD41717D";
paths = (
{
closed = 1;
nodes = (
"354 0 LINE",
"614 698 LINE",
"565 698 LINE",
"368 170 LINE",
"326 51 LINE",
"283 172 LINE",
"87 698 LINE",
"36 698 LINE",
"296 0 LINE"
);
}
);
width = 650;
},
{
layerId = "8628BAC4-B70C-44D0-A849-1AF4E6A86A6D";
paths = (
{
closed = 1;
nodes = (
"449 0 LINE",
"626 698 LINE",
"458 698 LINE",
"359 308 LINE",
"327 126 LINE",
"295 308 LINE",
"196 698 LINE",
"26 698 LINE",
"202 0 LINE"
);
}
);
width = 650;
},
{
layerId = "CBDC2F8B-F278-480B-84CB-440443C6424E";
paths = (
{
closed = 1;
nodes = (
"486 0 LINE",
"631 698 LINE",
"408 698 LINE",
"345 342 LINE",
"326 167 LINE",
"307 342 LINE",
"245 698 LINE",
"21 698 LINE",
"164 0 LINE"
);
}
);
width = 650;
}
);
unicode = 0056;
},
{
color = 6;
glyphname = W;
lastChange = "2021-05-25 15:15:03 +0000";
layers = (
{
anchors = (
{
name = top;
position = "{327, 699}";
}
);
layerId = "8A7F20D3-7375-4A55-82DC-0ADBCD41717D";
paths = (
{
closed = 1;
nodes = (
"196 0 LINE",
"308 512 LINE",
"329 623 LINE",
"349 512 LINE",
"457 0 LINE",
"524 0 LINE",
"632 698 LINE",
"584 698 LINE",
"504 178 LINE",
"489 53 LINE",
"466 178 LINE",
"356 698 LINE",
"302 698 LINE",
"189 178 LINE",
"164 53 LINE",
"147 178 LINE",
"67 698 LINE",
"18 698 LINE",
"126 0 LINE"
);
}
);
width = 650;
},
{
anchors = (
{
name = top;
position = "{335, 699}";
}
);
layerId = "8628BAC4-B70C-44D0-A849-1AF4E6A86A6D";
paths = (
{
closed = 1;
nodes = (
"282 0 LINE",
"311 251 LINE",
"326 441 LINE",
"342 251 LINE",
"376 0 LINE",
"570 0 LINE",
"636 698 LINE",
"481 698 LINE",
"470 389 LINE",
"464 170 LINE",
"439 389 LINE",
"387 698 LINE",
"264 698 LINE",
"217 389 LINE",
"194 170 LINE",
"188 389 LINE",
"175 698 LINE",
"15 698 LINE",
"78 0 LINE"
);
}
);
width = 650;
},
{
anchors = (
{
name = top;
position = "{338, 699}";
}
);
layerId = "CBDC2F8B-F278-480B-84CB-440443C6424E";
paths = (
{
closed = 1;
nodes = (
"302 0 LINE",
"312 156 LINE",
"323 333 LINE",
"339 156 LINE",
"349 0 LINE",
"589 0 LINE",
"640 698 LINE",
"464 698 LINE",
"453 434 LINE",
"450 195 LINE",
"423 434 LINE",
"397 698 LINE",
"255 698 LINE",
"231 434 LINE",
"208 195 LINE",
"203 434 LINE",
"194 698 LINE",
"10 698 LINE",
"57 0 LINE"
);
}
);
width = 650;
},
{
anchors = (
{
name = top;
position = "{332, 699}";
}
);
associatedMasterId = "8A7F20D3-7375-4A55-82DC-0ADBCD41717D";
background = {
anchors = (
{
name = top;
position = "{480, 698}";
}
);
paths = (
{
closed = 1;
nodes = (
"284 0 LINE",
"458 552 LINE",
"480 645 LINE",
"500 552 LINE",
"675 0 LINE",
"714 0 LINE",
"934 698 LINE",
"888 698 LINE",
"720 158 LINE",
"696 53 LINE",
"674 158 LINE",
"502 698 LINE",
"461 698 LINE",
"289 158 LINE",
"266 53 LINE",
"244 158 LINE",
"72 698 LINE",
"24 698 LINE",
"245 0 LINE"
);
}
);
};
layerId = "BCE29895-2E76-4AED-8BF3-1553EFDCB9F7";
name = "{500}";
paths = (
{
closed = 1;
nodes = (
"250 0 LINE",
"305 345 LINE",
"327 518 LINE",
"348 345 LINE",
"401 0 LINE",
"567 0 LINE",
"636 698 LINE",
"519 698 LINE",
"486 281 LINE",
"480 104 LINE",
"453 281 LINE",
"382 698 LINE",
"271 698 LINE",
"203 281 LINE",
"179 109 LINE",
"170 281 LINE",
"135 698 LINE",
"17 698 LINE",
"84 0 LINE"
);
}
);
width = 650;
}
);
unicode = 0057;
},
{
color = 6;
glyphname = X;
lastChange = "2021-05-25 15:15:03 +0000";
layers = (
{
layerId = "8A7F20D3-7375-4A55-82DC-0ADBCD41717D";
paths = (
{
closed = 1;
nodes = (
"109 0 LINE",
"242 199 LINE",
"323 325 LINE",
"406 200 LINE",
"536 0 LINE",
"591 0 LINE",
"356 360 LINE",
"579 698 LINE",
"526 698 LINE",
"407 517 LINE",
"323 391 LINE",
"240 516 LINE",
"121 698 LINE",
"66 698 LINE",
"290 356 LINE",
"56 0 LINE"
);
}
);
width = 650;
},
{
layerId = "8628BAC4-B70C-44D0-A849-1AF4E6A86A6D";
paths = (
{
closed = 1;
nodes = (
"207 0 LINE",
"289 158 LINE",
"328 246 LINE",
"366 157 LINE",
"449 0 LINE",
"633 0 LINE",
"439 359 LINE",
"626 698 LINE",
"442 698 LINE",
"365 554 LINE",
"328 466 LINE",
"292 554 LINE",
"215 698 LINE",
"28 698 LINE",
"214 356 LINE",
"23 0 LINE"
);
}
);
width = 650;
},
{
layerId = "CBDC2F8B-F278-480B-84CB-440443C6424E";
paths = (
{
closed = 1;
nodes = (
"254 0 LINE",
"292 106 LINE",
"325 216 LINE",
"360 106 LINE",
"400 0 LINE",
"635 0 LINE",
"496 360 LINE",
"631 698 LINE",
"399 698 LINE",
"355 571 LINE",
"327 444 LINE",
"304 572 LINE",
"262 698 LINE",
"17 698 LINE",
"151 356 LINE",
"16 0 LINE"
);
}
);
width = 650;
}
);
unicode = 0058;
},
{
color = 6;
glyphname = Y;
lastChange = "2021-05-25 15:15:03 +0000";
layers = (
{
anchors = (
{
name = top;
position = "{325, 699}";
}
);
layerId = "8A7F20D3-7375-4A55-82DC-0ADBCD41717D";
paths = (
{
closed = 1;
nodes = (
"347 0 LINE",
"347 283 LINE",
"591 698 LINE",
"536 698 LINE",
"394 454 LINE",
"324 330 LINE",
"255 453 LINE",
"113 698 LINE",
"58 698 LINE",
"300 283 LINE",
"300 0 LINE"
);
}
);
width = 650;
},
{
anchors = (
{
name = top;
position = "{325, 699}";
}
);
layerId = "8628BAC4-B70C-44D0-A849-1AF4E6A86A6D";
paths = (
{
closed = 1;
nodes = (
"405 0 LINE",
"405 282 LINE",
"630 698 LINE",
"456 698 LINE",
"382 560 LINE",
"325 419 LINE",
"271 559 LINE",
"197 698 LINE",
"19 698 LINE",
"240 282 LINE",
"240 0 LINE"
);
}
);
width = 650;
},
{
anchors = (
{
name = top;
position = "{325, 699}";
}
);
layerId = "CBDC2F8B-F278-480B-84CB-440443C6424E";
paths = (
{
closed = 1;
nodes = (
"436 0 LINE",
"436 281 LINE",
"638 698 LINE",
"417 698 LINE",
"362 574 LINE",
"327 421 LINE",
"292 573 LINE",
"236 698 LINE",
"11 698 LINE",
"207 281 LINE",
"207 0 LINE"
);
}
);
width = 650;
}
);
unicode = 0059;
},
{
color = 6;
glyphname = Z;
lastChange = "2021-05-25 15:15:03 +0000";
layers = (
{
anchors = (
{
name = top;
position = "{324, 699}";
}
);
layerId = "8A7F20D3-7375-4A55-82DC-0ADBCD41717D";
paths = (
{
closed = 1;
nodes = (
"584 0 LINE",
"584 45 LINE",
"265 45 LINE",
"127 45 LINE",
"209 155 LINE",
"584 660 LINE",
"584 698 LINE",
"79 698 LINE",
"79 653 LINE",
"382 653 LINE",
"520 653 LINE",
"438 543 LINE",
"63 38 LINE",
"63 0 LINE"
);
}
);
width = 650;
},
{
anchors = (
{
name = top;
position = "{324, 699}";
}
);
layerId = "8628BAC4-B70C-44D0-A849-1AF4E6A86A6D";
paths = (
{
closed = 1;
nodes = (
"602 0 LINE",
"602 135 LINE",
"396 135 LINE",
"244 135 LINE",
"341 244 LINE",
"602 585 LINE",
"602 698 LINE",
"57 698 LINE",
"57 563 LINE",
"251 563 LINE",
"403 563 LINE",
"306 454 LINE",
"45 113 LINE",
"45 0 LINE"
);
}
);
width = 650;
},
{
anchors = (
{
name = top;
position = "{325, 699}";
}
);
layerId = "CBDC2F8B-F278-480B-84CB-440443C6424E";
paths = (
{
closed = 1;
nodes = (
"618 0 LINE",
"618 184 LINE",
"444 184 LINE",
"292 184 LINE",
"407 286 LINE",
"618 544 LINE",
"618 698 LINE",
"41 698 LINE",
"41 514 LINE",
"195 514 LINE",
"347 514 LINE",
"233 410 LINE",
"31 154 LINE",
"31 0 LINE"
);
}
);
width = 650;
}
);
unicode = 005A;
},
{
color = 3;
glyphname = Q.ss03;
lastChange = "2021-05-25 15:15:03 +0000";
layers = (
{
anchors = (
{
name = bottom;
position = "{325, 0}";
},
{
name = top;
position = "{325, 544}";
}
);
components = (
{
name = O;
}
);
layerId = "8A7F20D3-7375-4A55-82DC-0ADBCD41717D";
paths = (
{
closed = 1;
nodes = (
"350 -178 LINE",
"350 22 LINE",
"303 22 LINE",
"303 -178 LINE"
);
}
);
width = 650;
},
{
anchors = (
{
name = bottom;
position = "{325, 0}";
},
{
name = top;
position = "{325, 556}";
}
);
components = (
{
name = O;
}
);
layerId = "8628BAC4-B70C-44D0-A849-1AF4E6A86A6D";
paths = (
{
closed = 1;
nodes = (
"408 -178 LINE",
"408 56 LINE",
"243 56 LINE",
"243 -178 LINE"
);
}
);
width = 650;
},
{
anchors = (
{
name = bottom;
position = "{325, 0}";
},
{
name = top;
position = "{325, 563}";
}
);
components = (
{
name = O;
transform = "{1, 0, 0, 1, 2, 0}";
}
);
layerId = "CBDC2F8B-F278-480B-84CB-440443C6424E";
paths = (
{
closed = 1;
nodes = (
"442 -178 LINE",
"442 78 LINE",
"213 78 LINE",
"213 -178 LINE"
);
}
);
width = 650;
}
);
leftMetricsKey = O;
rightMetricsKey = O;
category = Letter;
subCategory = "";
},
{
color = 6;
glyphname = C.ss04;
lastChange = "2021-05-25 15:15:03 +0000";
layers = (
{
anchors = (
{
name = bottom;
position = "{399, 0}";
},
{
name = center;
position = "{379, 350}";
},
{
name = ogonek;
position = "{484, 0}";
},
{
name = top;
position = "{379, 699}";
},
{
name = topleft;
position = "{30, 699}";
},
{
name = topright;
position = "{728, 699}";
}
);
layerId = "8A7F20D3-7375-4A55-82DC-0ADBCD41717D";
rightMetricsKey = "=52";
paths = (
{
closed = 1;
nodes = (
"599 0 LINE",
"599 45 LINE",
"381 45 LINE SMOOTH",
"222 45 OFFCURVE",
"105 166 OFFCURVE",
"105 350 CURVE SMOOTH",
"105 533 OFFCURVE",
"222 653 OFFCURVE",
"381 653 CURVE SMOOTH",
"599 653 LINE",
"599 698 LINE",
"381 698 LINE SMOOTH",
"193 698 OFFCURVE",
"54 559 OFFCURVE",
"54 350 CURVE SMOOTH",
"54 140 OFFCURVE",
"193 0 OFFCURVE",
"381 0 CURVE SMOOTH"
);
}
);
width = 650;
},
{
anchors = (
{
name = bottom;
position = "{395, 0}";
},
{
name = center;
position = "{385, 350}";
},
{
name = ogonek;
position = "{470, 0}";
},
{
name = top;
position = "{385, 699}";
},
{
name = topleft;
position = "{48, 699}";
},
{
name = topright;
position = "{609, 699}";
}
);
layerId = "8628BAC4-B70C-44D0-A849-1AF4E6A86A6D";
rightMetricsKey = "=+29";
paths = (
{
closed = 1;
nodes = (
"609 0 LINE",
"609 135 LINE",
"401 135 LINE SMOOTH",
"284 135 OFFCURVE",
"214 214 OFFCURVE",
"214 350 CURVE SMOOTH",
"214 485 OFFCURVE",
"284 563 OFFCURVE",
"401 563 CURVE SMOOTH",
"609 563 LINE",
"609 698 LINE",
"401 698 LINE SMOOTH",
"184 698 OFFCURVE",
"44 565 OFFCURVE",
"44 350 CURVE SMOOTH",
"44 134 OFFCURVE",
"184 0 OFFCURVE",
"401 0 CURVE SMOOTH"
);
}
);
width = 650;
},
{
anchors = (
{
name = bottom;
position = "{399, 0}";
},
{
name = center;
position = "{379, 225}";
},
{
name = ogonek;
position = "{464, 0}";
},
{
name = top;
position = "{379, 699}";
},
{
name = topleft;
position = "{48, 699}";
},
{
name = topright;
position = "{709, 699}";
}
);
layerId = "CBDC2F8B-F278-480B-84CB-440443C6424E";
paths = (
{
closed = 1;
nodes = (
"600 0 LINE",
"600 184 LINE",
"416 184 LINE SMOOTH",
"327 184 OFFCURVE",
"263 241 OFFCURVE",
"263 350 CURVE SMOOTH",
"263 458 OFFCURVE",
"327 514 OFFCURVE",
"416 514 CURVE SMOOTH",
"600 514 LINE",
"600 698 LINE",
"412 698 LINE SMOOTH",
"185 698 OFFCURVE",
"29 568 OFFCURVE",
"29 350 CURVE SMOOTH",
"29 131 OFFCURVE",
"185 0 OFFCURVE",
"412 0 CURVE SMOOTH"
);
}
);
width = 650;
}
);
leftMetricsKey = O;
rightMetricsKey = H;
category = Letter;
subCategory = "";
},
{
color = 6;
glyphname = G.ss05;
lastChange = "2021-05-25 15:15:03 +0000";
layers = (
{
anchors = (
{
name = bottom;
position = "{359, 0}";
},
{
name = top;
position = "{394, 699}";
}
);
layerId = "8A7F20D3-7375-4A55-82DC-0ADBCD41717D";
paths = (
{
closed = 1;
nodes = (
"615 0 LINE",
"615 363 LINE",
"569 363 LINE",
"569 45 LINE",
"357 45 LINE SMOOTH",
"198 45 OFFCURVE",
"81 166 OFFCURVE",
"81 350 CURVE SMOOTH",
"81 533 OFFCURVE",
"198 653 OFFCURVE",
"357 653 CURVE SMOOTH",
"615 653 LINE",
"615 698 LINE",
"357 698 LINE SMOOTH",
"169 698 OFFCURVE",
"30 559 OFFCURVE",
"30 350 CURVE SMOOTH",
"30 140 OFFCURVE",
"169 0 OFFCURVE",
"357 0 CURVE SMOOTH"
);
}
);
width = 650;
},
{
anchors = (
{
name = bottom;
position = "{342, 0}";
},
{
name = top;
position = "{396, 699}";
}
);
layerId = "8628BAC4-B70C-44D0-A849-1AF4E6A86A6D";
paths = (
{
closed = 1;
nodes = (
"622 0 LINE",
"622 377 LINE",
"457 377 LINE",
"457 135 LINE",
"374 135 LINE SMOOTH",
"267 135 OFFCURVE",
"197 214 OFFCURVE",
"197 350 CURVE SMOOTH",
"197 485 OFFCURVE",
"267 563 OFFCURVE",
"374 563 CURVE SMOOTH",
"622 563 LINE",
"622 698 LINE",
"374 698 LINE SMOOTH",
"167 698 OFFCURVE",
"27 565 OFFCURVE",
"27 350 CURVE SMOOTH",
"27 134 OFFCURVE",
"167 0 OFFCURVE",
"374 0 CURVE SMOOTH"
);
}
);
width = 650;
},
{
anchors = (
{
name = bottom;
position = "{348, 0}";
},
{
name = top;
position = "{387, 699}";
}
);
layerId = "CBDC2F8B-F278-480B-84CB-440443C6424E";
paths = (
{
closed = 1;
nodes = (
"630 0 LINE",
"630 384 LINE",
"401 384 LINE",
"401 184 LINE",
"386 184 LINE SMOOTH",
"307 184 OFFCURVE",
"253 241 OFFCURVE",
"253 350 CURVE SMOOTH",
"253 458 OFFCURVE",
"307 514 OFFCURVE",
"386 514 CURVE SMOOTH",
"630 514 LINE",
"630 698 LINE",
"382 698 LINE SMOOTH",
"165 698 OFFCURVE",
"19 568 OFFCURVE",
"19 350 CURVE SMOOTH",
"19 131 OFFCURVE",
"165 0 OFFCURVE",
"382 0 CURVE SMOOTH"
);
}
);
width = 650;
}
);
leftMetricsKey = "=O";
category = Letter;
subCategory = "";
},
{
color = 6;
glyphname = M.ss09;
lastChange = "2021-05-25 15:15:03 +0000";
layers = (
{
layerId = "8A7F20D3-7375-4A55-82DC-0ADBCD41717D";
paths = (
{
closed = 1;
nodes = (
"95 0 LINE",
"95 490 LINE",
"93 628 LINE",
"138 490 LINE",
"299 0 LINE",
"351 0 LINE",
"513 490 LINE",
"558 628 LINE",
"555 490 LINE",
"555 0 LINE",
"602 0 LINE",
"602 698 LINE",
"533 698 LINE",
"359 171 LINE",
"326 65 LINE",
"293 171 LINE",
"120 698 LINE",
"48 698 LINE",
"48 0 LINE"
);
}
);
width = 650;
},
{
layerId = "8628BAC4-B70C-44D0-A849-1AF4E6A86A6D";
paths = (
{
closed = 1;
nodes = (
"195 0 LINE",
"195 275 LINE",
"193 426 LINE",
"220 275 LINE",
"267 0 LINE",
"383 0 LINE",
"430 275 LINE",
"459 421 LINE",
"455 275 LINE",
"455 0 LINE",
"611 0 LINE",
"611 698 LINE",
"396 698 LINE",
"353 447 LINE",
"330 311 LINE",
"308 447 LINE",
"266 698 LINE",
"39 698 LINE",
"39 0 LINE"
);
}
);
width = 650;
},
{
layerId = "CBDC2F8B-F278-480B-84CB-440443C6424E";
paths = (
{
closed = 1;
nodes = (
"214 0 LINE",
"214 189 LINE",
"212 373 LINE",
"236 189 LINE",
"259 0 LINE",
"391 0 LINE",
"414 189 LINE",
"440 367 LINE",
"436 189 LINE",
"436 0 LINE",
"617 0 LINE",
"617 698 LINE",
"364 698 LINE",
"347 556 LINE",
"331 424 LINE",
"315 556 LINE",
"299 698 LINE",
"33 698 LINE",
"33 0 LINE"
);
}
);
width = 650;
}
);
leftMetricsKey = "=H";
rightMetricsKey = "=H";
category = Letter;
subCategory = "";
},
{
color = 6;
glyphname = S.ss11;
lastChange = "2021-05-25 15:15:03 +0000";
layers = (
{
anchors = (
{
name = bottom;
position = "{315, 0}";
},
{
name = top;
position = "{345, 699}";
}
);
layerId = "8A7F20D3-7375-4A55-82DC-0ADBCD41717D";
paths = (
{
closed = 1;
nodes = (
"363 0 LINE SMOOTH",
"480 0 OFFCURVE",
"558 78 OFFCURVE",
"558 192 CURVE SMOOTH",
"558 307 OFFCURVE",
"480 385 OFFCURVE",
"363 385 CURVE SMOOTH",
"286 385 LINE SMOOTH",
"197 385 OFFCURVE",
"138 439 OFFCURVE",
"138 520 CURVE SMOOTH",
"138 601 OFFCURVE",
"198 653 OFFCURVE",
"286 653 CURVE SMOOTH",
"538 653 LINE",
"538 698 LINE",
"286 698 LINE SMOOTH",
"169 698 OFFCURVE",
"91 627 OFFCURVE",
"91 520 CURVE SMOOTH",
"91 411 OFFCURVE",
"169 340 OFFCURVE",
"286 340 CURVE SMOOTH",
"363 340 LINE SMOOTH",
"452 340 OFFCURVE",
"511 280 OFFCURVE",
"511 192 CURVE SMOOTH",
"511 105 OFFCURVE",
"452 45 OFFCURVE",
"363 45 CURVE SMOOTH",
"91 45 LINE",
"91 0 LINE"
);
}
);
userData = {
RMXScaler = {
height = 128;
width = 112;
};
};
width = 650;
},
{
anchors = (
{
name = bottom;
position = "{319, 0}";
},
{
name = top;
position = "{341, 699}";
}
);
layerId = "8628BAC4-B70C-44D0-A849-1AF4E6A86A6D";
paths = (
{
closed = 1;
nodes = (
"363 0 LINE SMOOTH",
"507 0 OFFCURVE",
"598 83 OFFCURVE",
"598 215 CURVE SMOOTH",
"598 346 OFFCURVE",
"507 428 OFFCURVE",
"363 428 CURVE SMOOTH",
"277 428 LINE SMOOTH",
"234 428 OFFCURVE",
"207 454 OFFCURVE",
"207 495 CURVE SMOOTH",
"207 537 OFFCURVE",
"234 563 OFFCURVE",
"277 563 CURVE SMOOTH",
"578 563 LINE",
"578 698 LINE",
"277 698 LINE SMOOTH",
"139 698 OFFCURVE",
"52 620 OFFCURVE",
"52 495 CURVE SMOOTH",
"52 371 OFFCURVE",
"139 293 OFFCURVE",
"277 293 CURVE SMOOTH",
"362 293 LINE SMOOTH",
"412 293 OFFCURVE",
"443 263 OFFCURVE",
"443 215 CURVE SMOOTH",
"443 166 OFFCURVE",
"412 135 OFFCURVE",
"363 135 CURVE SMOOTH",
"62 135 LINE",
"62 0 LINE"
);
}
);
userData = {
RMXScaler = {
height = 126;
width = 112;
};
};
width = 650;
},
{
anchors = (
{
name = bottom;
position = "{326, 0}";
},
{
name = top;
position = "{347, 699}";
}
);
layerId = "CBDC2F8B-F278-480B-84CB-440443C6424E";
paths = (
{
closed = 1;
nodes = (
"360 0 LINE SMOOTH",
"504 0 OFFCURVE",
"604 93 OFFCURVE",
"604 226 CURVE SMOOTH",
"604 360 OFFCURVE",
"504 450 OFFCURVE",
"360 450 CURVE SMOOTH",
"321 450 LINE SMOOTH",
"299 450 OFFCURVE",
"284 464 OFFCURVE",
"284 483 CURVE SMOOTH",
"284 502 OFFCURVE",
"300 514 OFFCURVE",
"321 514 CURVE SMOOTH",
"586 514 LINE",
"586 698 LINE",
"281 698 LINE SMOOTH",
"141 698 OFFCURVE",
"46 611 OFFCURVE",
"46 483 CURVE SMOOTH",
"46 355 OFFCURVE",
"142 267 OFFCURVE",
"281 267 CURVE SMOOTH",
"320 267 LINE SMOOTH",
"348 267 OFFCURVE",
"366 250 OFFCURVE",
"366 226 CURVE SMOOTH",
"366 202 OFFCURVE",
"348 184 OFFCURVE",
"320 184 CURVE SMOOTH",
"55 184 LINE",
"55 0 LINE"
);
}
);
userData = {
RMXScaler = {
height = 126;
width = 112;
};
};
width = 650;
}
);
category = Letter;
subCategory = "";
userData = {
RMXScaler = {
source = s.ss01;
};
};
},
{
color = 6;
glyphname = U.ss13;
lastChange = "2021-05-25 15:15:03 +0000";
layers = (
{
anchors = (
{
name = bottom;
position = "{320, 0}";
},
{
name = ogonek;
position = "{595, 0}";
},
{
name = top;
position = "{320, 699}";
},
{
name = topleft;
position = "{478, 699}";
},
{
name = topright;
position = "{664, 699}";
}
);
layerId = "8A7F20D3-7375-4A55-82DC-0ADBCD41717D";
paths = (
{
closed = 1;
nodes = (
"402 -12 OFFCURVE",
"503 45 OFFCURVE",
"548 131 CURVE",
"553 0 LINE",
"595 0 LINE",
"595 699 LINE",
"548 699 LINE",
"548 216 LINE",
"516 108 OFFCURVE",
"416 33 OFFCURVE",
"301 33 CURVE SMOOTH",
"170 33 OFFCURVE",
"91 119 OFFCURVE",
"91 255 CURVE SMOOTH",
"91 699 LINE",
"44 699 LINE",
"44 248 LINE SMOOTH",
"44 89 OFFCURVE",
"141 -12 OFFCURVE",
"299 -12 CURVE SMOOTH"
);
}
);
width = 650;
},
{
anchors = (
{
name = bottom;
position = "{316, 0}";
},
{
name = ogonek;
position = "{574, 0}";
},
{
name = top;
position = "{316, 699}";
},
{
name = topleft;
position = "{408, 699}";
},
{
name = topright;
position = "{643, 699}";
}
);
layerId = "8628BAC4-B70C-44D0-A849-1AF4E6A86A6D";
paths = (
{
closed = 1;
nodes = (
"357 -12 OFFCURVE",
"425 20 OFFCURVE",
"454 67 CURVE",
"459 0 LINE",
"619 0 LINE",
"619 699 LINE",
"454 699 LINE",
"454 226 LINE",
"432 165 OFFCURVE",
"368 123 OFFCURVE",
"314 123 CURVE SMOOTH",
"238 123 OFFCURVE",
"196 177 OFFCURVE",
"196 251 CURVE SMOOTH",
"196 699 LINE",
"31 699 LINE",
"31 242 LINE SMOOTH",
"31 86 OFFCURVE",
"133 -12 OFFCURVE",
"289 -12 CURVE SMOOTH"
);
}
);
width = 650;
},
{
anchors = (
{
name = bottom;
position = "{316, 0}";
},
{
name = ogonek;
position = "{551, 0}";
},
{
name = top;
position = "{316, 699}";
},
{
name = topleft;
position = "{368, 699}";
},
{
name = topright;
position = "{625, 699}";
}
);
layerId = "CBDC2F8B-F278-480B-84CB-440443C6424E";
paths = (
{
closed = 1;
nodes = (
"315 -12 OFFCURVE",
"373 7 OFFCURVE",
"399 46 CURVE",
"404 0 LINE",
"628 0 LINE",
"628 699 LINE",
"399 699 LINE",
"399 230 LINE",
"382 195 OFFCURVE",
"350 172 OFFCURVE",
"320 172 CURVE SMOOTH",
"279 172 OFFCURVE",
"251 205 OFFCURVE",
"251 260 CURVE SMOOTH",
"251 699 LINE",
"22 699 LINE",
"22 251 LINE SMOOTH",
"22 86 OFFCURVE",
"116 -12 OFFCURVE",
"259 -12 CURVE SMOOTH"
);
}
);
width = 650;
}
);
rightMetricsKey = H;
category = Letter;
subCategory = "";
},
{
color = 6;
glyphname = U.ss14;
lastChange = "2021-05-25 15:15:03 +0000";
layers = (
{
anchors = (
{
name = bottom;
position = "{326, 0}";
},
{
name = ogonek;
position = "{595, 0}";
},
{
name = top;
position = "{326, 699}";
},
{
name = topright;
position = "{683, 699}";
}
);
layerId = "8A7F20D3-7375-4A55-82DC-0ADBCD41717D";
paths = (
{
closed = 1;
nodes = (
"595 0 LINE",
"595 699 LINE",
"548 699 LINE",
"548 45 LINE",
"301 45 LINE SMOOTH",
"170 45 OFFCURVE",
"91 119 OFFCURVE",
"91 255 CURVE SMOOTH",
"91 699 LINE",
"44 699 LINE",
"44 248 LINE SMOOTH",
"44 89 OFFCURVE",
"141 0 OFFCURVE",
"299 0 CURVE SMOOTH"
);
}
);
width = 650;
},
{
anchors = (
{
name = bottom;
position = "{325, 0}";
},
{
name = ogonek;
position = "{616, 0}";
},
{
name = top;
position = "{325, 699}";
},
{
name = topright;
position = "{666, 699}";
}
);
layerId = "8628BAC4-B70C-44D0-A849-1AF4E6A86A6D";
paths = (
{
closed = 1;
nodes = (
"616 0 LINE",
"616 699 LINE",
"451 699 LINE",
"451 135 LINE",
"323 135 LINE SMOOTH",
"242 135 OFFCURVE",
"199 177 OFFCURVE",
"199 251 CURVE SMOOTH",
"199 699 LINE",
"34 699 LINE",
"34 242 LINE SMOOTH",
"34 86 OFFCURVE",
"140 0 OFFCURVE",
"301 0 CURVE SMOOTH"
);
}
);
width = 650;
},
{
anchors = (
{
name = bottom;
position = "{325, 0}";
},
{
name = ogonek;
position = "{625, 0}";
},
{
name = top;
position = "{325, 699}";
},
{
name = topright;
position = "{663, 699}";
}
);
layerId = "CBDC2F8B-F278-480B-84CB-440443C6424E";
paths = (
{
closed = 1;
nodes = (
"625 0 LINE",
"625 699 LINE",
"396 699 LINE",
"396 184 LINE",
"339 184 LINE SMOOTH",
"288 184 OFFCURVE",
"254 216 OFFCURVE",
"254 272 CURVE SMOOTH",
"254 699 LINE",
"25 699 LINE",
"25 251 LINE SMOOTH",
"25 86 OFFCURVE",
"126 0 OFFCURVE",
"279 0 CURVE SMOOTH"
);
}
);
width = 650;
}
);
rightMetricsKey = H;
category = Letter;
subCategory = "";
},
{
color = 6;
glyphname = Y.ss15;
lastChange = "2021-05-25 15:15:03 +0000";
layers = (
{
anchors = (
{
name = top;
position = "{325, 699}";
}
);
layerId = "8A7F20D3-7375-4A55-82DC-0ADBCD41717D";
paths = (
{
closed = 1;
nodes = (
"222 0 LINE",
"609 698 LINE",
"562 698 LINE",
"311 245 LINE",
"175 0 LINE"
);
},
{
closed = 1;
nodes = (
"333 242 LINE",
"93 698 LINE",
"41 698 LINE",
"307 203 LINE"
);
}
);
width = 650;
},
{
anchors = (
{
name = top;
position = "{326, 699}";
}
);
layerId = "8628BAC4-B70C-44D0-A849-1AF4E6A86A6D";
paths = (
{
closed = 1;
nodes = (
"320 0 LINE",
"633 698 LINE",
"454 698 LINE",
"296 308 LINE",
"141 0 LINE"
);
},
{
closed = 1;
nodes = (
"328 345 LINE",
"203 698 LINE",
"17 698 LINE",
"240 178 LINE"
);
}
);
width = 650;
},
{
anchors = (
{
name = top;
position = "{326, 699}";
}
);
layerId = "CBDC2F8B-F278-480B-84CB-440443C6424E";
paths = (
{
closed = 1;
nodes = (
"351 0 LINE",
"643 698 LINE",
"407 698 LINE",
"289 354 LINE",
"115 0 LINE"
);
},
{
closed = 1;
nodes = (
"348 354 LINE",
"252 698 LINE",
"7 698 LINE",
"209 164 LINE"
);
}
);
width = 650;
}
);
leftMetricsKey = Y;
category = Letter;
subCategory = "";
},
{
color = 6;
glyphname = a;
lastChange = "2021-05-25 15:15:03 +0000";
layers = (
{
anchors = (
{
name = bottom;
position = "{306, 0}";
},
{
name = ogonek;
position = "{547, 0}";
},
{
name = top;
position = "{327, 545}";
}
);
layerId = "8A7F20D3-7375-4A55-82DC-0ADBCD41717D";
paths = (
{
closed = 1;
nodes = (
"547 0 LINE",
"547 346 LINE SMOOTH",
"547 476 OFFCURVE",
"461 556 OFFCURVE",
"321 556 CURVE SMOOTH",
"193 556 OFFCURVE",
"97 486 OFFCURVE",
"89 369 CURVE",
"135 369 LINE",
"140 458 OFFCURVE",
"215 514 OFFCURVE",
"322 514 CURVE SMOOTH",
"433 514 OFFCURVE",
"501 450 OFFCURVE",
"501 346 CURVE SMOOTH",
"501 150 LINE",
"505 0 LINE"
);
},
{
closed = 1;
nodes = (
"400 -12 OFFCURVE",
"475 48 OFFCURVE",
"512 144 CURVE",
"506 187 LINE",
"460 89 OFFCURVE",
"383 30 OFFCURVE",
"286 30 CURVE SMOOTH",
"207 30 OFFCURVE",
"153 69 OFFCURVE",
"153 142 CURVE SMOOTH",
"153 227 OFFCURVE",
"225 278 OFFCURVE",
"349 278 CURVE SMOOTH",
"513 278 LINE",
"513 320 LINE",
"353 320 LINE SMOOTH",
"196 320 OFFCURVE",
"106 254 OFFCURVE",
"106 142 CURVE SMOOTH",
"106 42 OFFCURVE",
"179 -12 OFFCURVE",
"285 -12 CURVE SMOOTH"
);
}
);
width = 650;
},
{
anchors = (
{
name = bottom;
position = "{331, 0}";
},
{
name = ogonek;
position = "{559, 0}";
},
{
name = top;
position = "{318, 557}";
}
);
layerId = "8628BAC4-B70C-44D0-A849-1AF4E6A86A6D";
paths = (
{
closed = 1;
nodes = (
"583 0 LINE",
"583 364 LINE SMOOTH",
"583 495 OFFCURVE",
"482 568 OFFCURVE",
"326 568 CURVE SMOOTH",
"168 568 OFFCURVE",
"63 497 OFFCURVE",
"53 380 CURVE",
"204 380 LINE",
"210 429 OFFCURVE",
"254 458 OFFCURVE",
"319 458 CURVE SMOOTH",
"387 458 OFFCURVE",
"428 426 OFFCURVE",
"428 374 CURVE SMOOTH",
"428 100 LINE",
"433 0 LINE"
);
},
{
closed = 1;
nodes = (
"349 -12 OFFCURVE",
"420 21 OFFCURVE",
"454 94 CURVE",
"437 199 LINE",
"405 144 OFFCURVE",
"356 111 OFFCURVE",
"293 111 CURVE SMOOTH",
"247 111 OFFCURVE",
"222 135 OFFCURVE",
"222 165 CURVE SMOOTH",
"222 206 OFFCURVE",
"258 227 OFFCURVE",
"316 227 CURVE SMOOTH",
"443 228 LINE",
"443 336 LINE",
"320 336 LINE SMOOTH",
"164 336 OFFCURVE",
"70 270 OFFCURVE",
"70 155 CURVE SMOOTH",
"70 58 OFFCURVE",
"144 -12 OFFCURVE",
"255 -12 CURVE SMOOTH"
);
}
);
width = 650;
},
{
anchors = (
{
name = bottom;
position = "{343, 0}";
},
{
name = ogonek;
position = "{522, 0}";
},
{
name = top;
position = "{322, 564}";
}
);
layerId = "CBDC2F8B-F278-480B-84CB-440443C6424E";
paths = (
{
closed = 1;
nodes = (
"598 0 LINE",
"598 364 LINE SMOOTH",
"598 495 OFFCURVE",
"485 575 OFFCURVE",
"325 575 CURVE SMOOTH",
"154 575 OFFCURVE",
"50 503 OFFCURVE",
"39 383 CURVE",
"245 383 LINE",
"249 412 OFFCURVE",
"273 428 OFFCURVE",
"315 428 CURVE SMOOTH",
"355 428 OFFCURVE",
"381 407 OFFCURVE",
"381 374 CURVE SMOOTH",
"381 73 LINE",
"387 0 LINE"
);
},
{
closed = 1;
nodes = (
"318 -12 OFFCURVE",
"372 17 OFFCURVE",
"408 73 CURVE",
"389 186 LINE",
"371 161 OFFCURVE",
"340 147 OFFCURVE",
"301 147 CURVE SMOOTH",
"276 147 OFFCURVE",
"259 160 OFFCURVE",
"259 180 CURVE SMOOTH",
"259 199 OFFCURVE",
"274 212 OFFCURVE",
"301 213 CURVE SMOOTH",
"396 216 LINE",
"399 350 LINE",
"293 350 LINE SMOOTH",
"141 350 OFFCURVE",
"53 278 OFFCURVE",
"53 159 CURVE SMOOTH",
"53 56 OFFCURVE",
"133 -12 OFFCURVE",
"236 -12 CURVE SMOOTH"
);
}
);
width = 650;
}
);
rightMetricsKey = n;
unicode = 0061;
},
{
color = 6;
glyphname = ae;
lastChange = "2021-05-25 15:15:03 +0000";
layers = (
{
anchors = (
{
name = bottom;
position = "{513, 0}";
},
{
name = ogonek;
position = "{700, 4}";
},
{
name = top;
position = "{404, 544}";
}
);
layerId = "8A7F20D3-7375-4A55-82DC-0ADBCD41717D";
paths = (
{
closed = 1;
nodes = (
"327 116 LINE",
"327 365 LINE SMOOTH",
"327 498 OFFCURVE",
"266 556 OFFCURVE",
"169 556 CURVE SMOOTH",
"86 556 OFFCURVE",
"13 486 OFFCURVE",
"6 368 CURVE",
"50 368 LINE",
"54 461 OFFCURVE",
"112 515 OFFCURVE",
"170 515 CURVE SMOOTH",
"238 515 OFFCURVE",
"283 472 OFFCURVE",
"283 365 CURVE SMOOTH",
"283 116 LINE"
);
},
{
closed = 1;
nodes = (
"235 -12 OFFCURVE",
"290 39 OFFCURVE",
"312 114 CURVE",
"292 155 LINE",
"270 81 OFFCURVE",
"226 28 OFFCURVE",
"161 28 CURVE SMOOTH",
"99 28 OFFCURVE",
"59 72 OFFCURVE",
"59 139 CURVE SMOOTH",
"59 223 OFFCURVE",
"124 268 OFFCURVE",
"215 268 CURVE SMOOTH",
"292 268 LINE",
"292 309 LINE",
"216 309 LINE SMOOTH",
"97 309 OFFCURVE",
"14 246 OFFCURVE",
"14 137 CURVE SMOOTH",
"14 42 OFFCURVE",
"72 -12 OFFCURVE",
"160 -12 CURVE SMOOTH"
);
},
{
closed = 1;
nodes = (
"558 -12 OFFCURVE",
"626 59 OFFCURVE",
"640 175 CURVE",
"596 175 LINE",
"585 84 OFFCURVE",
"528 28 OFFCURVE",
"460 28 CURVE SMOOTH",
"375 28 OFFCURVE",
"327 111 OFFCURVE",
"327 274 CURVE SMOOTH",
"327 423 OFFCURVE",
"385 515 OFFCURVE",
"477 515 CURVE SMOOTH",
"546 515 OFFCURVE",
"586 457 OFFCURVE",
"590 357 CURVE",
"323 358 LINE",
"323 316 LINE",
"635 316 LINE",
"640 466 OFFCURVE",
"583 556 OFFCURVE",
"477 556 CURVE SMOOTH",
"359 556 OFFCURVE",
"283 448 OFFCURVE",
"283 273 CURVE SMOOTH",
"283 88 OFFCURVE",
"344 -12 OFFCURVE",
"460 -12 CURVE SMOOTH"
);
}
);
width = 650;
},
{
anchors = (
{
name = bottom;
position = "{419, 0}";
},
{
name = ogonek;
position = "{501, 0}";
},
{
name = top;
position = "{318, 556}";
}
);
layerId = "8628BAC4-B70C-44D0-A849-1AF4E6A86A6D";
paths = (
{
closed = 1;
nodes = (
"376 119 LINE",
"376 362 LINE SMOOTH",
"376 493 OFFCURVE",
"306 568 OFFCURVE",
"197 568 CURVE SMOOTH",
"80 568 OFFCURVE",
"9 496 OFFCURVE",
"1 378 CURVE",
"157 378 LINE",
"160 418 OFFCURVE",
"173 440 OFFCURVE",
"196 440 CURVE SMOOTH",
"216 440 OFFCURVE",
"229 427 OFFCURVE",
"229 392 CURVE SMOOTH",
"229 119 LINE"
);
},
{
closed = 1;
nodes = (
"250 -12 OFFCURVE",
"313 45 OFFCURVE",
"321 159 CURVE",
"236 247 LINE",
"239 152 OFFCURVE",
"221 113 OFFCURVE",
"190 113 CURVE SMOOTH",
"169 113 OFFCURVE",
"156 132 OFFCURVE",
"156 161 CURVE SMOOTH",
"156 203 OFFCURVE",
"186 229 OFFCURVE",
"215 229 CURVE SMOOTH",
"239 229 LINE",
"241 334 LINE",
"206 334 LINE SMOOTH",
"99 334 OFFCURVE",
"9 257 OFFCURVE",
"9 151 CURVE SMOOTH",
"9 40 OFFCURVE",
"77 -12 OFFCURVE",
"163 -12 CURVE SMOOTH"
);
},
{
closed = 1;
nodes = (
"552 -12 OFFCURVE",
"622 65 OFFCURVE",
"628 191 CURVE",
"496 191 LINE",
"490 146 OFFCURVE",
"474 114 OFFCURVE",
"439 114 CURVE SMOOTH",
"400 114 OFFCURVE",
"375 184 OFFCURVE",
"375 271 CURVE SMOOTH",
"375 388 OFFCURVE",
"398 450 OFFCURVE",
"437 450 CURVE SMOOTH",
"469 450 OFFCURVE",
"484 419 OFFCURVE",
"485 362 CURVE",
"359 362 LINE",
"357 257 LINE",
"632 257 LINE",
"647 450 OFFCURVE",
"591 568 OFFCURVE",
"444 568 CURVE SMOOTH",
"310 568 OFFCURVE",
"229 459 OFFCURVE",
"229 278 CURVE SMOOTH",
"229 98 OFFCURVE",
"307 -12 OFFCURVE",
"440 -12 CURVE SMOOTH"
);
}
);
width = 650;
},
{
anchors = (
{
name = bottom;
position = "{449, 0}";
},
{
name = ogonek;
position = "{639, -2}";
},
{
name = top;
position = "{323, 564}";
}
);
layerId = "CBDC2F8B-F278-480B-84CB-440443C6424E";
paths = (
{
closed = 1;
nodes = (
"380 119 LINE",
"380 367 LINE SMOOTH",
"380 497 OFFCURVE",
"313 575 OFFCURVE",
"203 575 CURVE SMOOTH",
"86 575 OFFCURVE",
"16 503 OFFCURVE",
"8 384 CURVE",
"165 384 LINE",
"168 420 OFFCURVE",
"182 441 OFFCURVE",
"201 441 CURVE SMOOTH",
"219 441 OFFCURVE",
"229 423 OFFCURVE",
"229 390 CURVE SMOOTH",
"229 119 LINE"
);
},
{
closed = 1;
nodes = (
"255 -12 OFFCURVE",
"321 43 OFFCURVE",
"329 163 CURVE",
"237 255 LINE",
"239 156 OFFCURVE",
"225 126 OFFCURVE",
"196 126 CURVE SMOOTH",
"178 126 OFFCURVE",
"165 141 OFFCURVE",
"165 165 CURVE SMOOTH",
"165 201 OFFCURVE",
"195 217 OFFCURVE",
"219 217 CURVE SMOOTH",
"239 217 LINE",
"241 336 LINE",
"211 336 LINE SMOOTH",
"94 336 OFFCURVE",
"13 261 OFFCURVE",
"13 153 CURVE SMOOTH",
"13 50 OFFCURVE",
"77 -12 OFFCURVE",
"171 -12 CURVE SMOOTH"
);
},
{
closed = 1;
nodes = (
"547 -12 OFFCURVE",
"626 64 OFFCURVE",
"632 195 CURVE",
"478 195 LINE",
"475 153 OFFCURVE",
"460 135 OFFCURVE",
"438 135 CURVE SMOOTH",
"403 135 OFFCURVE",
"383 196 OFFCURVE",
"383 279 CURVE SMOOTH",
"383 389 OFFCURVE",
"400 441 OFFCURVE",
"432 441 CURVE SMOOTH",
"453 441 OFFCURVE",
"466 418 OFFCURVE",
"467 368 CURVE",
"362 366 LINE",
"359 257 LINE",
"637 257 LINE",
"652 455 OFFCURVE",
"584 575 OFFCURVE",
"436 575 CURVE SMOOTH",
"302 575 OFFCURVE",
"229 465 OFFCURVE",
"229 280 CURVE SMOOTH",
"229 100 OFFCURVE",
"305 -12 OFFCURVE",
"439 -12 CURVE SMOOTH"
);
}
);
width = 650;
}
);
leftMetricsKey = "=a";
rightMetricsKey = "=e";
unicode = 00E6;
},
{
color = 6;
glyphname = b;
lastChange = "2021-05-25 15:15:03 +0000";
layers = (
{
anchors = (
{
name = bottom;
position = "{333, 0}";
},
{
name = center;
position = "{123, 272}";
},
{
name = top;
position = "{333, 545}";
},
{
name = topright;
position = "{212, 545}";
}
);
layerId = "8A7F20D3-7375-4A55-82DC-0ADBCD41717D";
paths = (
{
closed = 1;
nodes = (
"258 556 OFFCURVE",
"186 516 OFFCURVE",
"146 451 CURVE",
"146 730 LINE",
"100 730 LINE",
"100 0 LINE",
"141 0 LINE",
"144 97 LINE",
"183 31 OFFCURVE",
"257 -12 OFFCURVE",
"345 -12 CURVE SMOOTH",
"493 -12 OFFCURVE",
"594 99 OFFCURVE",
"594 272 CURVE SMOOTH",
"594 446 OFFCURVE",
"493 556 OFFCURVE",
"345 556 CURVE SMOOTH"
);
},
{
closed = 1;
nodes = (
"255 30 OFFCURVE",
"180 78 OFFCURVE",
"146 160 CURVE",
"146 385 LINE",
"180 467 OFFCURVE",
"255 514 OFFCURVE",
"341 514 CURVE SMOOTH",
"466 514 OFFCURVE",
"547 420 OFFCURVE",
"547 272 CURVE SMOOTH",
"547 125 OFFCURVE",
"466 30 OFFCURVE",
"341 30 CURVE SMOOTH"
);
}
);
width = 650;
},
{
anchors = (
{
name = bottom;
position = "{316, 0}";
},
{
name = center;
position = "{134, 278}";
},
{
name = top;
position = "{316, 557}";
},
{
name = topright;
position = "{341, 557}";
}
);
layerId = "8628BAC4-B70C-44D0-A849-1AF4E6A86A6D";
paths = (
{
closed = 1;
nodes = (
"307 568 OFFCURVE",
"249 543 OFFCURVE",
"211 503 CURVE",
"211 740 LINE",
"56 740 LINE",
"56 0 LINE",
"206 0 LINE",
"209 56 LINE",
"247 15 OFFCURVE",
"305 -12 OFFCURVE",
"371 -12 CURVE SMOOTH",
"516 -12 OFFCURVE",
"619 117 OFFCURVE",
"619 278 CURVE SMOOTH",
"619 440 OFFCURVE",
"516 568 OFFCURVE",
"371 568 CURVE SMOOTH"
);
},
{
closed = 1;
nodes = (
"275 116 OFFCURVE",
"230 154 OFFCURVE",
"211 212 CURVE",
"211 345 LINE",
"230 403 OFFCURVE",
"275 440 OFFCURVE",
"331 440 CURVE SMOOTH",
"408 440 OFFCURVE",
"463 369 OFFCURVE",
"463 278 CURVE SMOOTH",
"463 188 OFFCURVE",
"408 116 OFFCURVE",
"331 116 CURVE SMOOTH"
);
}
);
width = 650;
},
{
anchors = (
{
name = bottom;
position = "{251, 102}";
},
{
name = center;
position = "{189, 180}";
},
{
name = top;
position = "{300, 564}";
},
{
name = topright;
position = "{410, 564}";
}
);
layerId = "CBDC2F8B-F278-480B-84CB-440443C6424E";
paths = (
{
closed = 1;
nodes = (
"344 575 OFFCURVE",
"293 555 OFFCURVE",
"255 520 CURVE",
"255 740 LINE",
"39 740 LINE",
"39 0 LINE",
"250 0 LINE",
"253 46 LINE",
"291 9 OFFCURVE",
"341 -12 OFFCURVE",
"396 -12 CURVE SMOOTH",
"534 -12 OFFCURVE",
"627 109 OFFCURVE",
"627 282 CURVE SMOOTH",
"627 455 OFFCURVE",
"534 575 OFFCURVE",
"396 575 CURVE SMOOTH"
);
},
{
closed = 1;
nodes = (
"295 163 OFFCURVE",
"267 188 OFFCURVE",
"255 228 CURVE",
"255 336 LINE",
"267 376 OFFCURVE",
"295 400 OFFCURVE",
"328 400 CURVE SMOOTH",
"378 400 OFFCURVE",
"411 353 OFFCURVE",
"411 282 CURVE SMOOTH",
"411 211 OFFCURVE",
"378 163 OFFCURVE",
"328 163 CURVE SMOOTH"
);
}
);
width = 650;
}
);
leftMetricsKey = l;
rightMetricsKey = "=o";
unicode = 0062;
},
{
color = 6;
glyphname = c;
lastChange = "2021-05-25 15:15:03 +0000";
layers = (
{
anchors = (
{
name = bottom;
position = "{347, 0}";
},
{
name = top;
position = "{343, 545}";
}
);
layerId = "8A7F20D3-7375-4A55-82DC-0ADBCD41717D";
paths = (
{
closed = 1;
nodes = (
"452 -12 OFFCURVE",
"553 58 OFFCURVE",
"580 173 CURVE",
"533 173 LINE",
"512 85 OFFCURVE",
"430 30 OFFCURVE",
"348 30 CURVE SMOOTH",
"208 30 OFFCURVE",
"122 124 OFFCURVE",
"122 272 CURVE SMOOTH",
"122 419 OFFCURVE",
"210 514 OFFCURVE",
"348 514 CURVE SMOOTH",
"443 514 OFFCURVE",
"518 460 OFFCURVE",
"530 372 CURVE",
"576 372 LINE",
"561 485 OFFCURVE",
"463 556 OFFCURVE",
"348 556 CURVE SMOOTH",
"186 556 OFFCURVE",
"75 442 OFFCURVE",
"75 272 CURVE SMOOTH",
"75 101 OFFCURVE",
"183 -12 OFFCURVE",
"348 -12 CURVE SMOOTH"
);
}
);
width = 650;
},
{
anchors = (
{
name = bottom;
position = "{331, 0}";
},
{
name = top;
position = "{338, 557}";
}
);
layerId = "8628BAC4-B70C-44D0-A849-1AF4E6A86A6D";
paths = (
{
closed = 1;
nodes = (
"485 -12 OFFCURVE",
"593 72 OFFCURVE",
"605 202 CURVE",
"449 202 LINE",
"436 149 OFFCURVE",
"395 113 OFFCURVE",
"333 113 CURVE SMOOTH",
"262 113 OFFCURVE",
"207 173 OFFCURVE",
"207 278 CURVE SMOOTH",
"207 383 OFFCURVE",
"261 441 OFFCURVE",
"337 441 CURVE SMOOTH",
"398 441 OFFCURVE",
"435 411 OFFCURVE",
"446 350 CURVE",
"602 350 LINE",
"595 483 OFFCURVE",
"488 568 OFFCURVE",
"337 568 CURVE SMOOTH",
"164 568 OFFCURVE",
"51 462 OFFCURVE",
"51 278 CURVE SMOOTH",
"51 98 OFFCURVE",
"156 -12 OFFCURVE",
"333 -12 CURVE SMOOTH"
);
}
);
width = 650;
},
{
anchors = (
{
name = bottom;
position = "{323, 0}";
},
{
name = top;
position = "{340, 564}";
}
);
layerId = "CBDC2F8B-F278-480B-84CB-440443C6424E";
paths = (
{
closed = 1;
nodes = (
"499 -12 OFFCURVE",
"606 85 OFFCURVE",
"615 233 CURVE",
"400 233 LINE",
"393 183 OFFCURVE",
"366 158 OFFCURVE",
"326 158 CURVE SMOOTH",
"287 158 OFFCURVE",
"254 192 OFFCURVE",
"254 281 CURVE SMOOTH",
"254 363 OFFCURVE",
"286 401 OFFCURVE",
"333 401 CURVE SMOOTH",
"371 401 OFFCURVE",
"391 380 OFFCURVE",
"397 323 CURVE",
"612 323 LINE",
"610 475 OFFCURVE",
"505 575 OFFCURVE",
"333 575 CURVE SMOOTH",
"154 575 OFFCURVE",
"38 462 OFFCURVE",
"38 281 CURVE SMOOTH",
"38 97 OFFCURVE",
"142 -12 OFFCURVE",
"326 -12 CURVE SMOOTH"
);
}
);
width = 650;
}
);
leftMetricsKey = "=o";
unicode = 0063;
},
{
color = 6;
glyphname = d;
lastChange = "2021-05-25 15:15:03 +0000";
layers = (
{
anchors = (
{
name = bottom;
position = "{317, 0}";
},
{
name = center;
position = "{336, 272}";
},
{
name = top;
position = "{317, 545}";
},
{
name = topleft;
position = "{438, 545}";
},
{
name = topright;
position = "{630, 466}";
}
);
layerId = "8A7F20D3-7375-4A55-82DC-0ADBCD41717D";
paths = (
{
closed = 1;
nodes = (
"157 556 OFFCURVE",
"56 446 OFFCURVE",
"56 272 CURVE SMOOTH",
"56 99 OFFCURVE",
"157 -12 OFFCURVE",
"305 -12 CURVE SMOOTH",
"393 -12 OFFCURVE",
"467 31 OFFCURVE",
"506 97 CURVE",
"509 0 LINE",
"550 0 LINE",
"550 730 LINE",
"504 730 LINE",
"504 451 LINE",
"464 516 OFFCURVE",
"392 556 OFFCURVE",
"305 556 CURVE SMOOTH"
);
},
{
closed = 1;
nodes = (
"184 30 OFFCURVE",
"103 125 OFFCURVE",
"103 272 CURVE SMOOTH",
"103 420 OFFCURVE",
"184 514 OFFCURVE",
"309 514 CURVE SMOOTH",
"395 514 OFFCURVE",
"470 467 OFFCURVE",
"504 385 CURVE",
"504 160 LINE",
"470 78 OFFCURVE",
"395 30 OFFCURVE",
"309 30 CURVE SMOOTH"
);
}
);
width = 650;
},
{
anchors = (
{
name = bottom;
position = "{342, 0}";
},
{
name = center;
position = "{356, 278}";
},
{
name = top;
position = "{342, 557}";
},
{
name = topleft;
position = "{317, 557}";
},
{
name = topright;
position = "{697, 478}";
}
);
layerId = "8628BAC4-B70C-44D0-A849-1AF4E6A86A6D";
paths = (
{
closed = 1;
nodes = (
"142 568 OFFCURVE",
"39 440 OFFCURVE",
"39 278 CURVE SMOOTH",
"39 117 OFFCURVE",
"142 -12 OFFCURVE",
"287 -12 CURVE SMOOTH",
"353 -12 OFFCURVE",
"411 15 OFFCURVE",
"449 56 CURVE",
"452 0 LINE",
"602 0 LINE",
"602 740 LINE",
"447 740 LINE",
"447 503 LINE",
"409 543 OFFCURVE",
"351 568 OFFCURVE",
"287 568 CURVE SMOOTH"
);
},
{
closed = 1;
nodes = (
"250 116 OFFCURVE",
"195 188 OFFCURVE",
"195 278 CURVE SMOOTH",
"195 369 OFFCURVE",
"250 440 OFFCURVE",
"327 440 CURVE SMOOTH",
"383 440 OFFCURVE",
"428 403 OFFCURVE",
"447 345 CURVE",
"447 212 LINE",
"428 154 OFFCURVE",
"383 116 OFFCURVE",
"327 116 CURVE SMOOTH"
);
}
);
width = 650;
},
{
anchors = (
{
name = bottom;
position = "{399, 102}";
},
{
name = center;
position = "{364, 281}";
},
{
name = top;
position = "{350, 564}";
},
{
name = topleft;
position = "{240, 564}";
},
{
name = topright;
position = "{724, 485}";
}
);
layerId = "CBDC2F8B-F278-480B-84CB-440443C6424E";
paths = (
{
closed = 1;
nodes = (
"116 575 OFFCURVE",
"23 455 OFFCURVE",
"23 282 CURVE SMOOTH",
"23 109 OFFCURVE",
"116 -12 OFFCURVE",
"254 -12 CURVE SMOOTH",
"309 -12 OFFCURVE",
"359 9 OFFCURVE",
"397 46 CURVE",
"400 0 LINE",
"611 0 LINE",
"611 740 LINE",
"395 740 LINE",
"395 520 LINE",
"357 555 OFFCURVE",
"306 575 OFFCURVE",
"254 575 CURVE SMOOTH"
);
},
{
closed = 1;
nodes = (
"272 163 OFFCURVE",
"239 211 OFFCURVE",
"239 282 CURVE SMOOTH",
"239 353 OFFCURVE",
"272 400 OFFCURVE",
"322 400 CURVE SMOOTH",
"355 400 OFFCURVE",
"383 376 OFFCURVE",
"395 336 CURVE",
"395 228 LINE",
"383 188 OFFCURVE",
"355 163 OFFCURVE",
"322 163 CURVE SMOOTH"
);
}
);
width = 650;
}
);
leftMetricsKey = "=o";
unicode = 0064;
},
{
color = 6;
glyphname = eth;
lastChange = "2021-05-25 15:15:03 +0000";
layers = (
{
layerId = "8A7F20D3-7375-4A55-82DC-0ADBCD41717D";
paths = (
{
closed = 1;
nodes = (
"422 640 OFFCURVE",
"537 516 OFFCURVE",
"537 345 CURVE SMOOTH",
"537 154 OFFCURVE",
"454 30 OFFCURVE",
"310 30 CURVE SMOOTH",
"200 30 OFFCURVE",
"116 121 OFFCURVE",
"116 251 CURVE SMOOTH",
"116 376 OFFCURVE",
"197 463 OFFCURVE",
"310 463 CURVE SMOOTH",
"441 463 OFFCURVE",
"525 364 OFFCURVE",
"536 234 CURVE",
"546 320 LINE",
"518 434 OFFCURVE",
"426 505 OFFCURVE",
"311 505 CURVE SMOOTH",
"166 505 OFFCURVE",
"70 402 OFFCURVE",
"70 251 CURVE SMOOTH",
"70 94 OFFCURVE",
"171 -12 OFFCURVE",
"310 -12 CURVE SMOOTH",
"480 -12 OFFCURVE",
"580 129 OFFCURVE",
"580 345 CURVE SMOOTH",
"580 507 OFFCURVE",
"482 645 OFFCURVE",
"309 730 CURVE",
"228 730 LINE"
);
},
{
closed = 1;
nodes = (
"509 675 LINE",
"490 711 LINE",
"232 594 LINE",
"251 558 LINE"
);
}
);
width = 650;
},
{
layerId = "8628BAC4-B70C-44D0-A849-1AF4E6A86A6D";
paths = (
{
closed = 1;
nodes = (
"309 630 OFFCURVE",
"447 487 OFFCURVE",
"447 316 CURVE SMOOTH",
"447 211 OFFCURVE",
"403 112 OFFCURVE",
"320 112 CURVE SMOOTH",
"254 112 OFFCURVE",
"205 144 OFFCURVE",
"205 231 CURVE SMOOTH",
"205 317 OFFCURVE",
"253 358 OFFCURVE",
"320 358 CURVE SMOOTH",
"393 358 OFFCURVE",
"454 337 OFFCURVE",
"486 222 CURVE",
"498 379 LINE",
"442 462 OFFCURVE",
"377 477 OFFCURVE",
"276 477 CURVE SMOOTH",
"151 477 OFFCURVE",
"45 393 OFFCURVE",
"45 246 CURVE SMOOTH",
"45 78 OFFCURVE",
"164 -12 OFFCURVE",
"328 -12 CURVE SMOOTH",
"504 -12 OFFCURVE",
"604 133 OFFCURVE",
"604 316 CURVE SMOOTH",
"604 504 OFFCURVE",
"490 652 OFFCURVE",
"365 740 CURVE",
"158 740 LINE"
);
},
{
closed = 1;
nodes = (
"583 613 LINE",
"554 707 LINE",
"199 603 LINE",
"227 509 LINE"
);
}
);
width = 650;
},
{
layerId = "CBDC2F8B-F278-480B-84CB-440443C6424E";
paths = (
{
closed = 1;
nodes = (
"343 588 OFFCURVE",
"405 498 OFFCURVE",
"405 299 CURVE SMOOTH",
"405 210 OFFCURVE",
"378 150 OFFCURVE",
"320 150 CURVE SMOOTH",
"269 150 OFFCURVE",
"244 183 OFFCURVE",
"244 246 CURVE SMOOTH",
"244 305 OFFCURVE",
"271 346 OFFCURVE",
"330 346 CURVE SMOOTH",
"387 346 OFFCURVE",
"418 306 OFFCURVE",
"434 237 CURVE",
"497 374 LINE",
"434 454 OFFCURVE",
"378 490 OFFCURVE",
"294 490 CURVE SMOOTH",
"139 490 OFFCURVE",
"29 404 OFFCURVE",
"29 246 CURVE SMOOTH",
"29 83 OFFCURVE",
"136 -12 OFFCURVE",
"315 -12 CURVE SMOOTH",
"507 -12 OFFCURVE",
"620 116 OFFCURVE",
"620 330 CURVE SMOOTH",
"620 501 OFFCURVE",
"495 667 OFFCURVE",
"391 740 CURVE",
"147 740 LINE"
);
},
{
closed = 1;
nodes = (
"597 617 LINE",
"565 723 LINE",
"185 619 LINE",
"215 513 LINE"
);
}
);
width = 650;
}
);
leftMetricsKey = o;
unicode = 00F0;
},
{
color = 3;
glyphname = dcroat;
lastChange = "2021-05-25 15:15:03 +0000";
layers = (
{
components = (
{
name = bar.alt;
transform = "{1.1, 0, 0, 1, 133, 275}";
}
);
layerId = "8A7F20D3-7375-4A55-82DC-0ADBCD41717D";
paths = (
{
closed = 1;
nodes = (
"464 504 OFFCURVE",
"393 544 OFFCURVE",
"305 544 CURVE SMOOTH",
"157 544 OFFCURVE",
"56 436 OFFCURVE",
"56 266 CURVE SMOOTH",
"56 96 OFFCURVE",
"157 -12 OFFCURVE",
"305 -12 CURVE SMOOTH",
"393 -12 OFFCURVE",
"464 28 OFFCURVE",
"504 92 CURVE",
"509 0 LINE",
"550 0 LINE",
"550 730 LINE",
"504 730 LINE",
"504 440 LINE"
);
},
{
closed = 1;
nodes = (
"184 29 OFFCURVE",
"103 121 OFFCURVE",
"103 266 CURVE SMOOTH",
"103 411 OFFCURVE",
"184 503 OFFCURVE",
"309 503 CURVE SMOOTH",
"396 503 OFFCURVE",
"470 456 OFFCURVE",
"504 376 CURVE",
"504 157 LINE",
"470 76 OFFCURVE",
"396 29 OFFCURVE",
"309 29 CURVE SMOOTH"
);
}
);
width = 650;
},
{
components = (
{
name = bar.alt;
transform = "{1.1, 0, 0, 1, 115, 278}";
}
);
layerId = "8628BAC4-B70C-44D0-A849-1AF4E6A86A6D";
paths = (
{
closed = 1;
nodes = (
"405 513 OFFCURVE",
"348 538 OFFCURVE",
"283 538 CURVE SMOOTH",
"138 538 OFFCURVE",
"35 412 OFFCURVE",
"35 266 CURVE SMOOTH",
"35 94 OFFCURVE",
"148 -12 OFFCURVE",
"295 -12 CURVE SMOOTH",
"357 -12 OFFCURVE",
"408 15 OFFCURVE",
"443 55 CURVE",
"448 0 LINE",
"598 0 LINE",
"598 740 LINE",
"443 740 LINE",
"443 473 LINE"
);
},
{
closed = 1;
nodes = (
"246 114 OFFCURVE",
"191 180 OFFCURVE",
"191 263 CURVE SMOOTH",
"191 346 OFFCURVE",
"246 412 OFFCURVE",
"323 412 CURVE SMOOTH",
"380 412 OFFCURVE",
"424 375 OFFCURVE",
"443 322 CURVE",
"443 204 LINE",
"424 151 OFFCURVE",
"380 114 OFFCURVE",
"323 114 CURVE SMOOTH"
);
}
);
width = 650;
},
{
components = (
{
name = bar.alt;
transform = "{1.1, 0, 0, 1, 129, 285}";
}
);
layerId = "CBDC2F8B-F278-480B-84CB-440443C6424E";
paths = (
{
closed = 1;
nodes = (
"369 514 OFFCURVE",
"315 535 OFFCURVE",
"257 535 CURVE SMOOTH",
"114 535 OFFCURVE",
"22 408 OFFCURVE",
"22 265 CURVE SMOOTH",
"22 83 OFFCURVE",
"130 -12 OFFCURVE",
"276 -12 CURVE SMOOTH",
"328 -12 OFFCURVE",
"374 10 OFFCURVE",
"408 42 CURVE",
"411 0 LINE",
"622 0 LINE",
"622 745 LINE",
"408 745 LINE",
"408 482 LINE"
);
},
{
closed = 1;
nodes = (
"275 157 OFFCURVE",
"237 194 OFFCURVE",
"237 263 CURVE SMOOTH",
"237 330 OFFCURVE",
"275 367 OFFCURVE",
"324 367 CURVE SMOOTH",
"366 367 OFFCURVE",
"397 340 OFFCURVE",
"408 297 CURVE",
"408 228 LINE",
"397 184 OFFCURVE",
"366 157 OFFCURVE",
"324 157 CURVE SMOOTH"
);
}
);
width = 650;
}
);
unicode = 0111;
},
{
color = 6;
glyphname = e;
lastChange = "2021-05-25 15:15:03 +0000";
layers = (
{
anchors = (
{
name = bottom;
position = "{326, 0}";
},
{
name = ogonek;
position = "{394, 0}";
},
{
name = top;
position = "{345, 545}";
}
);
layerId = "8A7F20D3-7375-4A55-82DC-0ADBCD41717D";
leftMetricsKey = "=68";
rightMetricsKey = "=69";
paths = (
{
closed = 1;
nodes = (
"463 -12 OFFCURVE",
"558 59 OFFCURVE",
"581 175 CURVE",
"535 175 LINE",
"518 85 OFFCURVE",
"439 30 OFFCURVE",
"330 30 CURVE SMOOTH",
"196 30 OFFCURVE",
"115 123 OFFCURVE",
"115 274 CURVE SMOOTH",
"115 422 OFFCURVE",
"196 514 OFFCURVE",
"330 514 CURVE SMOOTH",
"445 514 OFFCURVE",
"517 456 OFFCURVE",
"523 357 CURVE",
"105 359 LINE",
"105 316 LINE",
"571 316 LINE",
"578 466 OFFCURVE",
"486 556 OFFCURVE",
"330 556 CURVE SMOOTH",
"167 556 OFFCURVE",
"68 445 OFFCURVE",
"68 273 CURVE SMOOTH",
"68 97 OFFCURVE",
"167 -12 OFFCURVE",
"330 -12 CURVE SMOOTH"
);
}
);
width = 650;
},
{
anchors = (
{
name = bottom;
position = "{329, 0}";
},
{
name = ogonek;
position = "{417, 0}";
},
{
name = top;
position = "{339, 557}";
}
);
layerId = "8628BAC4-B70C-44D0-A849-1AF4E6A86A6D";
leftMetricsKey = "=41";
rightMetricsKey = "=41";
paths = (
{
closed = 1;
nodes = (
"487 -12 OFFCURVE",
"592 67 OFFCURVE",
"605 194 CURVE",
"449 194 LINE",
"439 147 OFFCURVE",
"393 113 OFFCURVE",
"330 113 CURVE SMOOTH",
"242 113 OFFCURVE",
"197 184 OFFCURVE",
"197 271 CURVE SMOOTH",
"197 386 OFFCURVE",
"241 447 OFFCURVE",
"337 447 CURVE SMOOTH",
"398 447 OFFCURVE",
"444 413 OFFCURVE",
"448 362 CURVE",
"166 362 LINE",
"165 255 LINE",
"607 255 LINE",
"622 449 OFFCURVE",
"534 568 OFFCURVE",
"338 568 CURVE SMOOTH",
"150 568 OFFCURVE",
"41 460 OFFCURVE",
"41 278 CURVE SMOOTH",
"41 97 OFFCURVE",
"150 -12 OFFCURVE",
"330 -12 CURVE SMOOTH"
);
}
);
width = 650;
},
{
anchors = (
{
name = bottom;
position = "{328, 0}";
},
{
name = ogonek;
position = "{421, 0}";
},
{
name = top;
position = "{332, 564}";
}
);
layerId = "CBDC2F8B-F278-480B-84CB-440443C6424E";
leftMetricsKey = "=32";
rightMetricsKey = "=32";
paths = (
{
closed = 1;
nodes = (
"496 -12 OFFCURVE",
"604 71 OFFCURVE",
"615 198 CURVE",
"402 198 LINE",
"398 174 OFFCURVE",
"365 158 OFFCURVE",
"336 158 CURVE SMOOTH",
"270 158 OFFCURVE",
"248 197 OFFCURVE",
"248 271 CURVE SMOOTH",
"248 378 OFFCURVE",
"265 425 OFFCURVE",
"335 425 CURVE SMOOTH",
"370 425 OFFCURVE",
"395 398 OFFCURVE",
"397 365 CURVE",
"200 364 LINE",
"198 240 LINE",
"616 240 LINE",
"635 454 OFFCURVE",
"541 575 OFFCURVE",
"331 575 CURVE SMOOTH",
"148 575 OFFCURVE",
"32 460 OFFCURVE",
"32 281 CURVE SMOOTH",
"32 97 OFFCURVE",
"141 -12 OFFCURVE",
"328 -12 CURVE SMOOTH"
);
}
);
width = 650;
},
{
anchors = (
{
name = bottom;
position = "{328, 0}";
},
{
name = ogonek;
position = "{406, 0}";
},
{
name = top;
position = "{342, 551}";
}
);
associatedMasterId = "8A7F20D3-7375-4A55-82DC-0ADBCD41717D";
background = {
paths = (
{
closed = 1;
nodes = (
"462 -12 OFFCURVE",
"556 59 OFFCURVE",
"579 175 CURVE",
"533 175 LINE",
"516 85 OFFCURVE",
"438 30 OFFCURVE",
"328 30 CURVE SMOOTH",
"194 30 OFFCURVE",
"113 122 OFFCURVE",
"113 273 CURVE SMOOTH",
"113 422 OFFCURVE",
"194 514 OFFCURVE",
"328 514 CURVE SMOOTH",
"444 514 OFFCURVE",
"515 455 OFFCURVE",
"521 356 CURVE",
"103 358 LINE",
"103 315 LINE",
"569 315 LINE",
"576 465 OFFCURVE",
"485 556 OFFCURVE",
"328 556 CURVE SMOOTH",
"165 556 OFFCURVE",
"66 449 OFFCURVE",
"66 273 CURVE SMOOTH",
"66 96 OFFCURVE",
"165 -12 OFFCURVE",
"328 -12 CURVE SMOOTH"
);
}
);
};
layerId = "83205CB2-7106-449F-BCFC-89F88094592E";
leftMetricsKey = "=56";
rightMetricsKey = "=56";
name = "{400}";
paths = (
{
closed = 1;
nodes = (
"477 -12 OFFCURVE",
"576 63 OFFCURVE",
"594 187 CURVE",
"493 187 LINE",
"480 116 OFFCURVE",
"418 72 OFFCURVE",
"331 72 CURVE SMOOTH",
"220 72 OFFCURVE",
"157 153 OFFCURVE",
"157 272 CURVE SMOOTH",
"157 404 OFFCURVE",
"220 479 OFFCURVE",
"335 479 CURVE SMOOTH",
"420 479 OFFCURVE",
"482 433 OFFCURVE",
"487 362 CURVE",
"137 363 LINE",
"136 287 LINE",
"590 287 LINE",
"601 457 OFFCURVE",
"512 562 OFFCURVE",
"335 562 CURVE SMOOTH",
"160 562 OFFCURVE",
"56 455 OFFCURVE",
"56 276 CURVE SMOOTH",
"56 96 OFFCURVE",
"160 -12 OFFCURVE",
"331 -12 CURVE SMOOTH"
);
}
);
width = 650;
}
);
leftMetricsKey = "=o";
rightMetricsKey = "=o";
unicode = 0065;
},
{
color = 6;
glyphname = f;
lastChange = "2021-05-25 15:15:03 +0000";
layers = (
{
anchors = (
{
name = bottom;
position = "{316, 0}";
},
{
name = top;
position = "{316, 811}";
}
);
layerId = "8A7F20D3-7375-4A55-82DC-0ADBCD41717D";
paths = (
{
closed = 1;
nodes = (
"327 0 LINE",
"327 619 LINE SMOOTH",
"327 694 OFFCURVE",
"363 717 OFFCURVE",
"417 717 CURVE SMOOTH",
"574 717 LINE",
"574 755 LINE",
"418 755 LINE SMOOTH",
"312 755 OFFCURVE",
"281 696 OFFCURVE",
"281 613 CURVE SMOOTH",
"281 0 LINE"
);
},
{
closed = 1;
nodes = (
"537 506 LINE",
"537 544 LINE",
"131 544 LINE",
"131 506 LINE"
);
},
{
closed = 1;
nodes = (
"564 0 LINE",
"564 38 LINE",
"90 38 LINE",
"90 0 LINE"
);
}
);
width = 650;
},
{
anchors = (
{
name = bottom;
position = "{354, 0}";
},
{
name = top;
position = "{354, 811}";
}
);
layerId = "8628BAC4-B70C-44D0-A849-1AF4E6A86A6D";
paths = (
{
closed = 1;
nodes = (
"383 0 LINE",
"383 611 LINE SMOOTH",
"383 675 OFFCURVE",
"430 684 OFFCURVE",
"487 684 CURVE SMOOTH",
"598 684 LINE",
"598 810 LINE",
"425 810 LINE SMOOTH",
"312 810 OFFCURVE",
"227 728 OFFCURVE",
"227 611 CURVE SMOOTH",
"227 0 LINE"
);
},
{
closed = 1;
nodes = (
"518 430 LINE",
"518 556 LINE",
"117 556 LINE",
"117 430 LINE"
);
},
{
closed = 1;
nodes = (
"586 0 LINE",
"586 126 LINE",
"68 126 LINE",
"68 0 LINE"
);
}
);
width = 650;
},
{
anchors = (
{
name = bottom;
position = "{361, 0}";
},
{
name = top;
position = "{361, 811}";
}
);
layerId = "CBDC2F8B-F278-480B-84CB-440443C6424E";
paths = (
{
closed = 1;
nodes = (
"399 0 LINE",
"399 608 LINE SMOOTH",
"399 645 OFFCURVE",
"422 668 OFFCURVE",
"459 668 CURVE SMOOTH",
"603 668 LINE",
"603 840 LINE",
"427 840 LINE SMOOTH",
"286 840 OFFCURVE",
"183 748 OFFCURVE",
"183 608 CURVE SMOOTH",
"183 0 LINE"
);
},
{
closed = 1;
nodes = (
"539 391 LINE",
"539 563 LINE",
"73 563 LINE",
"73 391 LINE"
);
},
{
closed = 1;
nodes = (
"593 0 LINE",
"593 172 LINE",
"58 172 LINE",
"58 0 LINE"
);
}
);
width = 650;
}
);
unicode = 0066;
},
{
color = 6;
glyphname = g;
lastChange = "2021-05-25 15:15:03 +0000";
layers = (
{
anchors = (
{
name = bottom;
position = "{309, -191}";
},
{
name = top;
position = "{316, 545}";
}
);
layerId = "8A7F20D3-7375-4A55-82DC-0ADBCD41717D";
paths = (
{
closed = 1;
nodes = (
"472 511 OFFCURVE",
"395 556 OFFCURVE",
"303 556 CURVE SMOOTH",
"158 556 OFFCURVE",
"59 455 OFFCURVE",
"59 298 CURVE SMOOTH",
"59 141 OFFCURVE",
"158 39 OFFCURVE",
"303 39 CURVE SMOOTH",
"394 39 OFFCURVE",
"469 82 OFFCURVE",
"506 151 CURVE",
"506 37 LINE SMOOTH",
"506 -83 OFFCURVE",
"437 -148 OFFCURVE",
"312 -148 CURVE SMOOTH",
"195 -148 OFFCURVE",
"134 -96 OFFCURVE",
"127 -12 CURVE",
"80 -12 LINE",
"95 -130 OFFCURVE",
"179 -190 OFFCURVE",
"312 -190 CURVE SMOOTH",
"466 -190 OFFCURVE",
"552 -107 OFFCURVE",
"552 46 CURVE SMOOTH",
"552 544 LINE",
"511 544 LINE",
"508 444 LINE"
);
},
{
closed = 1;
nodes = (
"185 77 OFFCURVE",
"105 164 OFFCURVE",
"105 298 CURVE SMOOTH",
"105 432 OFFCURVE",
"185 518 OFFCURVE",
"307 518 CURVE SMOOTH",
"398 518 OFFCURVE",
"476 466 OFFCURVE",
"506 380 CURVE",
"506 215 LINE",
"476 128 OFFCURVE",
"398 77 OFFCURVE",
"307 77 CURVE SMOOTH"
);
}
);
width = 650;
},
{
anchors = (
{
name = bottom;
position = "{331, -1}";
},
{
name = top;
position = "{326, 557}";
}
);
layerId = "8628BAC4-B70C-44D0-A849-1AF4E6A86A6D";
paths = (
{
closed = 1;
nodes = (
"412 539 OFFCURVE",
"360 567 OFFCURVE",
"300 567 CURVE SMOOTH",
"159 567 OFFCURVE",
"50 465 OFFCURVE",
"50 293 CURVE SMOOTH",
"50 144 OFFCURVE",
"150 22 OFFCURVE",
"290 22 CURVE SMOOTH",
"353 22 OFFCURVE",
"407 47 OFFCURVE",
"444 91 CURVE",
"444 58 LINE SMOOTH",
"444 -18 OFFCURVE",
"405 -64 OFFCURVE",
"323 -64 CURVE SMOOTH",
"256 -64 OFFCURVE",
"225 -49 OFFCURVE",
"219 -12 CURVE",
"55 -12 LINE",
"57 -132 OFFCURVE",
"155 -190 OFFCURVE",
"313 -190 CURVE SMOOTH",
"510 -190 OFFCURVE",
"600 -98 OFFCURVE",
"600 74 CURVE SMOOTH",
"600 556 LINE",
"450 556 LINE",
"447 498 LINE"
);
},
{
closed = 1;
nodes = (
"257 142 OFFCURVE",
"206 212 OFFCURVE",
"206 296 CURVE SMOOTH",
"206 379 OFFCURVE",
"257 447 OFFCURVE",
"330 447 CURVE SMOOTH",
"383 447 OFFCURVE",
"427 409 OFFCURVE",
"444 351 CURVE",
"444 239 LINE",
"427 181 OFFCURVE",
"383 142 OFFCURVE",
"330 142 CURVE SMOOTH"
);
}
);
width = 650;
},
{
anchors = (
{
name = bottom;
position = "{339, 102}";
},
{
name = top;
position = "{328, 564}";
}
);
layerId = "CBDC2F8B-F278-480B-84CB-440443C6424E";
paths = (
{
closed = 1;
nodes = (
"364 557 OFFCURVE",
"316 575 OFFCURVE",
"267 575 CURVE SMOOTH",
"124 575 OFFCURVE",
"27 467 OFFCURVE",
"27 306 CURVE SMOOTH",
"27 151 OFFCURVE",
"124 45 OFFCURVE",
"267 45 CURVE SMOOTH",
"318 45 OFFCURVE",
"362 60 OFFCURVE",
"397 98 CURVE",
"397 52 LINE SMOOTH",
"397 -6 OFFCURVE",
"368 -31 OFFCURVE",
"316 -31 CURVE SMOOTH",
"268 -31 OFFCURVE",
"250 -19 OFFCURVE",
"246 13 CURVE",
"21 13 LINE",
"34 -136 OFFCURVE",
"152 -190 OFFCURVE",
"296 -190 CURVE SMOOTH",
"509 -190 OFFCURVE",
"614 -112 OFFCURVE",
"614 52 CURVE SMOOTH",
"614 563 LINE",
"402 563 LINE",
"399 523 LINE"
);
},
{
closed = 1;
nodes = (
"266 201 OFFCURVE",
"240 246 OFFCURVE",
"240 310 CURVE SMOOTH",
"240 376 OFFCURVE",
"266 420 OFFCURVE",
"322 420 CURVE SMOOTH",
"355 420 OFFCURVE",
"385 396 OFFCURVE",
"397 357 CURVE",
"397 265 LINE",
"385 225 OFFCURVE",
"355 201 OFFCURVE",
"322 201 CURVE SMOOTH"
);
}
);
width = 650;
}
);
leftMetricsKey = "=o";
unicode = 0067;
},
{
color = 6;
glyphname = h;
lastChange = "2021-05-25 15:15:03 +0000";
layers = (
{
anchors = (
{
name = bottom;
position = "{318, 0}";
},
{
name = center;
position = "{318, 272}";
},
{
name = top;
position = "{120, 698}";
},
{
name = topright;
position = "{205, 545}";
}
);
layerId = "8A7F20D3-7375-4A55-82DC-0ADBCD41717D";
paths = (
{
closed = 1;
nodes = (
"558 0 LINE",
"558 348 LINE SMOOTH",
"558 473 OFFCURVE",
"477 556 OFFCURVE",
"355 556 CURVE SMOOTH",
"246 556 OFFCURVE",
"156 484 OFFCURVE",
"123 363 CURVE",
"134 270 LINE",
"156 431 OFFCURVE",
"246 514 OFFCURVE",
"353 514 CURVE SMOOTH",
"448 514 OFFCURVE",
"512 448 OFFCURVE",
"512 349 CURVE SMOOTH",
"512 0 LINE"
);
},
{
closed = 1;
nodes = (
"144 0 LINE",
"144 731 LINE",
"98 731 LINE",
"98 0 LINE"
);
}
);
width = 650;
},
{
anchors = (
{
name = bottom;
position = "{324, 0}";
},
{
name = center;
position = "{324, 278}";
},
{
name = top;
position = "{138, 740}";
},
{
name = topright;
position = "{357, 557}";
}
);
layerId = "8628BAC4-B70C-44D0-A849-1AF4E6A86A6D";
paths = (
{
closed = 1;
nodes = (
"590 0 LINE",
"590 352 LINE SMOOTH",
"590 482 OFFCURVE",
"513 568 OFFCURVE",
"386 568 CURVE SMOOTH",
"311 568 OFFCURVE",
"234 535 OFFCURVE",
"184 447 CURVE",
"206 316 LINE",
"256 405 OFFCURVE",
"299 438 OFFCURVE",
"354 438 CURVE SMOOTH",
"402 438 OFFCURVE",
"434 400 OFFCURVE",
"434 342 CURVE SMOOTH",
"434 0 LINE"
);
},
{
closed = 1;
nodes = (
"219 0 LINE",
"219 741 LINE",
"63 741 LINE",
"63 0 LINE"
);
}
);
width = 650;
},
{
anchors = (
{
name = bottom;
position = "{324, 102}";
},
{
name = center;
position = "{324, 180}";
},
{
name = top;
position = "{148, 742}";
},
{
name = topright;
position = "{436, 564}";
}
);
layerId = "CBDC2F8B-F278-480B-84CB-440443C6424E";
paths = (
{
closed = 1;
nodes = (
"611 0 LINE",
"611 361 LINE SMOOTH",
"611 494 OFFCURVE",
"546 575 OFFCURVE",
"416 575 CURVE SMOOTH",
"341 575 OFFCURVE",
"279 543 OFFCURVE",
"220 464 CURVE",
"234 308 LINE",
"282 366 OFFCURVE",
"312 392 OFFCURVE",
"349 392 CURVE SMOOTH",
"382 392 OFFCURVE",
"395 368 OFFCURVE",
"395 334 CURVE SMOOTH",
"395 0 LINE"
);
},
{
closed = 1;
nodes = (
"258 0 LINE",
"258 741 LINE",
"42 741 LINE",
"42 0 LINE"
);
}
);
width = 650;
}
);
unicode = 0068;
},
{
color = 3;
glyphname = hbar;
lastChange = "2021-05-25 15:15:03 +0000";
layers = (
{
anchors = (
{
name = bottom;
position = "{316, 0}";
},
{
name = center;
position = "{316, 272}";
},
{
name = top;
position = "{364, 698}";
},
{
name = topright;
position = "{203, 544}";
}
);
components = (
{
name = bar.alt;
transform = "{1.1, 0, 0, 1, -200, 275}";
}
);
layerId = "8A7F20D3-7375-4A55-82DC-0ADBCD41717D";
paths = (
{
closed = 1;
nodes = (
"558 0 LINE",
"558 336 LINE SMOOTH",
"558 461 OFFCURVE",
"477 544 OFFCURVE",
"355 544 CURVE SMOOTH",
"245 544 OFFCURVE",
"156 471 OFFCURVE",
"123 351 CURVE",
"134 258 LINE",
"156 418 OFFCURVE",
"245 502 OFFCURVE",
"353 502 CURVE SMOOTH",
"448 502 OFFCURVE",
"512 436 OFFCURVE",
"512 337 CURVE SMOOTH",
"512 0 LINE"
);
},
{
closed = 1;
nodes = (
"144 0 LINE",
"144 730 LINE",
"98 730 LINE",
"98 0 LINE"
);
}
);
width = 650;
},
{
anchors = (
{
name = bottom;
position = "{336, 0}";
},
{
name = center;
position = "{336, 278}";
},
{
name = top;
position = "{351, 740}";
},
{
name = topright;
position = "{369, 556}";
}
);
components = (
{
name = bar.alt;
transform = "{1.1, 0, 0, 1, -168, 278}";
}
);
layerId = "8628BAC4-B70C-44D0-A849-1AF4E6A86A6D";
paths = (
{
closed = 1;
nodes = (
"590 0 LINE",
"590 322 LINE SMOOTH",
"590 452 OFFCURVE",
"513 538 OFFCURVE",
"386 538 CURVE SMOOTH",
"310 538 OFFCURVE",
"234 504 OFFCURVE",
"184 417 CURVE",
"206 286 LINE",
"256 374 OFFCURVE",
"298 408 OFFCURVE",
"354 408 CURVE SMOOTH",
"402 408 OFFCURVE",
"434 370 OFFCURVE",
"434 312 CURVE SMOOTH",
"434 0 LINE"
);
},
{
closed = 1;
nodes = (
"219 0 LINE",
"219 740 LINE",
"63 740 LINE",
"63 0 LINE"
);
}
);
width = 650;
},
{
anchors = (
{
name = bottom;
position = "{346, 103}";
},
{
name = center;
position = "{346, 179}";
},
{
name = top;
position = "{345, 742}";
},
{
name = topright;
position = "{458, 563}";
}
);
components = (
{
name = bar.alt;
transform = "{1.1, 0, 0, 1, -179, 285}";
}
);
layerId = "CBDC2F8B-F278-480B-84CB-440443C6424E";
paths = (
{
closed = 1;
nodes = (
"611 0 LINE",
"611 321 LINE SMOOTH",
"611 454 OFFCURVE",
"546 535 OFFCURVE",
"416 535 CURVE SMOOTH",
"340 535 OFFCURVE",
"279 502 OFFCURVE",
"220 423 CURVE",
"234 268 LINE",
"282 325 OFFCURVE",
"311 352 OFFCURVE",
"349 352 CURVE SMOOTH",
"382 352 OFFCURVE",
"395 328 OFFCURVE",
"395 293 CURVE SMOOTH",
"395 0 LINE"
);
},
{
closed = 1;
nodes = (
"258 0 LINE",
"258 740 LINE",
"42 740 LINE",
"42 0 LINE"
);
}
);
width = 650;
}
);
unicode = 0127;
},
{
color = 6;
glyphname = idotless;
lastChange = "2021-05-25 15:15:03 +0000";
layers = (
{
anchors = (
{
name = bottom;
position = "{324, 0}";
},
{
name = ogonek;
position = "{358, 0}";
},
{
name = top;
position = "{334, 545}";
}
);
layerId = "8A7F20D3-7375-4A55-82DC-0ADBCD41717D";
paths = (
{
closed = 1;
nodes = (
"358 0 LINE",
"358 544 LINE",
"312 544 LINE",
"312 0 LINE"
);
},
{
closed = 1;
nodes = (
"555 0 LINE",
"555 38 LINE",
"87 38 LINE",
"87 0 LINE"
);
},
{
closed = 1;
nodes = (
"335 506 LINE",
"335 544 LINE",
"162 544 LINE",
"162 506 LINE"
);
}
);
width = 650;
},
{
anchors = (
{
name = bottom;
position = "{325, 0}";
},
{
name = ogonek;
position = "{400, 0}";
},
{
name = top;
position = "{324, 557}";
}
);
layerId = "8628BAC4-B70C-44D0-A849-1AF4E6A86A6D";
paths = (
{
closed = 1;
nodes = (
"403 0 LINE",
"403 556 LINE",
"247 556 LINE",
"247 0 LINE"
);
},
{
closed = 1;
nodes = (
"585 0 LINE",
"585 126 LINE",
"67 126 LINE",
"67 0 LINE"
);
},
{
closed = 1;
nodes = (
"325 430 LINE",
"325 556 LINE",
"137 556 LINE",
"137 430 LINE"
);
}
);
width = 650;
},
{
anchors = (
{
name = bottom;
position = "{326, 0}";
},
{
name = ogonek;
position = "{433, 0}";
},
{
name = top;
position = "{345, 564}";
}
);
layerId = "CBDC2F8B-F278-480B-84CB-440443C6424E";
paths = (
{
closed = 1;
nodes = (
"453 0 LINE",
"453 563 LINE",
"237 563 LINE",
"237 0 LINE"
);
},
{
closed = 1;
nodes = (
"605 0 LINE",
"605 172 LINE",
"57 172 LINE",
"57 0 LINE"
);
},
{
closed = 1;
nodes = (
"345 391 LINE",
"345 563 LINE",
"127 563 LINE",
"127 391 LINE"
);
}
);
width = 650;
}
);
unicode = 0131;
},
{
color = 6;
glyphname = jdotless;
lastChange = "2021-05-25 15:15:03 +0000";
layers = (
{
anchors = (
{
name = bottom;
position = "{325, 0}";
},
{
name = top;
position = "{445, 545}";
}
);
layerId = "8A7F20D3-7375-4A55-82DC-0ADBCD41717D";
paths = (
{
closed = 1;
nodes = (
"422 544 LINE",
"422 -42 LINE SMOOTH",
"422 -115 OFFCURVE",
"388 -140 OFFCURVE",
"332 -140 CURVE SMOOTH",
"114 -140 LINE",
"114 -178 LINE",
"331 -178 LINE SMOOTH",
"433 -178 OFFCURVE",
"468 -124 OFFCURVE",
"468 -36 CURVE SMOOTH",
"468 544 LINE"
);
},
{
closed = 1;
nodes = (
"445 506 LINE",
"445 544 LINE",
"272 544 LINE",
"272 506 LINE"
);
}
);
width = 650;
},
{
anchors = (
{
name = bottom;
position = "{324, 0}";
},
{
name = top;
position = "{404, 557}";
}
);
layerId = "8628BAC4-B70C-44D0-A849-1AF4E6A86A6D";
paths = (
{
closed = 1;
nodes = (
"327 556 LINE",
"327 22 LINE SMOOTH",
"327 -41 OFFCURVE",
"294 -52 OFFCURVE",
"233 -52 CURVE SMOOTH",
"61 -52 LINE",
"61 -178 LINE",
"295 -178 LINE SMOOTH",
"408 -178 OFFCURVE",
"483 -96 OFFCURVE",
"483 22 CURVE SMOOTH",
"483 556 LINE"
);
},
{
closed = 1;
nodes = (
"405 430 LINE",
"405 556 LINE",
"217 556 LINE",
"217 430 LINE"
);
}
);
width = 650;
},
{
anchors = (
{
name = bottom;
position = "{323, 0}";
},
{
name = top;
position = "{443, 564}";
}
);
layerId = "CBDC2F8B-F278-480B-84CB-440443C6424E";
paths = (
{
closed = 1;
nodes = (
"337 563 LINE",
"337 36 LINE SMOOTH",
"337 11 OFFCURVE",
"321 -6 OFFCURVE",
"297 -6 CURVE SMOOTH",
"77 -6 LINE",
"77 -178 LINE",
"339 -178 LINE SMOOTH",
"469 -178 OFFCURVE",
"553 -102 OFFCURVE",
"553 16 CURVE SMOOTH",
"553 563 LINE"
);
},
{
closed = 1;
nodes = (
"365 391 LINE",
"365 563 LINE",
"227 563 LINE",
"227 391 LINE"
);
}
);
width = 650;
}
);
unicode = 0237;
},
{
color = 6;
glyphname = k;
lastChange = "2021-05-25 15:15:03 +0000";
layers = (
{
anchors = (
{
name = bottom;
position = "{314, 0}";
},
{
name = center;
position = "{95, 272}";
},
{
name = top;
position = "{95, 699}";
},
{
name = topright;
position = "{188, 545}";
}
);
layerId = "8A7F20D3-7375-4A55-82DC-0ADBCD41717D";
paths = (
{
closed = 1;
nodes = (
"138 0 LINE",
"138 223.562 LINE",
"526 544 LINE",
"456 544 LINE",
"244 368 LINE",
"138 282 LINE",
"138 417 LINE",
"138 730 LINE",
"92 730 LINE",
"92 0 LINE"
);
},
{
closed = 1;
nodes = (
"539 0 LINE",
"311 386 LINE",
"276 353 LINE",
"484 0 LINE"
);
}
);
width = 650;
},
{
anchors = (
{
name = bottom;
position = "{314, 0}";
},
{
name = center;
position = "{318, 278}";
},
{
name = top;
position = "{318, 733}";
},
{
name = topright;
position = "{503, 557}";
}
);
layerId = "8628BAC4-B70C-44D0-A849-1AF4E6A86A6D";
paths = (
{
closed = 1;
nodes = (
"199 0 LINE",
"199 175.657 LINE",
"581 556 LINE",
"383 556 LINE",
"295 464 LINE",
"189 335 LINE",
"199 502 LINE",
"199 740 LINE",
"43 740 LINE",
"43 0 LINE"
);
},
{
closed = 1;
nodes = (
"590 0 LINE",
"375 376 LINE",
"232 320 LINE",
"409 0 LINE"
);
}
);
width = 650;
},
{
anchors = (
{
name = bottom;
position = "{336, 0}";
},
{
name = center;
position = "{316, 281}";
},
{
name = top;
position = "{316, 751}";
},
{
name = topright;
position = "{548, 564}";
}
);
layerId = "CBDC2F8B-F278-480B-84CB-440443C6424E";
paths = (
{
closed = 1;
nodes = (
"256 0 LINE",
"256 201.338 LINE",
"630 563 LINE",
"375 563 LINE",
"350 536 LINE",
"236 385 LINE",
"256 572 LINE",
"256 740 LINE",
"40 740 LINE",
"40 0 LINE"
);
},
{
closed = 1;
nodes = (
"636 0 LINE",
"433 411 LINE",
"245 322 LINE",
"397 0 LINE"
);
}
);
width = 650;
}
);
unicode = 006B;
},
{
color = 6;
glyphname = kgreenlandic;
lastChange = "2021-05-25 15:15:03 +0000";
layers = (
{
layerId = "8A7F20D3-7375-4A55-82DC-0ADBCD41717D";
paths = (
{
closed = 1;
nodes = (
"481 544 LINE",
"413 544 LINE",
"99 267 LINE",
"99 212 LINE"
);
},
{
closed = 1;
nodes = (
"516 0 LINE",
"268 386 LINE",
"238 353 LINE",
"463 0 LINE"
);
},
{
closed = 1;
nodes = (
"138 0 LINE",
"138 395 LINE",
"133 545 LINE",
"92 545 LINE",
"92 0 LINE"
);
}
);
width = 650;
},
{
layerId = "8628BAC4-B70C-44D0-A849-1AF4E6A86A6D";
paths = (
{
closed = 1;
nodes = (
"576 556 LINE",
"378 556 LINE",
"150 289 LINE",
"144 97 LINE"
);
},
{
closed = 1;
nodes = (
"604 0 LINE",
"376 376 LINE",
"232 320 LINE",
"422 0 LINE"
);
},
{
closed = 1;
nodes = (
"199 0 LINE",
"199 457 LINE",
"194 557 LINE",
"43 557 LINE",
"43 0 LINE"
);
}
);
width = 650;
},
{
layerId = "CBDC2F8B-F278-480B-84CB-440443C6424E";
paths = (
{
closed = 1;
nodes = (
"624 563 LINE",
"367 563 LINE",
"173 313 LINE",
"195 93 LINE"
);
},
{
closed = 1;
nodes = (
"608 0 LINE",
"426 417 LINE",
"251 300 LINE",
"377 0 LINE"
);
},
{
closed = 1;
nodes = (
"256 0 LINE",
"256 491 LINE",
"251 564 LINE",
"40 564 LINE",
"40 0 LINE"
);
}
);
width = 650;
}
);
unicode = 0138;
},
{
color = 6;
glyphname = l;
lastChange = "2021-05-25 15:15:03 +0000";
layers = (
{
anchors = (
{
name = bottom;
position = "{325, 0}";
},
{
name = center;
position = "{325, 272}";
},
{
name = top;
position = "{325, 699}";
},
{
name = topright;
position = "{424, 466}";
}
);
layerId = "8A7F20D3-7375-4A55-82DC-0ADBCD41717D";
paths = (
{
closed = 1;
nodes = (
"348 0 LINE",
"348 730 LINE",
"302 730 LINE",
"302 0 LINE"
);
},
{
closed = 1;
nodes = (
"575 0 LINE",
"575 38 LINE",
"77 38 LINE",
"77 0 LINE"
);
},
{
closed = 1;
nodes = (
"325 692 LINE",
"325 730 LINE",
"152 730 LINE",
"152 692 LINE"
);
}
);
width = 650;
},
{
anchors = (
{
name = bottom;
position = "{325, 0}";
},
{
name = center;
position = "{325, 278}";
},
{
name = top;
position = "{325, 733}";
},
{
name = topright;
position = "{498, 478}";
}
);
layerId = "8628BAC4-B70C-44D0-A849-1AF4E6A86A6D";
paths = (
{
closed = 1;
nodes = (
"403 0 LINE",
"403 740 LINE",
"247 740 LINE",
"247 0 LINE"
);
},
{
closed = 1;
nodes = (
"585 0 LINE",
"585 126 LINE",
"67 126 LINE",
"67 0 LINE"
);
},
{
closed = 1;
nodes = (
"325 614 LINE",
"325 740 LINE",
"137 740 LINE",
"137 614 LINE"
);
}
);
width = 650;
},
{
anchors = (
{
name = bottom;
position = "{325, 0}";
},
{
name = center;
position = "{325, 281}";
},
{
name = top;
position = "{325, 751}";
},
{
name = topright;
position = "{546, 485}";
}
);
layerId = "CBDC2F8B-F278-480B-84CB-440443C6424E";
paths = (
{
closed = 1;
nodes = (
"433 0 LINE",
"433 740 LINE",
"217 740 LINE",
"217 0 LINE"
);
},
{
closed = 1;
nodes = (
"605 0 LINE",
"605 172 LINE",
"47 172 LINE",
"47 0 LINE"
);
},
{
closed = 1;
nodes = (
"325 568 LINE",
"325 740 LINE",
"107 740 LINE",
"107 568 LINE"
);
}
);
width = 650;
}
);
unicode = 006C;
},
{
color = 3;
glyphname = lslash;
lastChange = "2021-05-25 15:15:03 +0000";
layers = (
{
components = (
{
name = l;
}
);
layerId = "8A7F20D3-7375-4A55-82DC-0ADBCD41717D";
paths = (
{
closed = 1;
nodes = (
"450 438 LINE",
"450 480 LINE",
"193 386 LINE",
"193 344 LINE"
);
}
);
width = 650;
},
{
components = (
{
name = l;
}
);
layerId = "8628BAC4-B70C-44D0-A849-1AF4E6A86A6D";
paths = (
{
closed = 1;
nodes = (
"502 405 LINE",
"502 537 LINE",
"145 407 LINE",
"145 275 LINE"
);
}
);
width = 650;
},
{
components = (
{
name = l;
}
);
layerId = "CBDC2F8B-F278-480B-84CB-440443C6424E";
paths = (
{
closed = 1;
nodes = (
"531 397 LINE",
"531 568 LINE",
"120 418 LINE",
"120 248 LINE"
);
}
);
width = 650;
}
);
unicode = 0142;
},
{
color = 6;
glyphname = m;
lastChange = "2021-05-25 15:15:03 +0000";
layers = (
{
anchors = (
{
name = bottom;
position = "{327, 0}";
},
{
name = top;
position = "{327, 545}";
}
);
layerId = "8A7F20D3-7375-4A55-82DC-0ADBCD41717D";
paths = (
{
closed = 1;
nodes = (
"593 0 LINE",
"593 410 LINE SMOOTH",
"593 502 OFFCURVE",
"553 556 OFFCURVE",
"478 556 CURVE SMOOTH",
"406 556 OFFCURVE",
"341 492 OFFCURVE",
"326 372 CURVE",
"334 278 LINE",
"349 432 OFFCURVE",
"406 514 OFFCURVE",
"474 514 CURVE SMOOTH",
"521 514 OFFCURVE",
"547 478 OFFCURVE",
"547 411 CURVE SMOOTH",
"547 0 LINE"
);
},
{
closed = 1;
nodes = (
"103 0 LINE",
"103 433 LINE",
"98 544 LINE",
"57 544 LINE",
"57 0 LINE"
);
},
{
closed = 1;
nodes = (
"348 0 LINE",
"348 410 LINE SMOOTH",
"348 503 OFFCURVE",
"307 556 OFFCURVE",
"228 556 CURVE SMOOTH",
"157 556 OFFCURVE",
"96 492 OFFCURVE",
"81 372 CURVE",
"86 278 LINE",
"100 432 OFFCURVE",
"158 514 OFFCURVE",
"225 514 CURVE SMOOTH",
"276 514 OFFCURVE",
"302 478 OFFCURVE",
"302 411 CURVE SMOOTH",
"302 0 LINE"
);
}
);
width = 650;
},
{
anchors = (
{
name = bottom;
position = "{325, 0}";
},
{
name = top;
position = "{325, 555}";
}
);
layerId = "8628BAC4-B70C-44D0-A849-1AF4E6A86A6D";
paths = (
{
closed = 1;
nodes = (
"607 0 LINE",
"607 409 LINE SMOOTH",
"607 513 OFFCURVE",
"556 568 OFFCURVE",
"487 568 CURVE SMOOTH",
"406 568 OFFCURVE",
"352 492 OFFCURVE",
"360 371 CURVE",
"370 296 LINE",
"385 404 OFFCURVE",
"409 442 OFFCURVE",
"438 442 CURVE SMOOTH",
"460 442 OFFCURVE",
"467 422 OFFCURVE",
"467 392 CURVE SMOOTH",
"467 0 LINE"
);
},
{
closed = 1;
nodes = (
"182 0 LINE",
"182 453 LINE",
"179 556 LINE",
"43 556 LINE",
"43 0 LINE"
);
},
{
closed = 1;
nodes = (
"394 0 LINE",
"394 411 LINE SMOOTH",
"394 504 OFFCURVE",
"349 568 OFFCURVE",
"279 568 CURVE SMOOTH",
"214 568 OFFCURVE",
"151 493 OFFCURVE",
"159 377 CURVE",
"158 296 LINE",
"172 394 OFFCURVE",
"190 442 OFFCURVE",
"225 442 CURVE SMOOTH",
"245 442 OFFCURVE",
"255 426 OFFCURVE",
"255 392 CURVE SMOOTH",
"255 0 LINE"
);
}
);
width = 650;
},
{
anchors = (
{
name = bottom;
position = "{324, 0}";
},
{
name = top;
position = "{324, 557}";
}
);
layerId = "CBDC2F8B-F278-480B-84CB-440443C6424E";
paths = (
{
closed = 1;
nodes = (
"617 0 LINE",
"617 414 LINE SMOOTH",
"617 521 OFFCURVE",
"569 575 OFFCURVE",
"497 575 CURVE SMOOTH",
"410 575 OFFCURVE",
"358 496 OFFCURVE",
"371 378 CURVE",
"382 277 LINE",
"398 369 OFFCURVE",
"411 402 OFFCURVE",
"436 402 CURVE SMOOTH",
"451 402 OFFCURVE",
"461 391 OFFCURVE",
"461 366 CURVE SMOOTH",
"461 0 LINE"
);
},
{
closed = 1;
nodes = (
"188 0 LINE",
"188 465 LINE",
"182 563 LINE",
"32 563 LINE",
"32 0 LINE"
);
},
{
closed = 1;
nodes = (
"403 0 LINE",
"403 416 LINE SMOOTH",
"403 510 OFFCURVE",
"358 575 OFFCURVE",
"292 575 CURVE SMOOTH",
"225 575 OFFCURVE",
"160 500 OFFCURVE",
"173 385 CURVE",
"171 277 LINE",
"187 371 OFFCURVE",
"195 402 OFFCURVE",
"222 402 CURVE SMOOTH",
"236 402 OFFCURVE",
"247 391 OFFCURVE",
"247 366 CURVE SMOOTH",
"247 0 LINE"
);
}
);
width = 650;
}
);
leftMetricsKey = "=n";
rightMetricsKey = "=n";
unicode = 006D;
},
{
color = 6;
glyphname = n;
lastChange = "2021-05-25 15:15:03 +0000";
layers = (
{
anchors = (
{
name = bottom;
position = "{332, 0}";
},
{
name = top;
position = "{327, 545}";
}
);
layerId = "8A7F20D3-7375-4A55-82DC-0ADBCD41717D";
paths = (
{
closed = 1;
nodes = (
"558 0 LINE",
"558 349 LINE SMOOTH",
"558 473 OFFCURVE",
"477 556 OFFCURVE",
"355 556 CURVE SMOOTH",
"246 556 OFFCURVE",
"156 484 OFFCURVE",
"123 364 CURVE",
"134 270 LINE",
"156 431 OFFCURVE",
"246 514 OFFCURVE",
"353 514 CURVE SMOOTH",
"448 514 OFFCURVE",
"512 448 OFFCURVE",
"512 350 CURVE SMOOTH",
"512 0 LINE"
);
},
{
closed = 1;
nodes = (
"144 0 LINE",
"144 395 LINE",
"139 544 LINE",
"98 544 LINE",
"98 0 LINE"
);
}
);
width = 650;
},
{
anchors = (
{
name = bottom;
position = "{331, 0}";
},
{
name = top;
position = "{350, 557}";
}
);
layerId = "8628BAC4-B70C-44D0-A849-1AF4E6A86A6D";
paths = (
{
closed = 1;
nodes = (
"590 0 LINE",
"590 353 LINE SMOOTH",
"590 482 OFFCURVE",
"513 568 OFFCURVE",
"386 568 CURVE SMOOTH",
"311 568 OFFCURVE",
"234 534 OFFCURVE",
"184 448 CURVE",
"206 316 LINE",
"256 405 OFFCURVE",
"299 438 OFFCURVE",
"354 438 CURVE SMOOTH",
"402 438 OFFCURVE",
"434 400 OFFCURVE",
"434 343 CURVE SMOOTH",
"434 0 LINE"
);
},
{
closed = 1;
nodes = (
"219 0 LINE",
"219 457 LINE",
"214 556 LINE",
"63 556 LINE",
"63 0 LINE"
);
}
);
width = 650;
},
{
anchors = (
{
name = bottom;
position = "{327, 0}";
},
{
name = top;
position = "{359, 564}";
}
);
layerId = "CBDC2F8B-F278-480B-84CB-440443C6424E";
paths = (
{
closed = 1;
nodes = (
"611 0 LINE",
"611 362 LINE SMOOTH",
"611 494 OFFCURVE",
"546 575 OFFCURVE",
"416 575 CURVE SMOOTH",
"341 575 OFFCURVE",
"279 543 OFFCURVE",
"220 464 CURVE",
"234 309 LINE",
"282 366 OFFCURVE",
"311 392 OFFCURVE",
"349 392 CURVE SMOOTH",
"382 392 OFFCURVE",
"395 368 OFFCURVE",
"395 334 CURVE SMOOTH",
"395 0 LINE"
);
},
{
closed = 1;
nodes = (
"258 0 LINE",
"258 491 LINE",
"253 563 LINE",
"42 563 LINE",
"42 0 LINE"
);
}
);
width = 650;
}
);
unicode = 006E;
},
{
color = 6;
glyphname = eng;
lastChange = "2021-05-25 15:15:03 +0000";
layers = (
{
anchors = (
{
name = bottom;
position = "{325, 0}";
},
{
name = top;
position = "{325, 545}";
}
);
layerId = "8A7F20D3-7375-4A55-82DC-0ADBCD41717D";
paths = (
{
closed = 1;
nodes = (
"262 557 OFFCURVE",
"183 506 OFFCURVE",
"141 418 CURVE",
"137 545 LINE",
"96 545 LINE",
"96 0 LINE",
"142 0 LINE",
"142 322 LINE",
"174 449 OFFCURVE",
"256 515 OFFCURVE",
"351 515 CURVE SMOOTH",
"446 515 OFFCURVE",
"510 448 OFFCURVE",
"510 350 CURVE SMOOTH",
"510 -42 LINE SMOOTH",
"510 -115 OFFCURVE",
"476 -140 OFFCURVE",
"420 -140 CURVE SMOOTH",
"362 -140 LINE",
"362 -178 LINE",
"419 -178 LINE SMOOTH",
"521 -178 OFFCURVE",
"556 -124 OFFCURVE",
"556 -36 CURVE SMOOTH",
"556 349 LINE SMOOTH",
"556 473 OFFCURVE",
"475 557 OFFCURVE",
"353 557 CURVE SMOOTH"
);
}
);
width = 650;
},
{
anchors = (
{
name = bottom;
position = "{324, 0}";
},
{
name = top;
position = "{350, 557}";
}
);
layerId = "8628BAC4-B70C-44D0-A849-1AF4E6A86A6D";
paths = (
{
closed = 1;
nodes = (
"326 569 OFFCURVE",
"265 547 OFFCURVE",
"217 494 CURVE",
"214 557 LINE",
"63 557 LINE",
"63 0 LINE",
"219 0 LINE",
"219 339 LINE",
"263 411 OFFCURVE",
"304 439 OFFCURVE",
"354 439 CURVE SMOOTH",
"402 439 OFFCURVE",
"434 400 OFFCURVE",
"434 343 CURVE SMOOTH",
"434 12 LINE SMOOTH",
"434 -42 OFFCURVE",
"398 -52 OFFCURVE",
"340 -52 CURVE SMOOTH",
"288 -52 LINE",
"288 -178 LINE",
"402 -178 LINE SMOOTH",
"515 -178 OFFCURVE",
"590 -96 OFFCURVE",
"590 0 CURVE SMOOTH",
"590 353 LINE SMOOTH",
"590 482 OFFCURVE",
"513 569 OFFCURVE",
"386 569 CURVE SMOOTH"
);
}
);
width = 650;
},
{
anchors = (
{
name = bottom;
position = "{317, 0}";
},
{
name = top;
position = "{357, 564}";
}
);
layerId = "CBDC2F8B-F278-480B-84CB-440443C6424E";
paths = (
{
closed = 1;
nodes = (
"355 576 OFFCURVE",
"303 555 OFFCURVE",
"255 507 CURVE",
"251 564 LINE",
"40 564 LINE",
"40 0 LINE",
"256 0 LINE",
"256 337 LINE",
"291 375 OFFCURVE",
"316 393 OFFCURVE",
"347 393 CURVE SMOOTH",
"380 393 OFFCURVE",
"393 368 OFFCURVE",
"393 334 CURVE SMOOTH",
"393 36 LINE SMOOTH",
"393 11 OFFCURVE",
"377 -6 OFFCURVE",
"353 -6 CURVE SMOOTH",
"333 -6 LINE",
"333 -178 LINE",
"395 -178 LINE SMOOTH",
"525 -178 OFFCURVE",
"609 -102 OFFCURVE",
"609 16 CURVE SMOOTH",
"609 362 LINE SMOOTH",
"609 494 OFFCURVE",
"544 576 OFFCURVE",
"414 576 CURVE SMOOTH"
);
}
);
width = 650;
}
);
unicode = 014B;
},
{
color = 6;
glyphname = o;
lastChange = "2021-05-25 15:15:03 +0000";
layers = (
{
anchors = (
{
name = bottom;
position = "{324, 0}";
},
{
name = center;
position = "{324, 273}";
},
{
name = ogonek;
position = "{575, 0}";
},
{
name = top;
position = "{324, 545}";
},
{
name = topright;
position = "{612, 545}";
}
);
layerId = "8A7F20D3-7375-4A55-82DC-0ADBCD41717D";
paths = (
{
closed = 1;
nodes = (
"488 -12 OFFCURVE",
"588 97 OFFCURVE",
"588 272 CURVE SMOOTH",
"588 448 OFFCURVE",
"488 556 OFFCURVE",
"324 556 CURVE SMOOTH",
"160 556 OFFCURVE",
"61 448 OFFCURVE",
"61 272 CURVE SMOOTH",
"61 97 OFFCURVE",
"160 -12 OFFCURVE",
"324 -12 CURVE SMOOTH"
);
},
{
closed = 1;
nodes = (
"189 30 OFFCURVE",
"108 123 OFFCURVE",
"108 272 CURVE SMOOTH",
"108 422 OFFCURVE",
"189 514 OFFCURVE",
"324 514 CURVE SMOOTH",
"459 514 OFFCURVE",
"541 422 OFFCURVE",
"541 272 CURVE SMOOTH",
"541 123 OFFCURVE",
"459 30 OFFCURVE",
"324 30 CURVE SMOOTH"
);
}
);
width = 650;
},
{
anchors = (
{
name = bottom;
position = "{325, 0}";
},
{
name = center;
position = "{325, 278}";
},
{
name = ogonek;
position = "{573, 12}";
},
{
name = top;
position = "{325, 557}";
},
{
name = topright;
position = "{611, 557}";
}
);
layerId = "8628BAC4-B70C-44D0-A849-1AF4E6A86A6D";
paths = (
{
closed = 1;
nodes = (
"503 -12 OFFCURVE",
"610 98 OFFCURVE",
"610 278 CURVE SMOOTH",
"610 459 OFFCURVE",
"503 568 OFFCURVE",
"325 568 CURVE SMOOTH",
"147 568 OFFCURVE",
"39 459 OFFCURVE",
"39 278 CURVE SMOOTH",
"39 98 OFFCURVE",
"147 -12 OFFCURVE",
"325 -12 CURVE SMOOTH"
);
},
{
closed = 1;
nodes = (
"244 114 OFFCURVE",
"195 176 OFFCURVE",
"195 278 CURVE SMOOTH",
"195 381 OFFCURVE",
"244 442 OFFCURVE",
"325 442 CURVE SMOOTH",
"405 442 OFFCURVE",
"454 381 OFFCURVE",
"454 278 CURVE SMOOTH",
"454 176 OFFCURVE",
"405 114 OFFCURVE",
"325 114 CURVE SMOOTH"
);
}
);
width = 650;
},
{
anchors = (
{
name = bottom;
position = "{325, 102}";
},
{
name = center;
position = "{325, 180}";
},
{
name = ogonek;
position = "{567, 19}";
},
{
name = top;
position = "{325, 564}";
},
{
name = topright;
position = "{604, 564}";
}
);
layerId = "CBDC2F8B-F278-480B-84CB-440443C6424E";
paths = (
{
closed = 1;
nodes = (
"507 -12 OFFCURVE",
"617 99 OFFCURVE",
"617 281 CURVE SMOOTH",
"617 465 OFFCURVE",
"507 575 OFFCURVE",
"325 575 CURVE SMOOTH",
"144 575 OFFCURVE",
"32 465 OFFCURVE",
"32 281 CURVE SMOOTH",
"32 99 OFFCURVE",
"144 -12 OFFCURVE",
"325 -12 CURVE SMOOTH"
);
},
{
closed = 1;
nodes = (
"278 160 OFFCURVE",
"247 202 OFFCURVE",
"247 281 CURVE SMOOTH",
"247 363 OFFCURVE",
"278 403 OFFCURVE",
"325 403 CURVE SMOOTH",
"371 403 OFFCURVE",
"402 363 OFFCURVE",
"402 281 CURVE SMOOTH",
"402 203 OFFCURVE",
"372 160 OFFCURVE",
"325 160 CURVE SMOOTH"
);
}
);
width = 650;
}
);
unicode = 006F;
},
{
color = 6;
glyphname = oslash;
lastChange = "2021-05-25 15:15:03 +0000";
layers = (
{
anchors = (
{
name = bottom;
position = "{324, 0}";
},
{
name = center;
position = "{324, 272}";
},
{
name = ogonek;
position = "{575, 0}";
},
{
name = top;
position = "{324, 545}";
},
{
name = topright;
position = "{612, 545}";
}
);
layerId = "8A7F20D3-7375-4A55-82DC-0ADBCD41717D";
paths = (
{
closed = 1;
nodes = (
"528 584 LINE",
"488 604 LINE",
"122 -40 LINE",
"162 -59 LINE"
);
},
{
closed = 1;
nodes = (
"488 -12 OFFCURVE",
"588 97 OFFCURVE",
"588 272 CURVE SMOOTH",
"588 448 OFFCURVE",
"488 557 OFFCURVE",
"324 557 CURVE SMOOTH",
"160 557 OFFCURVE",
"61 448 OFFCURVE",
"61 272 CURVE SMOOTH",
"61 97 OFFCURVE",
"160 -12 OFFCURVE",
"324 -12 CURVE SMOOTH"
);
},
{
closed = 1;
nodes = (
"189 30 OFFCURVE",
"108 123 OFFCURVE",
"108 272 CURVE SMOOTH",
"108 422 OFFCURVE",
"189 515 OFFCURVE",
"324 515 CURVE SMOOTH",
"459 515 OFFCURVE",
"541 422 OFFCURVE",
"541 272 CURVE SMOOTH",
"541 123 OFFCURVE",
"459 30 OFFCURVE",
"324 30 CURVE SMOOTH"
);
}
);
width = 650;
},
{
anchors = (
{
name = bottom;
position = "{325, 0}";
},
{
name = center;
position = "{325, 278}";
},
{
name = ogonek;
position = "{573, 12}";
},
{
name = top;
position = "{325, 557}";
},
{
name = topright;
position = "{611, 557}";
}
);
layerId = "8628BAC4-B70C-44D0-A849-1AF4E6A86A6D";
paths = (
{
closed = 1;
nodes = (
"569 585 LINE",
"456 642 LINE",
"81 -27 LINE",
"194 -84 LINE"
);
},
{
closed = 1;
nodes = (
"503 -12 OFFCURVE",
"610 98 OFFCURVE",
"610 278 CURVE SMOOTH",
"610 459 OFFCURVE",
"503 569 OFFCURVE",
"325 569 CURVE SMOOTH",
"147 569 OFFCURVE",
"39 459 OFFCURVE",
"39 278 CURVE SMOOTH",
"39 98 OFFCURVE",
"147 -12 OFFCURVE",
"325 -12 CURVE SMOOTH"
);
},
{
closed = 1;
nodes = (
"244 114 OFFCURVE",
"195 176 OFFCURVE",
"195 278 CURVE SMOOTH",
"195 381 OFFCURVE",
"244 443 OFFCURVE",
"325 443 CURVE SMOOTH",
"405 443 OFFCURVE",
"454 381 OFFCURVE",
"454 278 CURVE SMOOTH",
"454 176 OFFCURVE",
"405 114 OFFCURVE",
"325 114 CURVE SMOOTH"
);
}
);
width = 650;
},
{
anchors = (
{
name = bottom;
position = "{325, 102}";
},
{
name = center;
position = "{325, 180}";
},
{
name = ogonek;
position = "{572, 19}";
},
{
name = top;
position = "{325, 564}";
},
{
name = topright;
position = "{610, 564}";
}
);
layerId = "CBDC2F8B-F278-480B-84CB-440443C6424E";
paths = (
{
closed = 1;
nodes = (
"568 590 LINE",
"460 644 LINE",
"81 -33 LINE",
"189 -88 LINE"
);
},
{
closed = 1;
nodes = (
"511 -12 OFFCURVE",
"622 99 OFFCURVE",
"622 281 CURVE SMOOTH",
"622 465 OFFCURVE",
"511 576 OFFCURVE",
"325 576 CURVE SMOOTH",
"140 576 OFFCURVE",
"27 465 OFFCURVE",
"27 281 CURVE SMOOTH",
"27 99 OFFCURVE",
"140 -12 OFFCURVE",
"325 -12 CURVE SMOOTH"
);
},
{
closed = 1;
nodes = (
"269 148 OFFCURVE",
"234 194 OFFCURVE",
"234 281 CURVE SMOOTH",
"234 371 OFFCURVE",
"269 416 OFFCURVE",
"325 416 CURVE SMOOTH",
"380 416 OFFCURVE",
"415 371 OFFCURVE",
"415 281 CURVE SMOOTH",
"415 195 OFFCURVE",
"381 148 OFFCURVE",
"325 148 CURVE SMOOTH"
);
}
);
width = 650;
}
);
unicode = 00F8;
},
{
color = 6;
glyphname = oe;
lastChange = "2021-05-25 15:15:03 +0000";
layers = (
{
anchors = (
{
name = bottom;
position = "{415, 0}";
},
{
name = center;
position = "{280, 273}";
},
{
name = ogonek;
position = "{437, 0}";
},
{
name = top;
position = "{415, 544}";
},
{
name = topright;
position = "{460, 545}";
}
);
layerId = "8A7F20D3-7375-4A55-82DC-0ADBCD41717D";
paths = (
{
closed = 1;
nodes = (
"293 -12 OFFCURVE",
"355 93 OFFCURVE",
"355 272 CURVE SMOOTH",
"355 451 OFFCURVE",
"293 556 OFFCURVE",
"188 556 CURVE SMOOTH",
"81 556 OFFCURVE",
"17 451 OFFCURVE",
"17 272 CURVE SMOOTH",
"17 93 OFFCURVE",
"81 -12 OFFCURVE",
"188 -12 CURVE SMOOTH"
);
},
{
closed = 1;
nodes = (
"110 30 OFFCURVE",
"64 120 OFFCURVE",
"64 272 CURVE SMOOTH",
"64 424 OFFCURVE",
"110 514 OFFCURVE",
"188 514 CURVE SMOOTH",
"263 514 OFFCURVE",
"308 424 OFFCURVE",
"308 272 CURVE SMOOTH",
"308 120 OFFCURVE",
"263 30 OFFCURVE",
"188 30 CURVE SMOOTH"
);
},
{
closed = 1;
nodes = (
"567 -12 OFFCURVE",
"628 57 OFFCURVE",
"640 175 CURVE",
"594 175 LINE",
"584 84 OFFCURVE",
"540 30 OFFCURVE",
"477 30 CURVE SMOOTH",
"400 30 OFFCURVE",
"355 121 OFFCURVE",
"355 274 CURVE SMOOTH",
"355 425 OFFCURVE",
"401 514 OFFCURVE",
"478 514 CURVE SMOOTH",
"544 514 OFFCURVE",
"585 456 OFFCURVE",
"589 357 CURVE",
"348 359 LINE",
"348 316 LINE",
"637 316 LINE",
"643 467 OFFCURVE",
"584 556 OFFCURVE",
"478 556 CURVE SMOOTH",
"371 556 OFFCURVE",
"308 451 OFFCURVE",
"308 273 CURVE SMOOTH",
"308 94 OFFCURVE",
"371 -12 OFFCURVE",
"477 -12 CURVE SMOOTH"
);
}
);
width = 650;
},
{
anchors = (
{
name = bottom;
position = "{358, 0}";
},
{
name = center;
position = "{248, 277}";
},
{
name = ogonek;
position = "{403, 10}";
},
{
name = top;
position = "{358, 554}";
},
{
name = topright;
position = "{427, 555}";
}
);
layerId = "8628BAC4-B70C-44D0-A849-1AF4E6A86A6D";
paths = (
{
closed = 1;
nodes = (
"327 -12 OFFCURVE",
"391 89 OFFCURVE",
"391 277 CURVE SMOOTH",
"391 466 OFFCURVE",
"327 568 OFFCURVE",
"206 568 CURVE SMOOTH",
"85 568 OFFCURVE",
"20 465 OFFCURVE",
"20 277 CURVE SMOOTH",
"20 89 OFFCURVE",
"85 -12 OFFCURVE",
"206 -12 CURVE SMOOTH"
);
},
{
closed = 1;
nodes = (
"171 114 OFFCURVE",
"154 157 OFFCURVE",
"154 277 CURVE SMOOTH",
"154 397 OFFCURVE",
"171 442 OFFCURVE",
"206 442 CURVE SMOOTH",
"240 442 OFFCURVE",
"257 397 OFFCURVE",
"257 277 CURVE SMOOTH",
"257 157 OFFCURVE",
"240 114 OFFCURVE",
"206 114 CURVE SMOOTH"
);
},
{
closed = 1;
nodes = (
"550 -12 OFFCURVE",
"622 65 OFFCURVE",
"628 191 CURVE",
"496 191 LINE",
"489 136 OFFCURVE",
"466 114 OFFCURVE",
"442 114 CURVE SMOOTH",
"407 114 OFFCURVE",
"391 154 OFFCURVE",
"391 272 CURVE SMOOTH",
"391 393 OFFCURVE",
"403 450 OFFCURVE",
"441 450 CURVE SMOOTH",
"466 450 OFFCURVE",
"484 423 OFFCURVE",
"485 362 CURVE",
"367 362 LINE",
"365 257 LINE",
"632 257 LINE",
"646 443 OFFCURVE",
"595 568 OFFCURVE",
"446 568 CURVE SMOOTH",
"322 568 OFFCURVE",
"257 458 OFFCURVE",
"257 277 CURVE SMOOTH",
"257 97 OFFCURVE",
"319 -12 OFFCURVE",
"441 -12 CURVE SMOOTH"
);
}
);
width = 650;
},
{
anchors = (
{
name = bottom;
position = "{514, 3}";
},
{
name = center;
position = "{327, 173}";
},
{
name = ogonek;
position = "{580, 25}";
},
{
name = top;
position = "{514, 573}";
},
{
name = topright;
position = "{619, 574}";
}
);
layerId = "CBDC2F8B-F278-480B-84CB-440443C6424E";
paths = (
{
closed = 1;
nodes = (
"333 -12 OFFCURVE",
"399 90 OFFCURVE",
"399 280 CURVE SMOOTH",
"399 471 OFFCURVE",
"333 575 OFFCURVE",
"208 575 CURVE SMOOTH",
"82 575 OFFCURVE",
"16 469 OFFCURVE",
"16 280 CURVE SMOOTH",
"16 91 OFFCURVE",
"82 -12 OFFCURVE",
"208 -12 CURVE SMOOTH"
);
},
{
closed = 1;
nodes = (
"180 160 OFFCURVE",
"167 199 OFFCURVE",
"167 280 CURVE SMOOTH",
"167 363 OFFCURVE",
"180 403 OFFCURVE",
"208 403 CURVE SMOOTH",
"235 403 OFFCURVE",
"248 363 OFFCURVE",
"248 280 CURVE SMOOTH",
"248 199 OFFCURVE",
"235 160 OFFCURVE",
"208 160 CURVE SMOOTH"
);
},
{
closed = 1;
nodes = (
"550 -12 OFFCURVE",
"627 67 OFFCURVE",
"632 195 CURVE",
"478 195 LINE",
"475 147 OFFCURVE",
"455 135 OFFCURVE",
"438 135 CURVE SMOOTH",
"410 135 OFFCURVE",
"399 162 OFFCURVE",
"399 274 CURVE SMOOTH",
"399 388 OFFCURVE",
"405 441 OFFCURVE",
"437 441 CURVE SMOOTH",
"455 441 OFFCURVE",
"467 424 OFFCURVE",
"467 368 CURVE",
"371 368 LINE",
"369 257 LINE",
"637 257 LINE",
"654 454 OFFCURVE",
"579 575 OFFCURVE",
"443 575 CURVE SMOOTH",
"314 575 OFFCURVE",
"248 461 OFFCURVE",
"248 280 CURVE SMOOTH",
"248 99 OFFCURVE",
"311 -12 OFFCURVE",
"437 -12 CURVE SMOOTH"
);
}
);
width = 650;
}
);
leftMetricsKey = "=o";
rightMetricsKey = "=e";
unicode = 0153;
},
{
color = 6;
glyphname = p;
lastChange = "2021-05-25 15:15:03 +0000";
layers = (
{
anchors = (
{
name = bottom;
position = "{328, 0}";
},
{
name = top;
position = "{328, 545}";
}
);
layerId = "8A7F20D3-7375-4A55-82DC-0ADBCD41717D";
paths = (
{
closed = 1;
nodes = (
"255 556 OFFCURVE",
"182 513 OFFCURVE",
"142 448 CURVE",
"139 544 LINE",
"98 544 LINE",
"98 -178 LINE",
"144 -178 LINE",
"144 94 LINE",
"184 29 OFFCURVE",
"256 -12 OFFCURVE",
"343 -12 CURVE SMOOTH",
"491 -12 OFFCURVE",
"592 99 OFFCURVE",
"592 272 CURVE SMOOTH",
"592 446 OFFCURVE",
"491 556 OFFCURVE",
"343 556 CURVE SMOOTH"
);
},
{
closed = 1;
nodes = (
"253 30 OFFCURVE",
"178 78 OFFCURVE",
"144 160 CURVE",
"144 385 LINE",
"178 466 OFFCURVE",
"253 514 OFFCURVE",
"339 514 CURVE SMOOTH",
"464 514 OFFCURVE",
"545 420 OFFCURVE",
"545 272 CURVE SMOOTH",
"545 125 OFFCURVE",
"464 30 OFFCURVE",
"339 30 CURVE SMOOTH"
);
}
);
width = 650;
},
{
anchors = (
{
name = bottom;
position = "{321, 0}";
},
{
name = top;
position = "{321, 557}";
}
);
layerId = "8628BAC4-B70C-44D0-A849-1AF4E6A86A6D";
paths = (
{
closed = 1;
nodes = (
"305 568 OFFCURVE",
"248 543 OFFCURVE",
"210 502 CURVE",
"207 556 LINE",
"56 556 LINE",
"56 -178 LINE",
"212 -178 LINE",
"212 53 LINE",
"250 13 OFFCURVE",
"307 -12 OFFCURVE",
"371 -12 CURVE SMOOTH",
"516 -12 OFFCURVE",
"619 117 OFFCURVE",
"619 278 CURVE SMOOTH",
"619 440 OFFCURVE",
"516 568 OFFCURVE",
"371 568 CURVE SMOOTH"
);
},
{
closed = 1;
nodes = (
"276 116 OFFCURVE",
"231 153 OFFCURVE",
"212 209 CURVE",
"212 348 LINE",
"231 404 OFFCURVE",
"276 440 OFFCURVE",
"331 440 CURVE SMOOTH",
"408 440 OFFCURVE",
"463 369 OFFCURVE",
"463 278 CURVE SMOOTH",
"463 188 OFFCURVE",
"408 116 OFFCURVE",
"331 116 CURVE SMOOTH"
);
}
);
width = 650;
},
{
anchors = (
{
name = bottom;
position = "{311, 0}";
},
{
name = top;
position = "{311, 564}";
}
);
layerId = "CBDC2F8B-F278-480B-84CB-440443C6424E";
paths = (
{
closed = 1;
nodes = (
"341 575 OFFCURVE",
"288 554 OFFCURVE",
"248 517 CURVE",
"245 563 LINE",
"34 563 LINE",
"34 -179 LINE",
"250 -179 LINE",
"250 44 LINE",
"289 9 OFFCURVE",
"341 -12 OFFCURVE",
"396 -12 CURVE SMOOTH",
"538 -12 OFFCURVE",
"633 109 OFFCURVE",
"633 281 CURVE SMOOTH",
"633 455 OFFCURVE",
"538 575 OFFCURVE",
"396 575 CURVE SMOOTH"
);
},
{
closed = 1;
nodes = (
"294 163 OFFCURVE",
"263 188 OFFCURVE",
"250 228 CURVE",
"250 336 LINE",
"263 375 OFFCURVE",
"294 400 OFFCURVE",
"329 400 CURVE SMOOTH",
"383 400 OFFCURVE",
"418 353 OFFCURVE",
"418 281 CURVE SMOOTH",
"418 211 OFFCURVE",
"383 163 OFFCURVE",
"329 163 CURVE SMOOTH"
);
}
);
width = 650;
}
);
rightMetricsKey = "=o";
unicode = 0070;
},
{
color = 6;
glyphname = thorn;
lastChange = "2021-05-25 15:15:03 +0000";
layers = (
{
layerId = "8A7F20D3-7375-4A55-82DC-0ADBCD41717D";
paths = (
{
closed = 1;
nodes = (
"258 557 OFFCURVE",
"186 516 OFFCURVE",
"146 451 CURVE",
"146 731 LINE",
"100 731 LINE",
"100 -178 LINE",
"146 -178 LINE",
"146 94 LINE",
"183 31 OFFCURVE",
"257 -12 OFFCURVE",
"345 -12 CURVE SMOOTH",
"493 -12 OFFCURVE",
"594 99 OFFCURVE",
"594 272 CURVE SMOOTH",
"594 446 OFFCURVE",
"493 557 OFFCURVE",
"345 557 CURVE SMOOTH"
);
},
{
closed = 1;
nodes = (
"255 30 OFFCURVE",
"180 78 OFFCURVE",
"146 160 CURVE",
"146 385 LINE",
"180 467 OFFCURVE",
"255 515 OFFCURVE",
"341 515 CURVE SMOOTH",
"466 515 OFFCURVE",
"547 420 OFFCURVE",
"547 272 CURVE SMOOTH",
"547 125 OFFCURVE",
"466 30 OFFCURVE",
"341 30 CURVE SMOOTH"
);
}
);
width = 650;
},
{
layerId = "8628BAC4-B70C-44D0-A849-1AF4E6A86A6D";
paths = (
{
closed = 1;
nodes = (
"307 569 OFFCURVE",
"249 543 OFFCURVE",
"211 503 CURVE",
"211 741 LINE",
"56 741 LINE",
"56 -178 LINE",
"211 -178 LINE",
"211 54 LINE",
"247 15 OFFCURVE",
"306 -12 OFFCURVE",
"371 -12 CURVE SMOOTH",
"516 -12 OFFCURVE",
"619 117 OFFCURVE",
"619 278 CURVE SMOOTH",
"619 440 OFFCURVE",
"516 569 OFFCURVE",
"371 569 CURVE SMOOTH"
);
},
{
closed = 1;
nodes = (
"275 116 OFFCURVE",
"230 154 OFFCURVE",
"211 212 CURVE",
"211 345 LINE",
"230 403 OFFCURVE",
"275 441 OFFCURVE",
"331 441 CURVE SMOOTH",
"408 441 OFFCURVE",
"463 369 OFFCURVE",
"463 278 CURVE SMOOTH",
"463 188 OFFCURVE",
"408 116 OFFCURVE",
"331 116 CURVE SMOOTH"
);
}
);
width = 650;
},
{
layerId = "CBDC2F8B-F278-480B-84CB-440443C6424E";
paths = (
{
closed = 1;
nodes = (
"342 576 OFFCURVE",
"288 555 OFFCURVE",
"250 520 CURVE",
"250 741 LINE",
"34 741 LINE",
"34 -178 LINE",
"250 -178 LINE",
"250 44 LINE",
"289 9 OFFCURVE",
"341 -12 OFFCURVE",
"396 -12 CURVE SMOOTH",
"538 -12 OFFCURVE",
"633 109 OFFCURVE",
"633 281 CURVE SMOOTH",
"633 455 OFFCURVE",
"538 576 OFFCURVE",
"396 576 CURVE SMOOTH"
);
},
{
closed = 1;
nodes = (
"294 163 OFFCURVE",
"263 188 OFFCURVE",
"250 228 CURVE",
"250 336 LINE",
"263 376 OFFCURVE",
"294 401 OFFCURVE",
"329 401 CURVE SMOOTH",
"383 401 OFFCURVE",
"418 353 OFFCURVE",
"418 281 CURVE SMOOTH",
"418 211 OFFCURVE",
"383 163 OFFCURVE",
"329 163 CURVE SMOOTH"
);
}
);
width = 650;
}
);
unicode = 00FE;
},
{
color = 6;
glyphname = q;
lastChange = "2021-05-25 15:15:03 +0000";
layers = (
{
anchors = (
{
name = bottom;
position = "{317, 0}";
},
{
name = top;
position = "{317, 544}";
}
);
layerId = "8A7F20D3-7375-4A55-82DC-0ADBCD41717D";
paths = (
{
closed = 1;
nodes = (
"159 556 OFFCURVE",
"58 446 OFFCURVE",
"58 272 CURVE SMOOTH",
"58 99 OFFCURVE",
"159 -12 OFFCURVE",
"307 -12 CURVE SMOOTH",
"394 -12 OFFCURVE",
"466 29 OFFCURVE",
"506 94 CURVE",
"506 -178 LINE",
"552 -178 LINE",
"552 544 LINE",
"511 544 LINE",
"508 448 LINE",
"468 513 OFFCURVE",
"395 556 OFFCURVE",
"307 556 CURVE SMOOTH"
);
},
{
closed = 1;
nodes = (
"186 30 OFFCURVE",
"105 125 OFFCURVE",
"105 272 CURVE SMOOTH",
"105 420 OFFCURVE",
"186 514 OFFCURVE",
"311 514 CURVE SMOOTH",
"397 514 OFFCURVE",
"472 466 OFFCURVE",
"506 385 CURVE",
"506 160 LINE",
"472 78 OFFCURVE",
"397 30 OFFCURVE",
"311 30 CURVE SMOOTH"
);
}
);
width = 650;
},
{
anchors = (
{
name = bottom;
position = "{337, 0}";
},
{
name = top;
position = "{337, 556}";
}
);
layerId = "8628BAC4-B70C-44D0-A849-1AF4E6A86A6D";
paths = (
{
closed = 1;
nodes = (
"134 568 OFFCURVE",
"31 440 OFFCURVE",
"31 278 CURVE SMOOTH",
"31 117 OFFCURVE",
"134 -12 OFFCURVE",
"279 -12 CURVE SMOOTH",
"343 -12 OFFCURVE",
"400 13 OFFCURVE",
"438 53 CURVE",
"438 -178 LINE",
"594 -178 LINE",
"594 556 LINE",
"443 556 LINE",
"440 502 LINE",
"402 543 OFFCURVE",
"345 568 OFFCURVE",
"279 568 CURVE SMOOTH"
);
},
{
closed = 1;
nodes = (
"242 116 OFFCURVE",
"187 188 OFFCURVE",
"187 278 CURVE SMOOTH",
"187 369 OFFCURVE",
"242 440 OFFCURVE",
"319 440 CURVE SMOOTH",
"374 440 OFFCURVE",
"419 404 OFFCURVE",
"438 348 CURVE",
"438 209 LINE",
"419 153 OFFCURVE",
"374 116 OFFCURVE",
"319 116 CURVE SMOOTH"
);
}
);
width = 650;
},
{
anchors = (
{
name = bottom;
position = "{348, 0}";
},
{
name = top;
position = "{348, 563}";
}
);
layerId = "CBDC2F8B-F278-480B-84CB-440443C6424E";
paths = (
{
closed = 1;
nodes = (
"112 575 OFFCURVE",
"17 455 OFFCURVE",
"17 281 CURVE SMOOTH",
"17 109 OFFCURVE",
"112 -12 OFFCURVE",
"254 -12 CURVE SMOOTH",
"309 -12 OFFCURVE",
"361 9 OFFCURVE",
"400 44 CURVE",
"400 -179 LINE",
"616 -179 LINE",
"616 563 LINE",
"405 563 LINE",
"402 517 LINE",
"362 554 OFFCURVE",
"309 575 OFFCURVE",
"254 575 CURVE SMOOTH"
);
},
{
closed = 1;
nodes = (
"267 163 OFFCURVE",
"232 211 OFFCURVE",
"232 281 CURVE SMOOTH",
"232 353 OFFCURVE",
"267 400 OFFCURVE",
"321 400 CURVE SMOOTH",
"356 400 OFFCURVE",
"387 375 OFFCURVE",
"400 336 CURVE",
"400 228 LINE",
"387 188 OFFCURVE",
"356 163 OFFCURVE",
"321 163 CURVE SMOOTH"
);
}
);
width = 650;
}
);
leftMetricsKey = "=o";
unicode = 0071;
},
{
color = 6;
glyphname = r;
lastChange = "2021-05-25 15:15:03 +0000";
layers = (
{
anchors = (
{
name = bottom;
position = "{157, 0}";
},
{
name = top;
position = "{342, 545}";
}
);
layerId = "8A7F20D3-7375-4A55-82DC-0ADBCD41717D";
paths = (
{
closed = 1;
nodes = (
"552 349 LINE",
"552 406 LINE SMOOTH",
"552 496 OFFCURVE",
"485 556 OFFCURVE",
"383 556 CURVE SMOOTH",
"272 556 OFFCURVE",
"189 482 OFFCURVE",
"154 345 CURVE",
"167 272 LINE",
"196 427 OFFCURVE",
"278 514 OFFCURVE",
"383 514 CURVE SMOOTH",
"460 514 OFFCURVE",
"506 471 OFFCURVE",
"506 406 CURVE SMOOTH",
"506 349 LINE"
);
},
{
closed = 1;
nodes = (
"179 0 LINE",
"179 394 LINE",
"172 544 LINE",
"133 544 LINE",
"133 0 LINE"
);
}
);
width = 650;
},
{
anchors = (
{
name = bottom;
position = "{151, 0}";
},
{
name = top;
position = "{348, 557}";
}
);
layerId = "8628BAC4-B70C-44D0-A849-1AF4E6A86A6D";
paths = (
{
closed = 1;
nodes = (
"600 278 LINE",
"600 353 LINE SMOOTH",
"600 494 OFFCURVE",
"514 568 OFFCURVE",
"395 568 CURVE SMOOTH",
"305 568 OFFCURVE",
"239 522 OFFCURVE",
"187 435 CURVE",
"203 304 LINE",
"251 403 OFFCURVE",
"304 438 OFFCURVE",
"364 438 CURVE SMOOTH",
"417 438 OFFCURVE",
"444 404 OFFCURVE",
"444 353 CURVE SMOOTH",
"444 278 LINE"
);
},
{
closed = 1;
nodes = (
"229 0 LINE",
"229 456 LINE",
"223 556 LINE",
"73 556 LINE",
"73 0 LINE"
);
}
);
width = 650;
},
{
anchors = (
{
name = bottom;
position = "{148, 0}";
},
{
name = top;
position = "{337, 564}";
}
);
layerId = "CBDC2F8B-F278-480B-84CB-440443C6424E";
paths = (
{
closed = 1;
nodes = (
"604 247 LINE",
"604 328 LINE SMOOTH",
"604 498 OFFCURVE",
"546 575 OFFCURVE",
"403 575 CURVE SMOOTH",
"316 575 OFFCURVE",
"273 530 OFFCURVE",
"219 462 CURVE",
"237 320 LINE",
"276 375 OFFCURVE",
"313 397 OFFCURVE",
"340 397 CURVE SMOOTH",
"376 397 OFFCURVE",
"388 372 OFFCURVE",
"388 328 CURVE SMOOTH",
"388 247 LINE"
);
},
{
closed = 1;
nodes = (
"258 0 LINE",
"258 490 LINE",
"253 563 LINE",
"42 563 LINE",
"42 0 LINE"
);
}
);
width = 650;
}
);
unicode = 0072;
},
{
color = 6;
glyphname = s;
lastChange = "2021-05-25 15:15:03 +0000";
layers = (
{
anchors = (
{
name = bottom;
position = "{334, 0}";
},
{
name = top;
position = "{330, 545}";
}
);
layerId = "8A7F20D3-7375-4A55-82DC-0ADBCD41717D";
paths = (
{
closed = 1;
nodes = (
"467 -12 OFFCURVE",
"550 45 OFFCURVE",
"550 137 CURVE SMOOTH",
"550 364 OFFCURVE",
"167 248 OFFCURVE",
"167 405 CURVE SMOOTH",
"167 462 OFFCURVE",
"219 514 OFFCURVE",
"324 514 CURVE SMOOTH",
"429 514 OFFCURVE",
"492 467 OFFCURVE",
"497 387 CURVE",
"543 387 LINE",
"539 489 OFFCURVE",
"457 556 OFFCURVE",
"325 556 CURVE SMOOTH",
"192 556 OFFCURVE",
"120 488 OFFCURVE",
"120 405 CURVE SMOOTH",
"120 206 OFFCURVE",
"503 313 OFFCURVE",
"503 139 CURVE SMOOTH",
"503 72 OFFCURVE",
"438 30 OFFCURVE",
"340 30 CURVE SMOOTH",
"233 30 OFFCURVE",
"161 92 OFFCURVE",
"158 194 CURVE",
"112 194 LINE",
"113 66 OFFCURVE",
"203 -12 OFFCURVE",
"340 -12 CURVE SMOOTH"
);
}
);
width = 650;
},
{
anchors = (
{
name = bottom;
position = "{323, 0}";
},
{
name = top;
position = "{334, 557}";
}
);
layerId = "8628BAC4-B70C-44D0-A849-1AF4E6A86A6D";
paths = (
{
closed = 1;
nodes = (
"488 -12 OFFCURVE",
"584 56 OFFCURVE",
"584 169 CURVE SMOOTH",
"584 388 OFFCURVE",
"245 306 OFFCURVE",
"245 403 CURVE SMOOTH",
"245 438 OFFCURVE",
"276 455 OFFCURVE",
"326 455 CURVE SMOOTH",
"384 455 OFFCURVE",
"425 429 OFFCURVE",
"428 380 CURVE",
"572 380 LINE",
"563 499 OFFCURVE",
"468 568 OFFCURVE",
"325 568 CURVE SMOOTH",
"184 568 OFFCURVE",
"88 500 OFFCURVE",
"88 394 CURVE SMOOTH",
"88 177 OFFCURVE",
"427 251 OFFCURVE",
"427 152 CURVE SMOOTH",
"427 120 OFFCURVE",
"391 101 OFFCURVE",
"338 101 CURVE SMOOTH",
"264 101 OFFCURVE",
"219 138 OFFCURVE",
"222 199 CURVE",
"77 199 LINE",
"79 68 OFFCURVE",
"182 -12 OFFCURVE",
"339 -12 CURVE SMOOTH"
);
}
);
width = 650;
},
{
anchors = (
{
name = bottom;
position = "{319, 0}";
},
{
name = top;
position = "{325, 563}";
}
);
layerId = "CBDC2F8B-F278-480B-84CB-440443C6424E";
paths = (
{
closed = 1;
nodes = (
"492 -12 OFFCURVE",
"592 61 OFFCURVE",
"592 183 CURVE SMOOTH",
"592 410 OFFCURVE",
"270 333 OFFCURVE",
"270 401 CURVE SMOOTH",
"270 417 OFFCURVE",
"287 429 OFFCURVE",
"322 429 CURVE SMOOTH",
"368 429 OFFCURVE",
"389 414 OFFCURVE",
"392 387 CURVE",
"580 387 LINE",
"573 502 OFFCURVE",
"478 575 OFFCURVE",
"325 575 CURVE SMOOTH",
"168 575 OFFCURVE",
"68 500 OFFCURVE",
"68 387 CURVE SMOOTH",
"68 171 OFFCURVE",
"390 241 OFFCURVE",
"390 166 CURVE SMOOTH",
"390 146 OFFCURVE",
"363 134 OFFCURVE",
"327 134 CURVE SMOOTH",
"275 134 OFFCURVE",
"243 150 OFFCURVE",
"243 185 CURVE",
"55 185 LINE",
"55 62 OFFCURVE",
"167 -12 OFFCURVE",
"333 -12 CURVE SMOOTH"
);
}
);
width = 650;
}
);
unicode = 0073;
},
{
color = 6;
glyphname = germandbls;
lastChange = "2021-05-25 15:15:03 +0000";
layers = (
{
layerId = "8A7F20D3-7375-4A55-82DC-0ADBCD41717D";
paths = (
{
closed = 1;
nodes = (
"483 -14 OFFCURVE",
"592 57 OFFCURVE",
"592 192 CURVE SMOOTH",
"592 308 OFFCURVE",
"511 390 OFFCURVE",
"388 398 CURVE",
"402 380 LINE",
"474 404 OFFCURVE",
"531 465 OFFCURVE",
"531 551 CURVE SMOOTH",
"531 642 OFFCURVE",
"460 731 OFFCURVE",
"326 731 CURVE SMOOTH",
"192 731 OFFCURVE",
"101 641 OFFCURVE",
"101 498 CURVE SMOOTH",
"101 0 LINE",
"147 0 LINE",
"147 498 LINE SMOOTH",
"147 613 OFFCURVE",
"220 689 OFFCURVE",
"327 689 CURVE SMOOTH",
"430 689 OFFCURVE",
"484 618 OFFCURVE",
"484 548 CURVE SMOOTH",
"484 468 OFFCURVE",
"422 405 OFFCURVE",
"338 405 CURVE SMOOTH",
"230 405 LINE",
"230 363 LINE",
"338 363 LINE SMOOTH",
"460 363 OFFCURVE",
"545 303 OFFCURVE",
"545 194 CURVE SMOOTH",
"545 81 OFFCURVE",
"454 28 OFFCURVE",
"344 28 CURVE SMOOTH",
"306 28 OFFCURVE",
"261 34 OFFCURVE",
"230 45 CURVE",
"230 3 LINE",
"261 -8 OFFCURVE",
"305 -14 OFFCURVE",
"346 -14 CURVE SMOOTH"
);
}
);
width = 650;
},
{
layerId = "8628BAC4-B70C-44D0-A849-1AF4E6A86A6D";
paths = (
{
closed = 1;
nodes = (
"524 -12 OFFCURVE",
"631 76 OFFCURVE",
"631 210 CURVE SMOOTH",
"631 319 OFFCURVE",
"561 404 OFFCURVE",
"445 407 CURVE",
"447 373 LINE",
"526 395 OFFCURVE",
"579 453 OFFCURVE",
"579 537 CURVE SMOOTH",
"579 652 OFFCURVE",
"480 741 OFFCURVE",
"323 741 CURVE SMOOTH",
"148 741 OFFCURVE",
"45 630 OFFCURVE",
"45 484 CURVE SMOOTH",
"45 0 LINE",
"200 0 LINE",
"200 484 LINE SMOOTH",
"200 559 OFFCURVE",
"247 616 OFFCURVE",
"322 616 CURVE SMOOTH",
"377 616 OFFCURVE",
"425 586 OFFCURVE",
"425 529 CURVE SMOOTH",
"425 477 OFFCURVE",
"393 443 OFFCURVE",
"328 443 CURVE SMOOTH",
"260 443 LINE",
"260 317 LINE",
"340 317 LINE SMOOTH",
"423 317 OFFCURVE",
"475 277 OFFCURVE",
"475 215 CURVE SMOOTH",
"475 153 OFFCURVE",
"423 114 OFFCURVE",
"348 114 CURVE SMOOTH",
"318 114 OFFCURVE",
"279 120 OFFCURVE",
"260 129 CURVE",
"260 2 LINE",
"296 -8 OFFCURVE",
"331 -12 OFFCURVE",
"357 -12 CURVE SMOOTH"
);
}
);
width = 650;
},
{
layerId = "CBDC2F8B-F278-480B-84CB-440443C6424E";
paths = (
{
closed = 1;
nodes = (
"545 -11 OFFCURVE",
"642 86 OFFCURVE",
"642 220 CURVE SMOOTH",
"642 316 OFFCURVE",
"573 409 OFFCURVE",
"438 411 CURVE",
"441 370 LINE",
"524 391 OFFCURVE",
"589 447 OFFCURVE",
"589 529 CURVE SMOOTH",
"589 657 OFFCURVE",
"490 741 OFFCURVE",
"321 741 CURVE SMOOTH",
"124 741 OFFCURVE",
"16 624 OFFCURVE",
"16 476 CURVE SMOOTH",
"16 0 LINE",
"232 0 LINE",
"232 482 LINE SMOOTH",
"232 538 OFFCURVE",
"262 574 OFFCURVE",
"309 574 CURVE SMOOTH",
"350 574 OFFCURVE",
"376 552 OFFCURVE",
"376 518 CURVE SMOOTH",
"376 479 OFFCURVE",
"351 454 OFFCURVE",
"312 454 CURVE SMOOTH",
"276 454 LINE",
"276 311 LINE",
"330 311 LINE SMOOTH",
"391 311 OFFCURVE",
"427 284 OFFCURVE",
"427 238 CURVE SMOOTH",
"427 190 OFFCURVE",
"394 161 OFFCURVE",
"340 161 CURVE SMOOTH",
"307 161 OFFCURVE",
"292 168 OFFCURVE",
"276 175 CURVE",
"276 1 LINE",
"309 -7 OFFCURVE",
"335 -11 OFFCURVE",
"362 -11 CURVE SMOOTH"
);
}
);
width = 650;
}
);
unicode = 00DF;
},
{
color = 6;
glyphname = t;
lastChange = "2021-05-25 15:15:03 +0000";
layers = (
{
anchors = (
{
name = bottom;
position = "{392, 0}";
},
{
name = center;
position = "{280, 297}";
},
{
name = topright;
position = "{362, 545}";
}
);
layerId = "8A7F20D3-7375-4A55-82DC-0ADBCD41717D";
paths = (
{
closed = 1;
nodes = (
"570 0 LINE",
"570 38 LINE",
"381 38 LINE SMOOTH",
"296 38 OFFCURVE",
"284 89 OFFCURVE",
"284 136 CURVE SMOOTH",
"284 699 LINE",
"238 659 LINE",
"238 136 LINE SMOOTH",
"238 47 OFFCURVE",
"276 0 OFFCURVE",
"370 0 CURVE SMOOTH"
);
},
{
closed = 1;
nodes = (
"494 506 LINE",
"494 544 LINE",
"88 544 LINE",
"88 506 LINE"
);
}
);
width = 650;
},
{
anchors = (
{
name = bottom;
position = "{372, 0}";
},
{
name = center;
position = "{286, 293}";
},
{
name = topright;
position = "{428, 557}";
}
);
layerId = "8628BAC4-B70C-44D0-A849-1AF4E6A86A6D";
paths = (
{
closed = 1;
nodes = (
"573 0 LINE",
"573 126 LINE",
"432 126 LINE SMOOTH",
"357 126 OFFCURVE",
"339 148 OFFCURVE",
"339 200 CURVE SMOOTH",
"339 719 LINE",
"183 649 LINE",
"183 200 LINE SMOOTH",
"183 83 OFFCURVE",
"257 0 OFFCURVE",
"370 0 CURVE SMOOTH"
);
},
{
closed = 1;
nodes = (
"474 430 LINE",
"474 556 LINE",
"73 556 LINE",
"73 430 LINE"
);
}
);
width = 650;
},
{
anchors = (
{
name = bottom;
position = "{362, 0}";
},
{
name = center;
position = "{290, 292}";
},
{
name = topright;
position = "{472, 564}";
}
);
layerId = "CBDC2F8B-F278-480B-84CB-440443C6424E";
paths = (
{
closed = 1;
nodes = (
"587 0 LINE",
"587 172 LINE",
"455 172 LINE SMOOTH",
"396 172 OFFCURVE",
"363 171 OFFCURVE",
"363 233 CURVE SMOOTH",
"363 760 LINE",
"147 674 LINE",
"147 215 LINE SMOOTH",
"147 66 OFFCURVE",
"238 0 OFFCURVE",
"366 0 CURVE SMOOTH"
);
},
{
closed = 1;
nodes = (
"503 391 LINE",
"503 563 LINE",
"37 563 LINE",
"37 391 LINE"
);
}
);
width = 650;
}
);
unicode = 0074;
},
{
color = 3;
glyphname = tbar;
lastChange = "2021-05-25 15:15:03 +0000";
layers = (
{
components = (
{
name = t;
}
);
layerId = "8A7F20D3-7375-4A55-82DC-0ADBCD41717D";
paths = (
{
closed = 1;
nodes = (
"497 278 LINE",
"497 314 LINE",
"89 314 LINE",
"89 278 LINE"
);
}
);
width = 650;
},
{
components = (
{
name = t;
}
);
layerId = "8628BAC4-B70C-44D0-A849-1AF4E6A86A6D";
paths = (
{
closed = 1;
nodes = (
"475 243 LINE",
"475 343 LINE",
"80 343 LINE",
"80 243 LINE"
);
}
);
width = 650;
},
{
components = (
{
name = t;
}
);
layerId = "CBDC2F8B-F278-480B-84CB-440443C6424E";
paths = (
{
closed = 1;
nodes = (
"494 235 LINE",
"494 345 LINE",
"50 345 LINE",
"50 235 LINE"
);
}
);
width = 650;
}
);
unicode = 0167;
},
{
color = 6;
glyphname = v;
lastChange = "2021-05-25 15:15:03 +0000";
layers = (
{
anchors = (
{
name = bottom;
position = "{323, 0}";
},
{
name = top;
position = "{323, 545}";
}
);
layerId = "8A7F20D3-7375-4A55-82DC-0ADBCD41717D";
paths = (
{
closed = 1;
nodes = (
"349 0 LINE",
"580 544 LINE",
"531 544 LINE",
"369 163 LINE",
"325 49 LINE",
"281 163 LINE",
"119 544 LINE",
"69 544 LINE",
"300 0 LINE"
);
}
);
width = 650;
},
{
anchors = (
{
name = bottom;
position = "{325, 0}";
},
{
name = top;
position = "{325, 557}";
}
);
layerId = "8628BAC4-B70C-44D0-A849-1AF4E6A86A6D";
paths = (
{
closed = 1;
nodes = (
"415 0 LINE",
"612 556 LINE",
"454 556 LINE",
"363 274 LINE",
"327 136 LINE",
"293 274 LINE",
"200 556 LINE",
"37 556 LINE",
"235 0 LINE"
);
}
);
width = 650;
},
{
anchors = (
{
name = bottom;
position = "{325, 0}";
},
{
name = top;
position = "{325, 564}";
}
);
layerId = "CBDC2F8B-F278-480B-84CB-440443C6424E";
paths = (
{
closed = 1;
nodes = (
"451 0 LINE",
"638 563 LINE",
"415 563 LINE",
"356 334 LINE",
"326 181 LINE",
"299 334 LINE",
"238 563 LINE",
"9 563 LINE",
"197 0 LINE"
);
}
);
width = 650;
}
);
unicode = 0076;
},
{
color = 6;
glyphname = w;
lastChange = "2021-05-25 15:15:03 +0000";
layers = (
{
anchors = (
{
name = top;
position = "{326, 545}";
}
);
layerId = "8A7F20D3-7375-4A55-82DC-0ADBCD41717D";
paths = (
{
closed = 1;
nodes = (
"192 0 LINE",
"290 342 LINE",
"327 482 LINE",
"363 342 LINE",
"460 0 LINE",
"519 0 LINE",
"626 545 LINE",
"583 545 LINE",
"516 204 LINE",
"488 53 LINE",
"448 204 LINE",
"347 545 LINE",
"306 545 LINE",
"207 204 LINE",
"166 53 LINE",
"136 204 LINE",
"69 545 LINE",
"25 545 LINE",
"131 0 LINE"
);
}
);
width = 650;
},
{
anchors = (
{
name = top;
position = "{326, 557}";
}
);
layerId = "8628BAC4-B70C-44D0-A849-1AF4E6A86A6D";
paths = (
{
closed = 1;
nodes = (
"270 0 LINE",
"314 259 LINE",
"325 416 LINE",
"335 259 LINE",
"381 0 LINE",
"560 0 LINE",
"633 557 LINE",
"499 557 LINE",
"469 274 LINE",
"459 153 LINE",
"443 274 LINE",
"395 557 LINE",
"257 557 LINE",
"214 274 LINE",
"198 156 LINE",
"189 274 LINE",
"158 557 LINE",
"17 557 LINE",
"93 0 LINE"
);
}
);
width = 650;
},
{
anchors = (
{
name = top;
position = "{326, 568}";
}
);
layerId = "CBDC2F8B-F278-480B-84CB-440443C6424E";
paths = (
{
closed = 1;
nodes = (
"276 0 LINE",
"318 289 LINE",
"325 405 LINE",
"331 289 LINE",
"375 0 LINE",
"568 0 LINE",
"642 563 LINE",
"479 563 LINE",
"454 291 LINE",
"448 174 LINE",
"442 291 LINE",
"406 563 LINE",
"246 563 LINE",
"215 282 LINE",
"210 174 LINE",
"205 282 LINE",
"179 563 LINE",
"7 563 LINE",
"85 0 LINE"
);
}
);
width = 650;
},
{
anchors = (
{
name = top;
position = "{326, 555}";
}
);
associatedMasterId = "8A7F20D3-7375-4A55-82DC-0ADBCD41717D";
background = {
anchors = (
{
name = top;
position = "{422, 544}";
}
);
paths = (
{
closed = 1;
nodes = (
"258 0 LINE",
"385 363 LINE",
"421 487 LINE",
"458 363 LINE",
"583 0 LINE",
"620 0 LINE",
"813 544 LINE",
"768 544 LINE",
"645 194 LINE",
"603 55 LINE",
"561 194 LINE",
"440 544 LINE",
"404 544 LINE",
"282 194 LINE",
"241 56 LINE",
"200 194 LINE",
"77 544 LINE",
"30 544 LINE",
"222 0 LINE"
);
}
);
};
layerId = "17314AB1-33A3-411F-B36F-B007E95AD387";
name = "{500}";
paths = (
{
closed = 1;
nodes = (
"244 0 LINE",
"307 289 LINE",
"326 440 LINE",
"344 289 LINE",
"408 0 LINE",
"547 0 LINE",
"632 554 LINE",
"526 554 LINE",
"484 252 LINE",
"468 122 LINE",
"444 252 LINE",
"380 554 LINE",
"273 554 LINE",
"212 252 LINE",
"189 124 LINE",
"172 252 LINE",
"130 554 LINE",
"19 554 LINE",
"105 0 LINE"
);
}
);
width = 650;
}
);
unicode = 0077;
},
{
color = 6;
glyphname = x;
lastChange = "2021-05-25 15:15:03 +0000";
layers = (
{
anchors = (
{
name = bottom;
position = "{325, 0}";
},
{
name = top;
position = "{325, 545}";
}
);
layerId = "8A7F20D3-7375-4A55-82DC-0ADBCD41717D";
paths = (
{
closed = 1;
nodes = (
"547 544 LINE",
"492 544 LINE",
"406 431 LINE",
"323 317 LINE",
"240 430 LINE",
"154 544 LINE",
"98 544 LINE",
"297 283 LINE",
"86 0 LINE",
"141 0 LINE",
"242 135 LINE",
"325 250 LINE",
"407 136 LINE",
"508 0 LINE",
"565 0 LINE",
"352 284 LINE"
);
}
);
width = 650;
},
{
anchors = (
{
name = bottom;
position = "{325, 0}";
},
{
name = top;
position = "{325, 557}";
}
);
layerId = "8628BAC4-B70C-44D0-A849-1AF4E6A86A6D";
paths = (
{
closed = 1;
nodes = (
"592 556 LINE",
"422 556 LINE",
"401 525 LINE",
"324 397 LINE",
"247 525 LINE",
"226 556 LINE",
"53 556 LINE",
"228 283 LINE",
"46 0 LINE",
"215 0 LINE",
"245 45 LINE",
"322 172 LINE",
"399 45 LINE",
"429 0 LINE",
"603 0 LINE",
"419 286 LINE"
);
}
);
width = 650;
},
{
anchors = (
{
name = bottom;
position = "{327, 0}";
},
{
name = top;
position = "{327, 563}";
}
);
layerId = "CBDC2F8B-F278-480B-84CB-440443C6424E";
paths = (
{
closed = 1;
nodes = (
"624 563 LINE",
"393 563 LINE",
"359 503 LINE",
"328 417 LINE",
"294 505 LINE",
"261 563 LINE",
"23 563 LINE",
"194 284 LINE",
"18 0 LINE",
"258 0 LINE",
"297 68 LINE",
"327 152 LINE",
"355 68 LINE",
"393 0 LINE",
"632 0 LINE",
"458 284 LINE"
);
}
);
width = 650;
}
);
unicode = 0078;
},
{
color = 6;
glyphname = y;
lastChange = "2021-05-25 15:15:03 +0000";
layers = (
{
anchors = (
{
name = top;
position = "{323, 545}";
}
);
layerId = "8A7F20D3-7375-4A55-82DC-0ADBCD41717D";
paths = (
{
closed = 1;
nodes = (
"123 544 LINE",
"72 544 LINE",
"301 9 LINE",
"280 -41 LINE SMOOTH",
"243 -129 OFFCURVE",
"220 -152 OFFCURVE",
"172 -152 CURVE SMOOTH",
"77 -152 LINE",
"77 -190 LINE",
"169 -190 LINE SMOOTH",
"239 -190 OFFCURVE",
"276 -169 OFFCURVE",
"316 -75 CURVE SMOOTH",
"580 544 LINE",
"530 544 LINE",
"381 194 LINE",
"327 62 LINE",
"273 193 LINE"
);
}
);
width = 650;
},
{
anchors = (
{
name = top;
position = "{328, 557}";
}
);
layerId = "8628BAC4-B70C-44D0-A849-1AF4E6A86A6D";
paths = (
{
closed = 1;
nodes = (
"195 556 LINE",
"35 556 LINE",
"245 55 LINE",
"235 32 LINE SMOOTH",
"211 -22 OFFCURVE",
"182 -64 OFFCURVE",
"127 -64 CURVE SMOOTH",
"41 -64 LINE",
"41 -190 LINE",
"144 -190 LINE SMOOTH",
"250 -190 OFFCURVE",
"318 -147 OFFCURVE",
"369 -27 CURVE SMOOTH",
"615 556 LINE",
"456 556 LINE",
"375 363 LINE",
"324 220 LINE",
"274 363 LINE"
);
}
);
width = 650;
},
{
anchors = (
{
name = top;
position = "{330, 564}";
}
);
layerId = "CBDC2F8B-F278-480B-84CB-440443C6424E";
paths = (
{
closed = 1;
nodes = (
"234 563 LINE",
"11 563 LINE",
"205 71 LINE",
"201 63 LINE SMOOTH",
"186 33 OFFCURVE",
"161 -16 OFFCURVE",
"100 -16 CURVE SMOOTH",
"12 -16 LINE",
"12 -190 LINE",
"118 -190 LINE SMOOTH",
"247 -190 OFFCURVE",
"361 -135 OFFCURVE",
"415 -1 CURVE SMOOTH",
"640 563 LINE",
"417 563 LINE",
"364 412 LINE",
"325 269 LINE",
"288 413 LINE"
);
}
);
width = 650;
}
);
unicode = 0079;
},
{
color = 6;
glyphname = z;
lastChange = "2021-05-25 15:15:03 +0000";
layers = (
{
anchors = (
{
name = top;
position = "{323, 545}";
}
);
layerId = "8A7F20D3-7375-4A55-82DC-0ADBCD41717D";
paths = (
{
closed = 1;
nodes = (
"558 0 LINE",
"558 38 LINE",
"291 38 LINE",
"153 37 LINE",
"245 143 LINE",
"558 510 LINE",
"558 544 LINE",
"113 544 LINE",
"113 506 LINE",
"363 506 LINE",
"500 507 LINE",
"411 402 LINE",
"96 34 LINE",
"96 0 LINE"
);
}
);
width = 650;
},
{
anchors = (
{
name = top;
position = "{325, 557}";
}
);
layerId = "8628BAC4-B70C-44D0-A849-1AF4E6A86A6D";
paths = (
{
closed = 1;
nodes = (
"565 0 LINE",
"565 126 LINE",
"417 126 LINE",
"266 125 LINE",
"371 228 LINE",
"565 445 LINE",
"565 556 LINE",
"97 556 LINE",
"97 430 LINE",
"230 430 LINE",
"381 431 LINE",
"276 328 LINE",
"85 113 LINE",
"85 0 LINE"
);
}
);
width = 650;
},
{
anchors = (
{
name = top;
position = "{324, 564}";
}
);
layerId = "CBDC2F8B-F278-480B-84CB-440443C6424E";
paths = (
{
closed = 1;
nodes = (
"583 0 LINE",
"583 174 LINE",
"491 174 LINE",
"330 174 LINE",
"419 242 LINE",
"583 410 LINE",
"583 563 LINE",
"76 563 LINE",
"76 389 LINE",
"157 389 LINE",
"308 389 LINE",
"236 330 LINE",
"67 156 LINE",
"67 0 LINE"
);
}
);
width = 650;
}
);
unicode = 007A;
},
{
color = 6;
glyphname = a.ss01;
lastChange = "2021-05-25 15:15:03 +0000";
layers = (
{
anchors = (
{
name = ogonek;
position = "{550, 0}";
},
{
name = top;
position = "{324, 545}";
}
);
layerId = "8A7F20D3-7375-4A55-82DC-0ADBCD41717D";
paths = (
{
closed = 1;
nodes = (
"550 545 LINE",
"509 545 LINE",
"504 395 LINE",
"504 150 LINE",
"509 0 LINE",
"550 0 LINE"
);
},
{
closed = 1;
nodes = (
"426 -12 OFFCURVE",
"518 68 OFFCURVE",
"535 180 CURVE",
"535 365 LINE",
"518 477 OFFCURVE",
"426 557 OFFCURVE",
"305 557 CURVE SMOOTH",
"157 557 OFFCURVE",
"56 446 OFFCURVE",
"56 272 CURVE SMOOTH",
"56 99 OFFCURVE",
"157 -12 OFFCURVE",
"305 -12 CURVE SMOOTH"
);
},
{
closed = 1;
nodes = (
"184 30 OFFCURVE",
"103 125 OFFCURVE",
"103 272 CURVE SMOOTH",
"103 420 OFFCURVE",
"184 515 OFFCURVE",
"309 515 CURVE SMOOTH",
"430 515 OFFCURVE",
"525 422 OFFCURVE",
"525 272 CURVE SMOOTH",
"525 124 OFFCURVE",
"430 30 OFFCURVE",
"309 30 CURVE SMOOTH"
);
}
);
width = 650;
},
{
anchors = (
{
name = ogonek;
position = "{568, 0}";
},
{
name = top;
position = "{327, 557}";
}
);
layerId = "8628BAC4-B70C-44D0-A849-1AF4E6A86A6D";
paths = (
{
closed = 1;
nodes = (
"594 557 LINE",
"443 557 LINE",
"438 457 LINE",
"438 100 LINE",
"443 0 LINE",
"594 0 LINE"
);
},
{
closed = 1;
nodes = (
"386 -12 OFFCURVE",
"471 59 OFFCURVE",
"489 148 CURVE",
"489 409 LINE",
"471 498 OFFCURVE",
"386 569 OFFCURVE",
"279 569 CURVE SMOOTH",
"134 569 OFFCURVE",
"31 440 OFFCURVE",
"31 278 CURVE SMOOTH",
"31 117 OFFCURVE",
"134 -12 OFFCURVE",
"279 -12 CURVE SMOOTH"
);
},
{
closed = 1;
nodes = (
"242 116 OFFCURVE",
"187 188 OFFCURVE",
"187 278 CURVE SMOOTH",
"187 369 OFFCURVE",
"242 441 OFFCURVE",
"319 441 CURVE SMOOTH",
"395 441 OFFCURVE",
"449 371 OFFCURVE",
"449 278 CURVE SMOOTH",
"449 186 OFFCURVE",
"395 116 OFFCURVE",
"319 116 CURVE SMOOTH"
);
}
);
width = 650;
},
{
anchors = (
{
name = ogonek;
position = "{540, 0}";
},
{
name = top;
position = "{329, 564}";
}
);
layerId = "CBDC2F8B-F278-480B-84CB-440443C6424E";
paths = (
{
closed = 1;
nodes = (
"616 564 LINE",
"405 564 LINE",
"400 491 LINE",
"400 72 LINE",
"405 0 LINE",
"616 0 LINE"
);
},
{
closed = 1;
nodes = (
"350 -12 OFFCURVE",
"435 51 OFFCURVE",
"464 146 CURVE",
"464 418 LINE",
"435 513 OFFCURVE",
"350 576 OFFCURVE",
"254 576 CURVE SMOOTH",
"112 576 OFFCURVE",
"17 455 OFFCURVE",
"17 282 CURVE SMOOTH",
"17 109 OFFCURVE",
"112 -12 OFFCURVE",
"254 -12 CURVE SMOOTH"
);
},
{
closed = 1;
nodes = (
"267 163 OFFCURVE",
"232 211 OFFCURVE",
"232 282 CURVE SMOOTH",
"232 353 OFFCURVE",
"267 401 OFFCURVE",
"321 401 CURVE SMOOTH",
"371 401 OFFCURVE",
"408 353 OFFCURVE",
"408 282 CURVE SMOOTH",
"408 211 OFFCURVE",
"371 163 OFFCURVE",
"321 163 CURVE SMOOTH"
);
}
);
width = 650;
}
);
category = Letter;
subCategory = "";
},
{
color = 6;
glyphname = ae.ss01;
lastChange = "2021-05-25 15:15:03 +0000";
layers = (
{
anchors = (
{
name = bottom;
position = "{325, 0}";
},
{
name = top;
position = "{317, 545}";
}
);
layerId = "8A7F20D3-7375-4A55-82DC-0ADBCD41717D";
paths = (
{
closed = 1;
nodes = (
"337 544 LINE",
"289 544 LINE",
"291 385 LINE",
"291 157 LINE",
"289 0 LINE",
"337 0 LINE"
);
},
{
closed = 1;
nodes = (
"245 -12 OFFCURVE",
"299 64 OFFCURVE",
"310 180 CURVE",
"310 365 LINE",
"299 481 OFFCURVE",
"245 556 OFFCURVE",
"172 556 CURVE SMOOTH",
"76 556 OFFCURVE",
"13 444 OFFCURVE",
"13 272 CURVE SMOOTH",
"13 100 OFFCURVE",
"76 -12 OFFCURVE",
"172 -12 CURVE SMOOTH"
);
},
{
closed = 1;
nodes = (
"103 30 OFFCURVE",
"60 125 OFFCURVE",
"60 272 CURVE SMOOTH",
"60 419 OFFCURVE",
"103 515 OFFCURVE",
"177 515 CURVE SMOOTH",
"247 515 OFFCURVE",
"297 419 OFFCURVE",
"297 272 CURVE SMOOTH",
"297 125 OFFCURVE",
"247 30 OFFCURVE",
"177 30 CURVE SMOOTH"
);
},
{
closed = 1;
nodes = (
"557 -12 OFFCURVE",
"628 60 OFFCURVE",
"640 175 CURVE",
"596 175 LINE",
"586 85 OFFCURVE",
"527 28 OFFCURVE",
"467 28 CURVE SMOOTH",
"382 28 OFFCURVE",
"337 123 OFFCURVE",
"337 274 CURVE SMOOTH",
"337 421 OFFCURVE",
"398 515 OFFCURVE",
"476 515 CURVE SMOOTH",
"543 515 OFFCURVE",
"587 466 OFFCURVE",
"590 367 CURVE",
"333 369 LINE",
"332 327 LINE",
"635 327 LINE",
"641 477 OFFCURVE",
"578 556 OFFCURVE",
"477 556 CURVE SMOOTH",
"361 556 OFFCURVE",
"304 449 OFFCURVE",
"304 273 CURVE SMOOTH",
"304 97 OFFCURVE",
"351 -12 OFFCURVE",
"466 -12 CURVE SMOOTH"
);
}
);
width = 650;
},
{
anchors = (
{
name = bottom;
position = "{325, 0}";
},
{
name = top;
position = "{310, 555}";
}
);
layerId = "8628BAC4-B70C-44D0-A849-1AF4E6A86A6D";
paths = (
{
closed = 1;
nodes = (
"361 556 LINE",
"258 556 LINE",
"252 443 LINE",
"252 111 LINE",
"258 0 LINE",
"361 0 LINE"
);
},
{
closed = 1;
nodes = (
"227 -12 OFFCURVE",
"270 50 OFFCURVE",
"287 144 CURVE",
"287 410 LINE",
"271 502 OFFCURVE",
"228 568 OFFCURVE",
"157 568 CURVE SMOOTH",
"69 568 OFFCURVE",
"7 440 OFFCURVE",
"7 277 CURVE SMOOTH",
"7 115 OFFCURVE",
"69 -12 OFFCURVE",
"157 -12 CURVE SMOOTH"
);
},
{
closed = 1;
nodes = (
"171 119 OFFCURVE",
"149 168 OFFCURVE",
"149 277 CURVE SMOOTH",
"149 386 OFFCURVE",
"171 435 OFFCURVE",
"200 435 CURVE SMOOTH",
"233 435 OFFCURVE",
"258 386 OFFCURVE",
"258 277 CURVE SMOOTH",
"258 168 OFFCURVE",
"233 119 OFFCURVE",
"200 119 CURVE SMOOTH"
);
},
{
closed = 1;
nodes = (
"536 -12 OFFCURVE",
"624 55 OFFCURVE",
"628 191 CURVE",
"496 191 LINE",
"490 134 OFFCURVE",
"465 114 OFFCURVE",
"444 114 CURVE SMOOTH",
"412 114 OFFCURVE",
"381 153 OFFCURVE",
"381 272 CURVE SMOOTH",
"381 393 OFFCURVE",
"399 450 OFFCURVE",
"440 450 CURVE SMOOTH",
"461 450 OFFCURVE",
"484 431 OFFCURVE",
"485 362 CURVE",
"378 362 LINE",
"374 257 LINE",
"632 257 LINE",
"648 440 OFFCURVE",
"592 568 OFFCURVE",
"455 568 CURVE SMOOTH",
"346 568 OFFCURVE",
"319 439 OFFCURVE",
"311 277 CURVE",
"319 112 OFFCURVE",
"346 -12 OFFCURVE",
"450 -12 CURVE SMOOTH"
);
}
);
width = 650;
},
{
anchors = (
{
name = bottom;
position = "{325, 0}";
},
{
name = top;
position = "{305, 564}";
}
);
layerId = "CBDC2F8B-F278-480B-84CB-440443C6424E";
paths = (
{
closed = 1;
nodes = (
"361 563 LINE",
"258 563 LINE",
"252 450 LINE",
"252 111 LINE",
"258 0 LINE",
"361 0 LINE"
);
},
{
closed = 1;
nodes = (
"227 -12 OFFCURVE",
"270 50 OFFCURVE",
"287 144 CURVE",
"287 411 LINE",
"271 509 OFFCURVE",
"228 575 OFFCURVE",
"157 575 CURVE SMOOTH",
"69 575 OFFCURVE",
"7 440 OFFCURVE",
"7 277 CURVE SMOOTH",
"7 115 OFFCURVE",
"69 -12 OFFCURVE",
"157 -12 CURVE SMOOTH"
);
},
{
closed = 1;
nodes = (
"179 156 OFFCURVE",
"159 204 OFFCURVE",
"159 277 CURVE SMOOTH",
"159 356 OFFCURVE",
"179 407 OFFCURVE",
"210 407 CURVE SMOOTH",
"245 407 OFFCURVE",
"258 356 OFFCURVE",
"258 277 CURVE SMOOTH",
"258 204 OFFCURVE",
"245 156 OFFCURVE",
"210 156 CURVE SMOOTH"
);
},
{
closed = 1;
nodes = (
"547 -12 OFFCURVE",
"628 67 OFFCURVE",
"632 195 CURVE",
"478 195 LINE",
"475 141 OFFCURVE",
"449 135 OFFCURVE",
"438 135 CURVE SMOOTH",
"416 135 OFFCURVE",
"383 163 OFFCURVE",
"383 282 CURVE SMOOTH",
"383 404 OFFCURVE",
"405 441 OFFCURVE",
"432 441 CURVE SMOOTH",
"453 441 OFFCURVE",
"466 417 OFFCURVE",
"467 368 CURVE",
"378 366 LINE",
"374 257 LINE",
"637 257 LINE",
"653 440 OFFCURVE",
"592 575 OFFCURVE",
"455 575 CURVE SMOOTH",
"346 575 OFFCURVE",
"279 446 OFFCURVE",
"271 277 CURVE",
"279 112 OFFCURVE",
"336 -12 OFFCURVE",
"440 -12 CURVE SMOOTH"
);
}
);
width = 650;
}
);
category = Letter;
subCategory = "";
},
{
color = 6;
glyphname = a.ss02;
lastChange = "2021-05-25 15:15:03 +0000";
layers = (
{
anchors = (
{
name = bottom;
position = "{305, 0}";
},
{
name = ogonek;
position = "{536, 0}";
},
{
name = top;
position = "{305, 545}";
}
);
layerId = "8A7F20D3-7375-4A55-82DC-0ADBCD41717D";
paths = (
{
closed = 1;
nodes = (
"536 0 LINE",
"536 403 LINE SMOOTH",
"536 512 OFFCURVE",
"480 544 OFFCURVE",
"399 544 CURVE SMOOTH",
"79 544 LINE",
"79 506 LINE",
"400 506 LINE SMOOTH",
"468 506 OFFCURVE",
"490 469 OFFCURVE",
"490 409 CURVE SMOOTH",
"490 317 LINE",
"223 317 LINE SMOOTH",
"137 317 OFFCURVE",
"79 257 OFFCURVE",
"79 170 CURVE SMOOTH",
"79 146 LINE SMOOTH",
"79 60 OFFCURVE",
"137 0 OFFCURVE",
"223 0 CURVE SMOOTH"
);
},
{
closed = 1;
nodes = (
"165 38 OFFCURVE",
"125 82 OFFCURVE",
"125 145 CURVE SMOOTH",
"125 171 LINE SMOOTH",
"125 235 OFFCURVE",
"165 279 OFFCURVE",
"225 279 CURVE SMOOTH",
"490 279 LINE",
"490 38 LINE",
"225 38 LINE SMOOTH"
);
}
);
width = 650;
},
{
anchors = (
{
name = bottom;
position = "{303, 0}";
},
{
name = ogonek;
position = "{567, 0}";
},
{
name = top;
position = "{303, 557}";
}
);
layerId = "8628BAC4-B70C-44D0-A849-1AF4E6A86A6D";
paths = (
{
closed = 1;
nodes = (
"567 0 LINE",
"567 391 LINE SMOOTH",
"567 491 OFFCURVE",
"502 556 OFFCURVE",
"402 556 CURVE SMOOTH",
"83 556 LINE",
"83 431 LINE",
"361 431 LINE SMOOTH",
"394 431 OFFCURVE",
"415 407 OFFCURVE",
"415 376 CURVE SMOOTH",
"415 348 LINE",
"235 348 LINE SMOOTH",
"125 348 OFFCURVE",
"54 282 OFFCURVE",
"54 181 CURVE SMOOTH",
"54 165 LINE SMOOTH",
"54 66 OFFCURVE",
"125 0 OFFCURVE",
"235 0 CURVE SMOOTH"
);
},
{
closed = 1;
nodes = (
"231 117 OFFCURVE",
"206 137 OFFCURVE",
"206 170 CURVE SMOOTH",
"206 176 LINE SMOOTH",
"206 210 OFFCURVE",
"230 231 OFFCURVE",
"270 231 CURVE SMOOTH",
"415 231 LINE",
"415 117 LINE",
"270 117 LINE SMOOTH"
);
}
);
width = 650;
},
{
anchors = (
{
name = bottom;
position = "{304, 0}";
},
{
name = ogonek;
position = "{583, 0}";
},
{
name = top;
position = "{304, 564}";
}
);
layerId = "CBDC2F8B-F278-480B-84CB-440443C6424E";
paths = (
{
closed = 1;
nodes = (
"583 0 LINE",
"583 363 LINE",
"578 484 OFFCURVE",
"492 563 OFFCURVE",
"362 563 CURVE SMOOTH",
"77 563 LINE",
"77 423 LINE",
"316 423 LINE SMOOTH",
"355 423 OFFCURVE",
"379 407 OFFCURVE",
"379 375 CURVE SMOOTH",
"379 363 LINE",
"256 363 LINE SMOOTH",
"125 363 OFFCURVE",
"48 298 OFFCURVE",
"48 190 CURVE SMOOTH",
"48 173 LINE SMOOTH",
"48 64 OFFCURVE",
"126 0 OFFCURVE",
"256 0 CURVE SMOOTH"
);
},
{
closed = 1;
nodes = (
"261 141 OFFCURVE",
"242 154 OFFCURVE",
"242 178 CURVE SMOOTH",
"242 184 LINE SMOOTH",
"242 208 OFFCURVE",
"260 222 OFFCURVE",
"291 222 CURVE SMOOTH",
"379 222 LINE",
"379 141 LINE",
"291 141 LINE SMOOTH"
);
}
);
width = 650;
}
);
leftMetricsKey = a;
rightMetricsKey = h;
category = Letter;
subCategory = "";
},
{
color = 6;
glyphname = ae.ss02;
lastChange = "2021-05-25 15:15:03 +0000";
layers = (
{
anchors = (
{
name = bottom;
position = "{490, 0}";
},
{
name = ogonek;
position = "{456, 0}";
},
{
name = top;
position = "{308, 544}";
}
);
layerId = "8A7F20D3-7375-4A55-82DC-0ADBCD41717D";
paths = (
{
closed = 1;
nodes = (
"317 0 LINE",
"317 403 LINE SMOOTH",
"317 512 OFFCURVE",
"261 544 OFFCURVE",
"180 544 CURVE SMOOTH",
"20 544 LINE",
"20 506 LINE",
"181 506 LINE SMOOTH",
"249 506 OFFCURVE",
"271 469 OFFCURVE",
"271 409 CURVE SMOOTH",
"271 317 LINE",
"164 317 LINE SMOOTH",
"78 317 OFFCURVE",
"20 257 OFFCURVE",
"20 170 CURVE SMOOTH",
"20 146 LINE SMOOTH",
"20 60 OFFCURVE",
"78 0 OFFCURVE",
"164 0 CURVE SMOOTH"
);
},
{
closed = 1;
nodes = (
"106 38 OFFCURVE",
"66 82 OFFCURVE",
"66 145 CURVE SMOOTH",
"66 171 LINE SMOOTH",
"66 235 OFFCURVE",
"106 279 OFFCURVE",
"166 279 CURVE SMOOTH",
"271 279 LINE",
"271 38 LINE",
"166 38 LINE SMOOTH"
);
},
{
closed = 1;
nodes = (
"548 -12 OFFCURVE",
"616 59 OFFCURVE",
"630 175 CURVE",
"586 175 LINE",
"575 84 OFFCURVE",
"518 28 OFFCURVE",
"450 28 CURVE SMOOTH",
"365 28 OFFCURVE",
"317 111 OFFCURVE",
"317 274 CURVE SMOOTH",
"317 423 OFFCURVE",
"366 515 OFFCURVE",
"458 515 CURVE SMOOTH",
"527 515 OFFCURVE",
"576 467 OFFCURVE",
"580 367 CURVE",
"313 369 LINE",
"313 327 LINE",
"625 327 LINE",
"630 477 OFFCURVE",
"564 556 OFFCURVE",
"458 556 CURVE SMOOTH",
"340 556 OFFCURVE",
"273 448 OFFCURVE",
"273 273 CURVE SMOOTH",
"273 88 OFFCURVE",
"334 -12 OFFCURVE",
"450 -12 CURVE SMOOTH"
);
}
);
width = 650;
},
{
anchors = (
{
name = bottom;
position = "{528, 0}";
},
{
name = ogonek;
position = "{481, 0}";
},
{
name = top;
position = "{323, 556}";
}
);
layerId = "8628BAC4-B70C-44D0-A849-1AF4E6A86A6D";
paths = (
{
closed = 1;
nodes = (
"376 0 LINE",
"376 391 LINE SMOOTH",
"376 491 OFFCURVE",
"311 556 OFFCURVE",
"211 556 CURVE SMOOTH",
"22 556 LINE",
"22 431 LINE",
"170 431 LINE SMOOTH",
"203 431 OFFCURVE",
"224 407 OFFCURVE",
"224 376 CURVE SMOOTH",
"224 348 LINE",
"194 348 LINE SMOOTH",
"84 348 OFFCURVE",
"13 282 OFFCURVE",
"13 181 CURVE SMOOTH",
"13 165 LINE SMOOTH",
"13 66 OFFCURVE",
"84 0 OFFCURVE",
"194 0 CURVE SMOOTH"
);
},
{
closed = 1;
nodes = (
"170 117 OFFCURVE",
"145 137 OFFCURVE",
"145 170 CURVE SMOOTH",
"145 176 LINE SMOOTH",
"145 210 OFFCURVE",
"169 231 OFFCURVE",
"209 231 CURVE SMOOTH",
"224 231 LINE",
"224 117 LINE",
"209 117 LINE SMOOTH"
);
},
{
closed = 1;
nodes = (
"552 -12 OFFCURVE",
"622 65 OFFCURVE",
"628 191 CURVE",
"496 191 LINE",
"490 146 OFFCURVE",
"474 114 OFFCURVE",
"439 114 CURVE SMOOTH",
"400 114 OFFCURVE",
"375 184 OFFCURVE",
"375 271 CURVE SMOOTH",
"375 388 OFFCURVE",
"398 450 OFFCURVE",
"437 450 CURVE SMOOTH",
"469 450 OFFCURVE",
"484 419 OFFCURVE",
"485 362 CURVE",
"359 362 LINE",
"357 257 LINE",
"632 257 LINE",
"647 450 OFFCURVE",
"591 568 OFFCURVE",
"444 568 CURVE SMOOTH",
"310 568 OFFCURVE",
"229 459 OFFCURVE",
"229 278 CURVE SMOOTH",
"229 98 OFFCURVE",
"307 -12 OFFCURVE",
"440 -12 CURVE SMOOTH"
);
}
);
width = 650;
},
{
anchors = (
{
name = bottom;
position = "{453, 0}";
},
{
name = ogonek;
position = "{496, 0}";
},
{
name = top;
position = "{323, 563}";
}
);
layerId = "CBDC2F8B-F278-480B-84CB-440443C6424E";
paths = (
{
closed = 1;
nodes = (
"383 0 LINE",
"383 363 LINE",
"378 484 OFFCURVE",
"312 563 OFFCURVE",
"182 563 CURVE SMOOTH",
"41 563 LINE",
"41 423 LINE",
"166 423 LINE SMOOTH",
"205 423 OFFCURVE",
"229 407 OFFCURVE",
"229 375 CURVE SMOOTH",
"229 363 LINE",
"220 363 LINE SMOOTH",
"89 363 OFFCURVE",
"12 298 OFFCURVE",
"12 190 CURVE SMOOTH",
"12 173 LINE SMOOTH",
"12 64 OFFCURVE",
"90 0 OFFCURVE",
"220 0 CURVE SMOOTH"
);
},
{
closed = 1;
nodes = (
"180 141 OFFCURVE",
"161 154 OFFCURVE",
"161 178 CURVE SMOOTH",
"161 184 LINE SMOOTH",
"161 208 OFFCURVE",
"179 222 OFFCURVE",
"210 222 CURVE SMOOTH",
"229 222 LINE",
"229 141 LINE",
"210 141 LINE SMOOTH"
);
},
{
closed = 1;
nodes = (
"547 -12 OFFCURVE",
"626 64 OFFCURVE",
"632 195 CURVE",
"478 195 LINE",
"475 153 OFFCURVE",
"460 135 OFFCURVE",
"438 135 CURVE SMOOTH",
"403 135 OFFCURVE",
"383 196 OFFCURVE",
"383 279 CURVE SMOOTH",
"383 389 OFFCURVE",
"400 441 OFFCURVE",
"432 441 CURVE SMOOTH",
"453 441 OFFCURVE",
"466 418 OFFCURVE",
"467 368 CURVE",
"362 366 LINE",
"359 257 LINE",
"637 257 LINE",
"652 455 OFFCURVE",
"584 575 OFFCURVE",
"436 575 CURVE SMOOTH",
"302 575 OFFCURVE",
"229 465 OFFCURVE",
"229 280 CURVE SMOOTH",
"229 100 OFFCURVE",
"305 -12 OFFCURVE",
"439 -12 CURVE SMOOTH"
);
}
);
width = 650;
}
);
leftMetricsKey = a.ss02;
rightMetricsKey = e;
category = Letter;
subCategory = "";
},
{
color = 6;
glyphname = b.ss03;
lastChange = "2021-05-25 15:15:03 +0000";
layers = (
{
anchors = (
{
name = bottom;
position = "{335, 0}";
},
{
name = center;
position = "{125, 272}";
},
{
name = top;
position = "{335, 545}";
},
{
name = topright;
position = "{214, 545}";
}
);
layerId = "8A7F20D3-7375-4A55-82DC-0ADBCD41717D";
paths = (
{
closed = 1;
nodes = (
"412 0 LINE SMOOTH",
"498 0 OFFCURVE",
"556 60 OFFCURVE",
"556 146 CURVE SMOOTH",
"556 398 LINE SMOOTH",
"556 484 OFFCURVE",
"498 544 OFFCURVE",
"412 544 CURVE SMOOTH",
"145 544 LINE",
"145 730 LINE",
"99 730 LINE",
"99 0 LINE"
);
},
{
closed = 1;
nodes = (
"145 506 LINE",
"410 506 LINE SMOOTH",
"470 506 OFFCURVE",
"510 462 OFFCURVE",
"510 399 CURVE SMOOTH",
"510 145 LINE SMOOTH",
"510 82 OFFCURVE",
"470 38 OFFCURVE",
"410 38 CURVE SMOOTH",
"145 38 LINE"
);
}
);
width = 650;
},
{
anchors = (
{
name = bottom;
position = "{325, 0}";
},
{
name = center;
position = "{143, 278}";
},
{
name = top;
position = "{325, 557}";
},
{
name = topright;
position = "{350, 557}";
}
);
layerId = "8628BAC4-B70C-44D0-A849-1AF4E6A86A6D";
paths = (
{
closed = 1;
nodes = (
"375 -1 LINE SMOOTH",
"500 -1 OFFCURVE",
"586 81 OFFCURVE",
"586 204 CURVE SMOOTH",
"586 351 LINE SMOOTH",
"586 473 OFFCURVE",
"500 556 OFFCURVE",
"375 556 CURVE SMOOTH",
"219 556 LINE",
"219 740 LINE",
"64 740 LINE",
"64 0 LINE"
);
},
{
closed = 1;
nodes = (
"219 430 LINE",
"349 430 LINE SMOOTH",
"399 430 OFFCURVE",
"433 395 OFFCURVE",
"433 346 CURVE SMOOTH",
"433 209 LINE SMOOTH",
"433 160 OFFCURVE",
"399 125 OFFCURVE",
"349 125 CURVE SMOOTH",
"219 125 LINE"
);
}
);
width = 650;
},
{
anchors = (
{
name = bottom;
position = "{263, 102}";
},
{
name = center;
position = "{195, 180}";
},
{
name = top;
position = "{312, 564}";
},
{
name = topright;
position = "{417, 564}";
}
);
layerId = "CBDC2F8B-F278-480B-84CB-440443C6424E";
paths = (
{
closed = 1;
nodes = (
"375 0 LINE SMOOTH",
"527 0 OFFCURVE",
"607 80 OFFCURVE",
"607 231 CURVE SMOOTH",
"607 332 LINE SMOOTH",
"607 483 OFFCURVE",
"527 563 OFFCURVE",
"375 563 CURVE SMOOTH",
"261 563 LINE",
"261 740 LINE",
"45 740 LINE",
"45 0 LINE"
);
},
{
closed = 1;
nodes = (
"261 391 LINE",
"326 391 LINE SMOOTH",
"369 391 OFFCURVE",
"391 368 OFFCURVE",
"391 326 CURVE SMOOTH",
"391 237 LINE SMOOTH",
"391 195 OFFCURVE",
"369 172 OFFCURVE",
"326 172 CURVE SMOOTH",
"261 172 LINE"
);
}
);
width = 650;
}
);
leftMetricsKey = h;
rightMetricsKey = h;
category = Letter;
subCategory = "";
},
{
color = 6;
glyphname = d.ss03;
lastChange = "2021-05-25 15:15:03 +0000";
layers = (
{
anchors = (
{
name = bottom;
position = "{315, 0}";
},
{
name = center;
position = "{336, 272}";
},
{
name = top;
position = "{315, 545}";
},
{
name = topleft;
position = "{436, 545}";
},
{
name = topright;
position = "{610, 544}";
}
);
layerId = "8A7F20D3-7375-4A55-82DC-0ADBCD41717D";
paths = (
{
closed = 1;
nodes = (
"551 730 LINE",
"505 730 LINE",
"505 544 LINE",
"238 544 LINE SMOOTH",
"152 544 OFFCURVE",
"94 484 OFFCURVE",
"94 398 CURVE SMOOTH",
"94 146 LINE SMOOTH",
"94 60 OFFCURVE",
"152 0 OFFCURVE",
"238 0 CURVE SMOOTH",
"551 0 LINE"
);
},
{
closed = 1;
nodes = (
"240 38 LINE SMOOTH",
"180 38 OFFCURVE",
"140 82 OFFCURVE",
"140 145 CURVE SMOOTH",
"140 399 LINE SMOOTH",
"140 462 OFFCURVE",
"180 506 OFFCURVE",
"240 506 CURVE SMOOTH",
"505 506 LINE",
"505 38 LINE"
);
}
);
width = 650;
},
{
anchors = (
{
name = bottom;
position = "{325, 0}";
},
{
name = center;
position = "{356, 278}";
},
{
name = top;
position = "{325, 557}";
},
{
name = topleft;
position = "{300, 557}";
},
{
name = topright;
position = "{703, 556}";
}
);
layerId = "8628BAC4-B70C-44D0-A849-1AF4E6A86A6D";
paths = (
{
closed = 1;
nodes = (
"586 740 LINE",
"431 740 LINE",
"431 556 LINE",
"275 556 LINE SMOOTH",
"150 556 OFFCURVE",
"64 473 OFFCURVE",
"64 351 CURVE SMOOTH",
"64 204 LINE SMOOTH",
"64 81 OFFCURVE",
"150 -1 OFFCURVE",
"275 -1 CURVE SMOOTH",
"586 0 LINE"
);
},
{
closed = 1;
nodes = (
"301 125 LINE SMOOTH",
"251 125 OFFCURVE",
"217 160 OFFCURVE",
"217 209 CURVE SMOOTH",
"217 346 LINE SMOOTH",
"217 395 OFFCURVE",
"251 430 OFFCURVE",
"301 430 CURVE SMOOTH",
"431 430 LINE",
"431 125 LINE"
);
}
);
width = 650;
},
{
anchors = (
{
name = bottom;
position = "{387, 102}";
},
{
name = center;
position = "{364, 281}";
},
{
name = top;
position = "{338, 564}";
},
{
name = topleft;
position = "{233, 564}";
},
{
name = topright;
position = "{744, 563}";
}
);
layerId = "CBDC2F8B-F278-480B-84CB-440443C6424E";
paths = (
{
closed = 1;
nodes = (
"605 740 LINE",
"389 740 LINE",
"389 563 LINE",
"275 563 LINE SMOOTH",
"123 563 OFFCURVE",
"43 483 OFFCURVE",
"43 332 CURVE SMOOTH",
"43 231 LINE SMOOTH",
"43 80 OFFCURVE",
"123 0 OFFCURVE",
"275 0 CURVE SMOOTH",
"605 0 LINE"
);
},
{
closed = 1;
nodes = (
"324 172 LINE SMOOTH",
"281 172 OFFCURVE",
"259 195 OFFCURVE",
"259 237 CURVE SMOOTH",
"259 326 LINE SMOOTH",
"259 368 OFFCURVE",
"281 391 OFFCURVE",
"324 391 CURVE SMOOTH",
"389 391 LINE",
"389 172 LINE"
);
}
);
width = 650;
}
);
leftMetricsKey = "=|h";
rightMetricsKey = "=h";
category = Letter;
subCategory = "";
},
{
color = 6;
glyphname = dcroat.ss03;
lastChange = "2021-05-25 15:15:03 +0000";
layers = (
{
anchors = (
{
name = _center;
position = "{487, 634}";
}
);
layerId = "8A7F20D3-7375-4A55-82DC-0ADBCD41717D";
paths = (
{
closed = 1;
nodes = (
"554 730 LINE",
"508 730 LINE",
"508 506 LINE",
"241 506 LINE SMOOTH",
"155 506 OFFCURVE",
"97 447 OFFCURVE",
"97 360 CURVE SMOOTH",
"97 146 LINE SMOOTH",
"97 59 OFFCURVE",
"155 0 OFFCURVE",
"241 0 CURVE SMOOTH",
"554 0 LINE"
);
},
{
closed = 1;
nodes = (
"243 38 LINE SMOOTH",
"183 38 OFFCURVE",
"143 81 OFFCURVE",
"143 145 CURVE SMOOTH",
"143 361 LINE SMOOTH",
"143 425 OFFCURVE",
"183 468 OFFCURVE",
"243 468 CURVE SMOOTH",
"508 468 LINE",
"508 38 LINE"
);
},
{
closed = 1;
nodes = (
"639 615 LINE",
"639 653 LINE",
"334 653 LINE",
"334 615 LINE"
);
}
);
width = 650;
},
{
anchors = (
{
name = _center;
position = "{449, 635}";
}
);
layerId = "8628BAC4-B70C-44D0-A849-1AF4E6A86A6D";
paths = (
{
closed = 1;
nodes = (
"584 740 LINE",
"429 740 LINE",
"429 506 LINE",
"273 506 LINE SMOOTH",
"148 506 OFFCURVE",
"59 424 OFFCURVE",
"59 301 CURVE SMOOTH",
"59 204 LINE SMOOTH",
"59 81 OFFCURVE",
"148 -1 OFFCURVE",
"273 -1 CURVE SMOOTH",
"584 0 LINE"
);
},
{
closed = 1;
nodes = (
"299 125 LINE SMOOTH",
"249 125 OFFCURVE",
"215 159 OFFCURVE",
"215 209 CURVE SMOOTH",
"215 296 LINE SMOOTH",
"215 346 OFFCURVE",
"249 380 OFFCURVE",
"299 380 CURVE SMOOTH",
"429 380 LINE",
"429 125 LINE"
);
},
{
closed = 1;
nodes = (
"643 580 LINE",
"643 690 LINE",
"253 690 LINE",
"253 580 LINE"
);
}
);
width = 650;
},
{
anchors = (
{
name = _center;
position = "{442, 639}";
}
);
layerId = "CBDC2F8B-F278-480B-84CB-440443C6424E";
paths = (
{
closed = 1;
nodes = (
"600 740 LINE",
"384 740 LINE",
"384 523 LINE",
"270 523 LINE SMOOTH",
"118 523 OFFCURVE",
"38 444 OFFCURVE",
"38 292 CURVE SMOOTH",
"38 231 LINE SMOOTH",
"38 79 OFFCURVE",
"118 0 OFFCURVE",
"270 0 CURVE SMOOTH",
"600 0 LINE"
);
},
{
closed = 1;
nodes = (
"319 172 LINE SMOOTH",
"276 172 OFFCURVE",
"254 194 OFFCURVE",
"254 237 CURVE SMOOTH",
"254 286 LINE SMOOTH",
"254 329 OFFCURVE",
"276 351 OFFCURVE",
"319 351 CURVE SMOOTH",
"384 351 LINE",
"384 172 LINE"
);
},
{
closed = 1;
nodes = (
"645 578 LINE",
"645 698 LINE",
"237 698 LINE",
"237 578 LINE"
);
}
);
width = 650;
}
);
leftMetricsKey = h;
category = Letter;
subCategory = "";
},
{
color = 6;
glyphname = p.ss03;
lastChange = "2021-05-25 15:15:03 +0000";
layers = (
{
anchors = (
{
name = bottom;
position = "{329, 0}";
},
{
name = top;
position = "{329, 545}";
}
);
layerId = "8A7F20D3-7375-4A55-82DC-0ADBCD41717D";
paths = (
{
closed = 1;
nodes = (
"99 -178 LINE",
"145 -178 LINE",
"145 0 LINE",
"412 0 LINE SMOOTH",
"498 0 OFFCURVE",
"556 60 OFFCURVE",
"556 146 CURVE SMOOTH",
"556 398 LINE SMOOTH",
"556 484 OFFCURVE",
"498 544 OFFCURVE",
"412 544 CURVE SMOOTH",
"99 544 LINE"
);
},
{
closed = 1;
nodes = (
"410 506 LINE SMOOTH",
"470 506 OFFCURVE",
"510 462 OFFCURVE",
"510 399 CURVE SMOOTH",
"510 145 LINE SMOOTH",
"510 82 OFFCURVE",
"470 38 OFFCURVE",
"410 38 CURVE SMOOTH",
"145 38 LINE",
"145 506 LINE"
);
}
);
width = 650;
},
{
anchors = (
{
name = bottom;
position = "{330, 0}";
},
{
name = top;
position = "{330, 557}";
}
);
layerId = "8628BAC4-B70C-44D0-A849-1AF4E6A86A6D";
paths = (
{
closed = 1;
nodes = (
"64 -178 LINE",
"220 -178 LINE",
"220 0 LINE",
"376 0 LINE SMOOTH",
"501 0 OFFCURVE",
"590 83 OFFCURVE",
"590 205 CURVE SMOOTH",
"590 352 LINE SMOOTH",
"590 475 OFFCURVE",
"501 557 OFFCURVE",
"376 557 CURVE SMOOTH",
"64 556 LINE"
);
},
{
closed = 1;
nodes = (
"350 431 LINE SMOOTH",
"400 431 OFFCURVE",
"434 396 OFFCURVE",
"434 347 CURVE SMOOTH",
"434 210 LINE SMOOTH",
"434 161 OFFCURVE",
"400 126 OFFCURVE",
"350 126 CURVE SMOOTH",
"220 126 LINE",
"220 431 LINE"
);
}
);
width = 650;
},
{
anchors = (
{
name = bottom;
position = "{322, 0}";
},
{
name = top;
position = "{322, 564}";
}
);
layerId = "CBDC2F8B-F278-480B-84CB-440443C6424E";
paths = (
{
closed = 1;
nodes = (
"45 -177 LINE",
"261 -177 LINE",
"261 0 LINE",
"375 0 LINE SMOOTH",
"527 0 OFFCURVE",
"607 80 OFFCURVE",
"607 231 CURVE SMOOTH",
"607 332 LINE SMOOTH",
"607 483 OFFCURVE",
"527 563 OFFCURVE",
"375 563 CURVE SMOOTH",
"45 563 LINE"
);
},
{
closed = 1;
nodes = (
"326 391 LINE SMOOTH",
"369 391 OFFCURVE",
"391 368 OFFCURVE",
"391 326 CURVE SMOOTH",
"391 237 LINE SMOOTH",
"391 195 OFFCURVE",
"369 172 OFFCURVE",
"326 172 CURVE SMOOTH",
"261 172 LINE",
"261 391 LINE"
);
}
);
width = 650;
}
);
leftMetricsKey = h;
rightMetricsKey = h;
category = Letter;
subCategory = "";
},
{
color = 6;
glyphname = thorn.ss03;
lastChange = "2021-05-25 15:15:03 +0000";
layers = (
{
layerId = "8A7F20D3-7375-4A55-82DC-0ADBCD41717D";
paths = (
{
closed = 1;
nodes = (
"145 730 LINE",
"99 730 LINE",
"99 -178 LINE",
"145 -178 LINE",
"145 0 LINE",
"412 0 LINE SMOOTH",
"498 0 OFFCURVE",
"556 60 OFFCURVE",
"556 146 CURVE SMOOTH",
"556 398 LINE SMOOTH",
"556 484 OFFCURVE",
"498 544 OFFCURVE",
"412 544 CURVE SMOOTH",
"145 544 LINE"
);
},
{
closed = 1;
nodes = (
"510 82 OFFCURVE",
"470 38 OFFCURVE",
"410 38 CURVE SMOOTH",
"145 38 LINE",
"145 506 LINE",
"410 506 LINE SMOOTH",
"470 506 OFFCURVE",
"510 462 OFFCURVE",
"510 399 CURVE SMOOTH",
"510 145 LINE SMOOTH"
);
}
);
width = 650;
},
{
layerId = "8628BAC4-B70C-44D0-A849-1AF4E6A86A6D";
paths = (
{
closed = 1;
nodes = (
"219 740 LINE",
"64 740 LINE",
"64 -184 LINE",
"219 -184 LINE",
"219 0 LINE",
"375 0 LINE SMOOTH",
"500 0 OFFCURVE",
"589 83 OFFCURVE",
"589 205 CURVE SMOOTH",
"589 352 LINE SMOOTH",
"589 474 OFFCURVE",
"500 556 OFFCURVE",
"375 556 CURVE SMOOTH",
"219 556 LINE"
);
},
{
closed = 1;
nodes = (
"433 161 OFFCURVE",
"399 126 OFFCURVE",
"349 126 CURVE SMOOTH",
"219 126 LINE",
"219 431 LINE",
"349 431 LINE SMOOTH",
"399 431 OFFCURVE",
"433 396 OFFCURVE",
"433 347 CURVE SMOOTH",
"433 210 LINE SMOOTH"
);
}
);
width = 650;
},
{
layerId = "CBDC2F8B-F278-480B-84CB-440443C6424E";
paths = (
{
closed = 1;
nodes = (
"261 740 LINE",
"45 740 LINE",
"45 -177 LINE",
"261 -177 LINE",
"261 0 LINE",
"375 0 LINE SMOOTH",
"527 0 OFFCURVE",
"607 80 OFFCURVE",
"607 231 CURVE SMOOTH",
"607 332 LINE SMOOTH",
"607 483 OFFCURVE",
"527 563 OFFCURVE",
"375 563 CURVE SMOOTH",
"261 563 LINE"
);
},
{
closed = 1;
nodes = (
"391 195 OFFCURVE",
"369 172 OFFCURVE",
"326 172 CURVE SMOOTH",
"261 172 LINE",
"261 391 LINE",
"326 391 LINE SMOOTH",
"369 391 OFFCURVE",
"391 368 OFFCURVE",
"391 326 CURVE SMOOTH",
"391 237 LINE SMOOTH"
);
}
);
width = 650;
}
);
leftMetricsKey = h;
rightMetricsKey = h;
category = Letter;
subCategory = "";
},
{
color = 6;
glyphname = q.ss03;
lastChange = "2021-05-25 15:15:03 +0000";
layers = (
{
anchors = (
{
name = bottom;
position = "{317, 0}";
},
{
name = top;
position = "{317, 544}";
}
);
layerId = "8A7F20D3-7375-4A55-82DC-0ADBCD41717D";
paths = (
{
closed = 1;
nodes = (
"238 545 LINE SMOOTH",
"152 545 OFFCURVE",
"94 485 OFFCURVE",
"94 399 CURVE SMOOTH",
"94 146 LINE SMOOTH",
"94 60 OFFCURVE",
"152 0 OFFCURVE",
"238 0 CURVE SMOOTH",
"505 0 LINE",
"505 -178 LINE",
"551 -178 LINE",
"551 545 LINE"
);
},
{
closed = 1;
nodes = (
"505 38 LINE",
"240 38 LINE SMOOTH",
"180 38 OFFCURVE",
"140 82 OFFCURVE",
"140 145 CURVE SMOOTH",
"140 400 LINE SMOOTH",
"140 463 OFFCURVE",
"180 507 OFFCURVE",
"240 507 CURVE SMOOTH",
"505 507 LINE"
);
}
);
width = 650;
},
{
anchors = (
{
name = bottom;
position = "{337, 0}";
},
{
name = top;
position = "{337, 556}";
}
);
layerId = "8628BAC4-B70C-44D0-A849-1AF4E6A86A6D";
paths = (
{
closed = 1;
nodes = (
"274 558 LINE SMOOTH",
"149 558 OFFCURVE",
"60 476 OFFCURVE",
"60 353 CURVE SMOOTH",
"60 205 LINE SMOOTH",
"60 83 OFFCURVE",
"149 0 OFFCURVE",
"274 0 CURVE SMOOTH",
"430 0 LINE",
"430 -178 LINE",
"586 -178 LINE",
"586 557 LINE"
);
},
{
closed = 1;
nodes = (
"430 126 LINE",
"300 126 LINE SMOOTH",
"250 126 OFFCURVE",
"216 161 OFFCURVE",
"216 210 CURVE SMOOTH",
"216 348 LINE SMOOTH",
"216 397 OFFCURVE",
"250 432 OFFCURVE",
"300 432 CURVE SMOOTH",
"430 432 LINE"
);
}
);
width = 650;
},
{
anchors = (
{
name = bottom;
position = "{348, 0}";
},
{
name = top;
position = "{348, 563}";
}
);
layerId = "CBDC2F8B-F278-480B-84CB-440443C6424E";
paths = (
{
closed = 1;
nodes = (
"275 564 LINE SMOOTH",
"123 564 OFFCURVE",
"43 484 OFFCURVE",
"43 333 CURVE SMOOTH",
"43 231 LINE SMOOTH",
"43 80 OFFCURVE",
"123 0 OFFCURVE",
"275 0 CURVE SMOOTH",
"389 0 LINE",
"389 -177 LINE",
"605 -177 LINE",
"605 564 LINE"
);
},
{
closed = 1;
nodes = (
"389 172 LINE",
"324 172 LINE SMOOTH",
"281 172 OFFCURVE",
"259 195 OFFCURVE",
"259 237 CURVE SMOOTH",
"259 327 LINE SMOOTH",
"259 369 OFFCURVE",
"281 392 OFFCURVE",
"324 392 CURVE SMOOTH",
"389 392 LINE"
);
}
);
width = 650;
}
);
leftMetricsKey = d.ss03;
category = Letter;
subCategory = "";
},
{
color = 6;
glyphname = c.ss04;
lastChange = "2021-05-25 15:15:03 +0000";
layers = (
{
anchors = (
{
name = bottom;
position = "{372, 0}";
},
{
name = top;
position = "{391, 545}";
}
);
layerId = "8A7F20D3-7375-4A55-82DC-0ADBCD41717D";
rightMetricsKey = "=o-5";
paths = (
{
closed = 1;
nodes = (
"565 0 LINE",
"565 38 LINE",
"352 38 LINE SMOOTH",
"214 38 OFFCURVE",
"126 126 OFFCURVE",
"126 273 CURVE SMOOTH",
"126 419 OFFCURVE",
"214 506 OFFCURVE",
"352 506 CURVE SMOOTH",
"565 506 LINE",
"565 544 LINE",
"352 544 LINE SMOOTH",
"190 544 OFFCURVE",
"79 442 OFFCURVE",
"79 273 CURVE SMOOTH",
"79 103 OFFCURVE",
"190 0 OFFCURVE",
"352 0 CURVE SMOOTH"
);
}
);
width = 650;
},
{
anchors = (
{
name = bottom;
position = "{376, 0}";
},
{
name = top;
position = "{374, 557}";
}
);
layerId = "8628BAC4-B70C-44D0-A849-1AF4E6A86A6D";
paths = (
{
closed = 1;
nodes = (
"570 0 LINE",
"570 126 LINE",
"356 126 LINE SMOOTH",
"271 126 OFFCURVE",
"216 187 OFFCURVE",
"216 278 CURVE SMOOTH",
"216 370 OFFCURVE",
"271 430 OFFCURVE",
"356 430 CURVE SMOOTH",
"570 430 LINE",
"570 556 LINE",
"356 556 LINE SMOOTH",
"177 556 OFFCURVE",
"60 446 OFFCURVE",
"60 278 CURVE SMOOTH",
"60 111 OFFCURVE",
"177 0 OFFCURVE",
"356 0 CURVE SMOOTH"
);
}
);
width = 650;
},
{
anchors = (
{
name = bottom;
position = "{367, 0}";
},
{
name = top;
position = "{384, 564}";
}
);
layerId = "CBDC2F8B-F278-480B-84CB-440443C6424E";
paths = (
{
closed = 1;
nodes = (
"585 0 LINE",
"585 171 LINE",
"387 171 LINE SMOOTH",
"315 171 OFFCURVE",
"268 215 OFFCURVE",
"268 282 CURVE SMOOTH",
"268 348 OFFCURVE",
"315 391 OFFCURVE",
"387 391 CURVE SMOOTH",
"585 391 LINE",
"585 563 LINE",
"347 563 LINE SMOOTH",
"168 563 OFFCURVE",
"52 452 OFFCURVE",
"52 282 CURVE SMOOTH",
"52 111 OFFCURVE",
"168 0 OFFCURVE",
"347 0 CURVE SMOOTH"
);
}
);
width = 650;
}
);
leftMetricsKey = o;
rightMetricsKey = h;
category = Letter;
subCategory = "";
},
